<svg width="18" height="18" viewBox="0 0 18 18" fill="none" xmlns="http://www.w3.org/2000/svg">
<path d="M16.4986 6.75H1.4986V8.25H16.4986V6.75Z" fill="#2DCA8C"/>
<path opacity="0.2" d="M14.2486 3.75H3.7486C2.50746 3.75361 1.50221 4.75886 1.4986 6V6.75H16.4986V6C16.495 4.75886 15.4897 3.75361 14.2486 3.75Z" fill="#2DCA8C"/>
<path opacity="0.2" d="M1.4986 12.75C1.50226 13.9911 2.50746 14.9963 3.7486 15H14.2486C15.4897 14.9963 16.4949 13.9911 16.4986 12.75V8.25H1.4986V12.75Z" fill="#2DCA8C"/>
<path d="M7.4986 11.25H5.2486C4.83439 11.25 4.4986 10.9142 4.4986 10.5C4.4986 10.0858 4.83439 9.75 5.2486 9.75H7.4986C7.91281 9.75 8.2486 10.0858 8.2486 10.5C8.2486 10.9142 7.91281 11.25 7.4986 11.25Z" fill="#2DCA8C"/>
</svg>
