<svg width="18" height="18" viewBox="0 0 18 18" fill="none" xmlns="http://www.w3.org/2000/svg">
<g clip-path="url(#clip0_1_3873)">
<path d="M9.00006 16.4999C8.84377 16.4998 8.69141 16.4509 8.56431 16.36L5.82651 14.4044C4.95302 13.7792 4.24104 12.9549 3.74952 11.9998C3.258 11.0446 3.00109 9.98614 3.00006 8.91196V3.31921C3.00012 3.20763 3.02506 3.09746 3.07308 2.99673C3.1211 2.89601 3.19098 2.80726 3.27763 2.73695C3.36429 2.66665 3.46553 2.61656 3.57399 2.59033C3.68245 2.5641 3.7954 2.56239 3.9046 2.58533C4.7061 2.75369 5.53357 2.75619 6.33607 2.5927C7.13858 2.4292 7.89911 2.10316 8.57086 1.63465C8.6967 1.54669 8.84653 1.49951 9.00006 1.49951C9.1536 1.49951 9.30342 1.54669 9.42926 1.63465C10.1009 2.10329 10.8615 2.42941 11.664 2.59291C12.4666 2.75641 13.2941 2.75382 14.0956 2.58531C14.2048 2.56238 14.3177 2.56409 14.4262 2.59032C14.5346 2.61655 14.6359 2.66664 14.7225 2.73695C14.8091 2.80725 14.879 2.896 14.927 2.99672C14.9751 3.09744 15 3.20761 15.0001 3.31919V8.91194C14.999 9.98612 14.7421 11.0446 14.2506 11.9997C13.7591 12.9549 13.0471 13.7792 12.1736 14.4044L9.43585 16.3599C9.30874 16.4509 9.15636 16.4998 9.00006 16.4999Z" fill="#7BAEFF"/>
<path d="M8.13727 11.0252C8.03878 11.0252 7.94125 11.0058 7.85027 10.9681C7.75929 10.9304 7.67663 10.8751 7.60702 10.8054L6.40731 9.60499C6.26813 9.46406 6.19036 9.27378 6.19098 9.07571C6.1916 8.87764 6.27056 8.68786 6.41061 8.5478C6.55067 8.40773 6.74045 8.32877 6.93852 8.32814C7.13659 8.32752 7.32687 8.40528 7.46781 8.54445L8.13724 9.21461L10.1573 7.19459C10.2268 7.1243 10.3095 7.06845 10.4007 7.03023C10.4918 6.99202 10.5896 6.97221 10.6885 6.97193C10.7873 6.97165 10.8852 6.99091 10.9766 7.02861C11.068 7.0663 11.151 7.12169 11.2209 7.19158C11.2908 7.26148 11.3461 7.34449 11.3838 7.43587C11.4215 7.52724 11.4408 7.62516 11.4405 7.724C11.4402 7.82284 11.4204 7.92065 11.3822 8.0118C11.344 8.10295 11.2881 8.18565 11.2178 8.25514L8.66752 10.8054C8.5979 10.8751 8.51524 10.9304 8.42426 10.9681C8.33328 11.0058 8.23575 11.0252 8.13727 11.0252Z" fill="#1768F7"/>
</g>
<defs>
<clipPath id="clip0_1_3873">
<rect width="18" height="18" fill="white"/>
</clipPath>
</defs>
</svg>
