<svg width="48" height="32" viewBox="0 0 48 32" fill="none" xmlns="http://www.w3.org/2000/svg">
<path d="M6.10352e-05 4C6.10352e-05 1.79086 1.79092 0 4.00006 0H44.0001C46.2092 0 48.0001 1.79086 48.0001 4V28C48.0001 30.2091 46.2092 32 44.0001 32H4.00006C1.79092 32 6.10352e-05 30.2091 6.10352e-05 28V4Z" fill="#3F51B5"/>
<path d="M23.5261 4.14729C23.7208 3.75819 24.279 3.75715 24.4738 4.14618C24.5506 4.29949 24.7006 4.40627 24.8704 4.43016C25.2966 4.49014 25.4758 5.01637 25.1652 5.31449C25.0417 5.43312 24.9852 5.60614 25.0142 5.77494C25.0876 6.20116 24.6422 6.53042 24.2582 6.33138L24.2438 6.3239C24.091 6.24467 23.9091 6.2448 23.7564 6.32424L23.7416 6.33193C23.359 6.53097 22.9145 6.20306 22.989 5.77823C23.0188 5.60864 22.9621 5.43487 22.8377 5.31584C22.5263 5.01796 22.7038 4.49116 23.1304 4.43112C23.3 4.40726 23.4495 4.30042 23.5261 4.14729ZM17.7943 5.83416C17.9894 5.44476 18.5471 5.44427 18.7422 5.83367C18.819 5.98714 18.9692 6.0941 19.1391 6.11855C19.5657 6.17995 19.7452 6.70703 19.4343 7.00555C19.3103 7.12459 19.2536 7.29798 19.2828 7.46737C19.3562 7.89268 18.9119 8.22064 18.5285 8.02255L18.5116 8.01382C18.359 7.93502 18.1777 7.93502 18.0252 8.01382L18.0085 8.02247C17.6258 8.22015 17.1826 7.89257 17.2572 7.46839C17.2871 7.29838 17.2302 7.12429 17.1055 7.00496C16.7941 6.70701 16.9721 6.17988 17.3987 6.11844C17.5681 6.09404 17.7177 5.98725 17.7943 5.83416ZM13.7252 9.52935C13.9187 9.14151 14.4738 9.14279 14.6685 9.53006C14.7454 9.68312 14.8953 9.79006 15.0649 9.81448C15.4916 9.87594 15.6707 10.403 15.3598 10.7015C15.2358 10.8206 15.1791 10.9939 15.2083 11.1633C15.2816 11.5882 14.8371 11.915 14.4544 11.7162L14.4413 11.7094C14.2889 11.6302 14.1074 11.6301 13.9548 11.709L13.9384 11.7175C13.5554 11.9155 13.1114 11.5882 13.1848 11.1633C13.214 10.9939 13.1573 10.8206 13.0333 10.7015C12.7224 10.403 12.9017 9.87599 13.3283 9.8146C13.4984 9.79012 13.6485 9.68313 13.7252 9.52935ZM30.2057 5.83416C30.0107 5.44476 29.4529 5.44427 29.2579 5.83367C29.181 5.98714 29.0309 6.0941 28.861 6.11855C28.4343 6.17995 28.2548 6.70703 28.5657 7.00555C28.6897 7.12459 28.7464 7.29798 28.7172 7.46737C28.6438 7.89268 29.0881 8.22064 29.4716 8.02255L29.4885 8.01382C29.641 7.93502 29.8223 7.93502 29.9748 8.01382L29.9916 8.02247C30.3742 8.22015 30.8174 7.89257 30.7428 7.46839C30.7129 7.29838 30.7698 7.12429 30.8945 7.00496C31.2059 6.70701 31.0279 6.17988 30.6013 6.11844C30.4319 6.09404 30.2824 5.98725 30.2057 5.83416ZM17.7945 23.8209C17.9894 23.4319 18.5471 23.4313 18.7419 23.8204C18.8189 23.974 18.9686 24.0809 19.1388 24.1048C19.5666 24.165 19.7447 24.6925 19.4337 24.9925C19.3101 25.1117 19.2536 25.285 19.2828 25.4543C19.3562 25.8798 18.9116 26.2077 18.5279 26.0095L18.5116 26.001C18.359 25.9222 18.1777 25.9222 18.0252 26.001L18.0089 26.0095C17.626 26.2072 17.1826 25.8797 17.2572 25.4554C17.2871 25.2854 17.2304 25.1114 17.106 24.9919C16.7945 24.6929 16.9714 24.1655 17.3989 24.105C17.5686 24.0809 17.7178 23.9742 17.7945 23.8209ZM30.2055 23.8209C30.0106 23.4319 29.453 23.4313 29.2581 23.8204C29.1811 23.974 29.0314 24.0809 28.8612 24.1048C28.4334 24.165 28.2553 24.6925 28.5663 24.9925C28.69 25.1117 28.7464 25.285 28.7172 25.4543C28.6438 25.8798 29.0884 26.2077 29.4721 26.0095L29.4885 26.001C29.641 25.9222 29.8223 25.9222 29.9748 26.001L29.9912 26.0095C30.374 26.2072 30.8174 25.8797 30.7428 25.4554C30.7129 25.2854 30.7696 25.1114 30.8941 24.9919C31.2055 24.6929 31.0286 24.1655 30.6011 24.105C30.4315 24.0809 30.2822 23.9742 30.2055 23.8209ZM34.2748 9.52935C34.0813 9.14151 33.5262 9.14279 33.3316 9.53006C33.2546 9.68312 33.1047 9.79006 32.9351 9.81448C32.5085 9.87594 32.3293 10.403 32.6402 10.7015C32.7642 10.8206 32.821 10.9939 32.7917 11.1633C32.7184 11.5882 33.1629 11.915 33.5456 11.7162L33.5587 11.7094C33.7112 11.6302 33.8926 11.6301 34.0452 11.709L34.0617 11.7175C34.4446 11.9155 34.8886 11.5882 34.8152 11.1633C34.786 10.9939 34.8427 10.8206 34.9667 10.7015C35.2776 10.403 35.0984 9.87599 34.6717 9.8146C34.5016 9.79012 34.3516 9.68313 34.2748 9.52935ZM13.7252 20.0669C13.9187 19.6791 14.4738 19.6804 14.6685 20.0677C14.7454 20.2207 14.8954 20.3277 15.0649 20.3521C15.4916 20.4135 15.6708 20.9406 15.3598 21.2391C15.2358 21.3582 15.1791 21.5315 15.2083 21.7009C15.2817 22.1255 14.8376 22.4522 14.455 22.2539L14.4413 22.2468C14.2888 22.1677 14.1075 22.1676 13.9549 22.2465L13.9384 22.2551C13.5554 22.4531 13.1114 22.1258 13.1848 21.7009C13.214 21.5315 13.1573 21.3582 13.0333 21.2391C12.7224 20.9406 12.9017 20.4136 13.3283 20.3522C13.4984 20.3277 13.6485 20.2207 13.7252 20.0669ZM34.2748 20.0669C34.0813 19.6791 33.5262 19.6804 33.3316 20.0677C33.2546 20.2207 33.1047 20.3277 32.9351 20.3521C32.5085 20.4135 32.3293 20.9406 32.6402 21.2391C32.7642 21.3582 32.821 21.5315 32.7917 21.7009C32.7184 22.1255 33.1624 22.4522 33.545 22.2539L33.5587 22.2468C33.7112 22.1677 33.8925 22.1676 34.0451 22.2465L34.0617 22.2551C34.4446 22.4531 34.8886 22.1258 34.8152 21.7009C34.786 21.5315 34.8427 21.3582 34.9667 21.2391C35.2776 20.9406 35.0984 20.4136 34.6717 20.3522C34.5016 20.3277 34.3516 20.2207 34.2748 20.0669ZM34.687 15.1384C34.8815 14.7492 35.4389 14.7491 35.6338 15.1381C35.7106 15.2916 35.8581 15.3982 36.028 15.4227L36.0413 15.4246C36.4679 15.486 36.6369 16.0115 36.326 16.3101C36.202 16.4291 36.1453 16.6025 36.1745 16.7719C36.2479 17.1968 35.804 17.5243 35.4208 17.3264L35.403 17.3172C35.2506 17.2385 35.0695 17.2386 34.9172 17.3176L34.9028 17.325C34.5206 17.5232 34.077 17.1967 34.1506 16.7725C34.1801 16.6027 34.1231 16.429 33.9985 16.3099C33.6867 16.012 33.8644 15.4844 34.2912 15.423C34.4608 15.3986 34.6103 15.2917 34.687 15.1384ZM12.3661 15.1385C12.5609 14.7494 13.1185 14.7492 13.3131 15.1384C13.3897 15.2917 13.5393 15.3986 13.7089 15.423C14.1355 15.4844 14.3136 16.0117 14.002 16.3095C13.8772 16.4288 13.8202 16.6029 13.8502 16.773C13.9247 17.1967 13.4819 17.5236 13.0998 17.326L13.0829 17.3173C12.9306 17.2385 12.7494 17.2384 12.597 17.3172L12.5792 17.3264C12.1967 17.524 11.7537 17.1968 11.828 16.7727C11.8577 16.6028 11.8008 16.4289 11.6762 16.3096C11.3648 16.0117 11.5433 15.4844 11.97 15.423C12.1396 15.3986 12.2894 15.2917 12.3661 15.1385ZM23.526 26.1296C23.721 25.7403 24.279 25.7406 24.4738 26.13C24.5506 26.2835 24.698 26.3902 24.8679 26.4147L24.8819 26.4167C25.3081 26.478 25.4768 27.0032 25.1659 27.3012C25.042 27.4201 24.9853 27.5935 25.0145 27.7627C25.0878 28.188 24.6436 28.5162 24.2602 28.3181L24.2432 28.3093C24.0906 28.2305 23.9094 28.2305 23.7568 28.3093L23.74 28.318C23.3574 28.5157 22.9142 28.1881 22.9888 27.764C23.0187 27.5939 22.9618 27.4198 22.837 27.3005C22.5253 27.0026 22.7035 26.4753 23.1302 26.4139C23.2997 26.3895 23.4493 26.2827 23.526 26.1296Z" fill="#FFEB3B"/>
</svg>
