<svg width="162" height="30" viewBox="0 0 162 30" fill="none" xmlns="http://www.w3.org/2000/svg">
<path d="M0 0.0205078H11.8766C14.1389 0.0205078 15.8355 0.587698 17.0923 1.53301C18.4748 2.66739 19.2289 4.30594 19.2289 6.32262C19.2289 8.6544 18.2863 10.1039 16.4011 10.9862V11.1122C18.9147 11.9315 20.36 14.2003 20.36 16.9102C20.36 19.494 19.3545 21.5107 17.7207 22.7711C16.3382 23.7795 14.5787 24.2206 12.1908 24.2206H0V0.0205078ZM10.6827 9.47367C11.9395 9.47367 12.8821 8.78044 12.8821 7.33096C12.8821 5.94449 11.9395 5.25126 10.6199 5.25126H6.5353V9.41065H10.6827V9.47367ZM11.2483 18.8638C12.6936 18.8638 13.7618 17.9815 13.7618 16.406C13.7618 14.7044 12.6307 13.9482 11.2483 13.9482H6.59814V18.9268H11.2483V18.8638Z" fill="black"/>
<path d="M21.4284 0.0205078H27.6495V24.2836H21.4284V0.0205078Z" fill="black"/>
<path d="M28.9061 15.6498C28.9061 10.1669 32.4251 6.51172 37.8921 6.51172C43.3591 6.51172 46.8153 10.23 46.8153 15.6498C46.8153 21.1326 43.3591 24.7878 37.8921 24.7878C32.4251 24.7878 28.9061 21.1326 28.9061 15.6498ZM40.5942 15.6498C40.5942 12.6248 39.6516 10.7341 37.7664 10.7341C35.8812 10.7341 35.0015 12.6248 35.0015 15.6498C35.0015 18.6748 35.8812 20.6285 37.7664 20.6285C39.6516 20.5654 40.5942 18.6748 40.5942 15.6498Z" fill="black"/>
<path d="M47.5063 15.6498C47.5063 10.1669 51.0253 6.51172 56.4923 6.51172C61.9594 6.51172 65.3527 10.1669 65.3527 15.6498C65.3527 21.1326 61.8965 24.7878 56.4295 24.7878C51.0253 24.7878 47.5063 21.1326 47.5063 15.6498ZM59.1944 15.6498C59.1944 12.6248 58.2519 10.7341 56.3667 10.7341C54.4815 10.7341 53.6017 12.6248 53.6017 15.6498C53.6017 18.6748 54.4815 20.6285 56.3667 20.6285C58.2519 20.5654 59.1944 18.6748 59.1944 15.6498Z" fill="black"/>
<path d="M66.6099 6.9529H72.3911V9.53677H72.5168C73.6479 7.52009 75.2189 6.44873 77.7325 6.44873C79.9318 6.44873 81.5657 7.52009 82.3826 9.41072H82.5083C83.8907 7.14196 85.7131 6.44873 87.8496 6.44873C91.8713 6.44873 93.568 9.41072 93.568 13.3811V24.2207H87.5354V14.4524C87.5354 12.6878 86.9699 11.5534 85.4617 11.5534C83.9536 11.5534 83.1995 12.9399 83.1995 14.8305V24.2207H77.1669V14.4524C77.1669 12.6878 76.6014 11.5534 75.0932 11.5534C73.5851 11.5534 72.831 12.9399 72.831 14.8305V24.2207H66.6099V6.9529Z" fill="black"/>
<path d="M101.172 21.9519H101.109V24.2206H95.3275V0.0205078H101.36V8.71742H101.486C102.617 7.20491 104.188 6.38564 106.387 6.38564C110.723 6.38564 113.237 10.2929 113.237 15.5237C113.237 21.3847 110.535 24.7878 106.01 24.7878C104.125 24.7878 102.177 23.9055 101.172 21.9519ZM107.016 15.4607C107.016 12.6877 106.01 10.8601 104.188 10.8601C102.303 10.8601 101.172 12.6877 101.172 15.4607C101.172 18.2336 102.365 20.0612 104.188 20.0612C106.01 20.0612 107.016 18.2966 107.016 15.4607Z" fill="black"/>
<path d="M113.928 15.5868C113.928 10.167 117.51 6.44873 122.663 6.44873C125.239 6.44873 127.187 7.26801 128.695 8.71749C130.706 10.6711 131.586 13.6962 131.523 17.2253H119.961C120.212 19.3681 121.217 20.5024 123.04 20.5024C124.108 20.5024 125.051 19.9983 125.428 18.8639H131.272C130.266 22.8342 127.187 24.7879 122.851 24.7879C117.51 24.7249 113.928 21.0696 113.928 15.5868ZM119.961 13.7592H125.49C125.365 11.6795 124.234 10.6081 122.788 10.6081C121.092 10.5451 120.149 11.7425 119.961 13.7592Z" fill="black"/>
<path d="M138.372 9.91482H138.498C139.755 7.52002 141.389 6.57471 143.462 6.57471C143.965 6.57471 144.279 6.63773 144.468 6.76377V12.0575H144.342C140.76 11.4273 138.687 13.1289 138.687 17.0362V24.2836H132.591V6.95283H138.372V9.91482Z" fill="black"/>
<path d="M145.096 24.2837H150.94C151.192 25.04 151.946 25.7332 153.391 25.7332C155.339 25.7332 156.03 24.5358 156.03 22.7082V21.4478H155.905C154.962 22.5822 153.642 23.4014 151.757 23.4014C148.05 23.4014 144.782 20.6285 144.782 15.2087C144.782 10.23 147.421 6.38574 151.443 6.38574C153.768 6.38574 155.15 7.33106 156.093 8.78054H156.219V6.88991H162V21.8889C162 24.6619 161.057 26.8046 159.612 28.065C158.104 29.3885 155.967 29.9556 153.517 29.9556C148.867 30.0187 145.662 28.128 145.096 24.2837ZM156.282 14.9566C156.282 12.8139 155.276 11.0493 153.517 11.0493C151.82 11.0493 150.752 12.5618 150.752 14.9566C150.752 17.2884 151.82 18.9269 153.517 18.9269C155.213 18.9269 156.282 17.2254 156.282 14.9566Z" fill="black"/>
</svg>
