<svg width="32" height="32" viewBox="0 0 32 32" fill="none" xmlns="http://www.w3.org/2000/svg">
<circle cx="16.0002" cy="16" r="16" fill="#E5F1FF"/>
<path d="M8.50024 10.9999C8.50024 11.9204 9.24643 12.6666 10.1669 12.6666H10.1669H21.8336C22.7541 12.6666 23.5002 13.4128 23.5002 14.3333V20.9999C23.5002 21.9204 22.7541 22.6666 21.8336 22.6666H10.1669C9.24643 22.6666 8.50024 21.9204 8.50024 20.9999V10.9999Z" fill="#7BAEFF"/>
<path d="M10.1669 12.6667H20.1669V10.8334C20.1669 10.005 19.4954 9.33337 18.6669 9.33337H10.0002C9.17183 9.33337 8.50024 10.005 8.50024 10.8334V11C8.50024 11.9205 9.24644 12.6667 10.1669 12.6667Z" fill="#C0D8FF"/>
<path d="M23.5002 19.7501H21.339C20.2435 19.77 19.2848 19.0174 19.0438 17.9485C18.7982 16.7284 19.5882 15.5401 20.8084 15.2945C20.9538 15.2652 21.1018 15.2503 21.2502 15.2501H23.5002V19.7501Z" fill="url(#paint0_radial_1_3790)"/>
<defs>
<radialGradient id="paint0_radial_1_3790" cx="0" cy="0" r="1" gradientUnits="userSpaceOnUse" gradientTransform="translate(21.2497 17.5003) rotate(89.6287) scale(1.81519 1.80373)">
<stop stop-color="#1161F4"/>
<stop offset="1" stop-color="#277DFE"/>
</radialGradient>
</defs>
</svg>
