<svg width="168" height="60" viewBox="0 0 168 60" fill="none" xmlns="http://www.w3.org/2000/svg">
<path d="M25.732 29.6331L25.3306 29.2193C25.0226 28.909 24.5 29.1253 24.5 29.5673V35.4262C24.5 35.6989 24.724 35.9152 24.9853 35.9152H30.8C31.2293 35.9152 31.4533 35.3886 31.1453 35.0782C30.9586 34.8902 30.9586 34.5798 31.1453 34.3823L37.324 28.1378C37.5106 27.9497 37.5106 27.6394 37.324 27.4419L36.764 26.8776C36.456 26.5673 36.68 26.0406 37.1093 26.0406H42.9146C43.1853 26.0406 43.4 26.2569 43.4 26.5296V32.3886C43.4 32.8212 42.8773 33.0469 42.5693 32.7365L42.1773 32.3416C41.9813 32.1441 41.6826 32.1441 41.4866 32.3416L31.0613 42.8369C30.8746 43.0249 30.5666 43.0249 30.3706 42.8369L17.6213 29.9811C17.4346 29.793 17.4253 29.4826 17.6213 29.2851L35.2706 11.5014C35.4573 11.3133 35.4573 10.9936 35.2706 10.8055L31.1173 6.62056C30.9306 6.43247 30.6226 6.43247 30.4266 6.62056L7.58797 29.6519C7.4013 29.84 7.4013 30.1597 7.58797 30.3478L30.436 53.3698C30.6226 53.5579 30.94 53.5579 31.1266 53.3698L53.9746 30.3478C54.1613 30.1597 54.1613 29.8494 53.9746 29.6519L40.5346 16.1096C40.348 15.9215 40.04 15.9215 39.844 16.1096L26.4226 29.6331C26.236 29.8212 25.928 29.8212 25.732 29.6331ZM131.199 35.4544C130.611 35.4544 130.097 35.6707 129.677 36.0939C129.257 36.5265 129.043 37.0249 129.043 37.608C129.043 38.5014 129.491 39.1974 130.387 39.6864C131.367 39.9591 132.151 39.7804 132.739 39.1691C133.168 38.7365 133.373 38.2193 133.373 37.6174C133.373 37.0061 133.159 36.4983 132.739 36.0845C132.309 35.6707 131.805 35.4544 131.199 35.4544ZM96.4786 18.9027H94.864C94.164 18.9027 93.604 19.467 93.604 20.1723V21.0751C91.8866 19.2789 89.9546 18.3854 87.78 18.3854C85.2786 18.3854 83.188 19.3259 81.5266 21.1974C79.856 23.0688 79.0253 25.4105 79.0253 28.213C79.0253 31.072 79.856 33.4513 81.5173 35.3698C83.1973 37.2412 85.3253 38.1817 87.892 38.1817C89.9266 38.1817 91.8306 37.3447 93.5946 35.6801V37.467C93.5946 38.3322 94.2946 39.0469 95.1533 39.0469H97.9066V20.3604C97.916 19.561 97.272 18.9027 96.4786 18.9027ZM92.4093 32.6519C91.4293 33.7522 90.1413 34.3071 88.5546 34.3071C87.0613 34.3071 85.8293 33.7334 84.8493 32.5955C83.8973 31.467 83.412 29.9999 83.412 28.213C83.412 26.5391 83.9066 25.119 84.8866 23.9811C85.876 22.8525 87.1173 22.2883 88.592 22.2883C90.16 22.2883 91.4293 22.8431 92.4093 23.9622C93.3893 25.1002 93.884 26.5485 93.884 28.3071C93.8746 30.0657 93.38 31.514 92.4093 32.6519ZM79.0253 22.0626V20.2099C79.0253 19.4858 78.4466 18.9027 77.728 18.9027H76.0293C75.3106 18.9027 74.732 19.4858 74.732 20.2099V21.0187C73.1826 19.2601 71.232 18.376 68.8893 18.376C66.22 18.376 64.064 19.3917 62.44 21.4137C60.928 23.3228 60.172 25.6456 60.172 28.3729C60.172 31.1848 60.984 33.5265 62.6173 35.3886C64.232 37.2412 66.304 38.1535 68.8426 38.1535C71.064 38.1535 73.0333 37.2789 74.7413 35.5202V38.1347C74.7413 42.0187 73.1733 43.9654 70.028 43.9654C68.32 43.9654 67.0226 43.3823 66.136 42.2162C65.912 41.9246 65.716 41.5485 65.5666 41.1065C65.352 40.4858 64.7733 40.0814 64.1293 40.0814H62.5053C61.684 40.0814 61.0773 40.8713 61.2826 41.6707C61.7306 43.3729 62.5893 44.7554 63.868 45.8275C65.4733 47.1723 67.5173 47.8494 69.9906 47.8494C72.9306 47.8494 75.236 46.8713 76.916 44.9246C77.8026 43.909 78.4 42.6958 78.708 41.2851C78.8106 40.7773 78.8946 40.1754 78.9506 39.5077C79.0066 38.84 79.0346 38.0594 79.0346 37.1754V34.4575C77.8306 32.7083 77.224 30.63 77.224 28.1942C77.2146 25.8243 77.8213 23.7836 79.0253 22.0626ZM73.584 32.5014C72.632 33.7052 71.3346 34.3071 69.692 34.3071C68.0493 34.3071 66.7613 33.7146 65.8373 32.5202C64.988 31.4293 64.5586 30.0375 64.5586 28.3259C64.5586 26.5955 64.988 25.1848 65.8373 24.0939C66.78 22.8807 68.068 22.2695 69.692 22.2695C71.2226 22.2695 72.4733 22.8243 73.4533 23.9434C74.424 25.0344 74.9093 26.492 74.9093 28.3071C74.9 30.0093 74.4613 31.4105 73.584 32.5014ZM114.725 18.9215V18.9027H105.821V13.4105C105.821 12.7052 105.252 12.1315 104.552 12.1315H102.816C102.107 12.1315 101.528 12.7146 101.528 13.4293V18.9027H99.6986V22.9372H101.528V39.0281H103.973C104.991 39.0281 105.812 38.2005 105.821 37.1754V37.166V22.9466H110.227C110.572 22.2789 111.001 21.6582 111.496 21.0939C112.401 20.0876 113.484 19.3635 114.725 18.9215ZM136.64 12.1315C135.875 12.1315 135.221 12.4043 134.68 12.9591C134.139 13.514 133.859 14.1629 133.859 14.9246C133.859 15.724 134.129 16.3917 134.68 16.9466C135.231 17.5014 135.893 17.7742 136.668 17.7742C137.443 17.7742 138.096 17.5014 138.628 16.9466C139.179 16.3917 139.449 15.7334 139.449 14.9434C139.449 14.1629 139.179 13.5046 138.628 12.9685C138.077 12.4043 137.415 12.1315 136.64 12.1315ZM137.508 21.0281H135.949C135.147 21.0281 134.503 21.677 134.503 22.4858V36.2256C134.829 36.6112 134.988 37.072 134.988 37.5986C134.988 38.1253 134.829 38.5955 134.503 38.9811V39.7522H137.265C138.115 39.7522 138.796 39.0563 138.796 38.2099V22.3165C138.796 21.6017 138.217 21.0281 137.508 21.0281ZM157.696 23.6801C155.764 21.771 153.403 20.8118 150.631 20.8118C147.868 20.8118 145.525 21.7616 143.603 23.6613C141.68 25.561 140.719 27.8557 140.719 30.5641C140.719 33.4325 141.661 35.8212 143.547 37.7209C145.432 39.6394 147.765 40.608 150.547 40.608C153.356 40.608 155.736 39.6676 157.668 37.7773C159.581 35.8776 160.552 33.5265 160.552 30.7146C160.552 27.9309 159.6 25.5892 157.696 23.6801ZM154.653 35.1065C153.655 36.1974 152.311 36.7334 150.631 36.7334C148.96 36.7334 147.616 36.188 146.599 35.0782C145.609 33.9873 145.105 32.5014 145.105 30.6394C145.105 28.8996 145.619 27.4701 146.636 26.3698C147.653 25.2695 148.979 24.7146 150.621 24.7146C152.283 24.7146 153.627 25.2695 154.644 26.3698C155.652 27.4607 156.156 28.9184 156.156 30.7334C156.165 32.5579 155.661 34.0061 154.653 35.1065Z" fill="#DE5959"/>
<path d="M116.321 34.3447C115.435 33.4419 114.94 32.2099 114.828 30.677H127.139C127.699 30.677 128.165 30.2256 128.175 29.6614C128.175 26.5673 127.381 24.1504 125.813 22.4106C124.217 20.652 122.052 19.7773 119.317 19.7773C116.611 19.7773 114.436 20.6802 112.793 22.4858C111.16 24.3197 110.348 26.7178 110.348 29.6802C110.348 32.6708 111.188 35.0689 112.868 36.8745C114.044 38.1347 115.481 38.9435 117.18 39.3197C117.899 39.4889 118.636 39.5736 119.383 39.5642C122.444 39.63 125.104 39.6958 128.156 39.7523V39.3009C127.783 38.8871 127.596 38.398 127.596 37.8244C127.596 37.2601 127.792 36.7805 128.175 36.3667V35.8212C125.757 35.7648 119.915 35.699 119.681 35.699C118.328 35.699 117.199 35.2476 116.321 34.3447ZM115.724 25.6927C115.995 25.2695 116.312 24.9121 116.685 24.6112C117.059 24.3103 117.479 24.0752 117.936 23.9153C118.393 23.7554 118.888 23.6708 119.411 23.6708C121.697 23.6708 123.144 24.8275 123.741 27.1316H115.108C115.257 26.5955 115.463 26.1159 115.724 25.6927Z" fill="#DE5959"/>
</svg>
