<svg width="132" height="37" viewBox="0 0 132 37" fill="none" xmlns="http://www.w3.org/2000/svg">
<g clip-path="url(#clip0_1_1688)">
<path d="M97.3367 27.9023C92.8291 27.9023 90.0282 25.3355 90.0282 21.198C90.0282 16.9039 92.6128 14.2324 96.7747 14.2324H97.1238C97.6459 14.2324 98.3646 14.2491 99.3465 14.3697V9.18652H102.286V27.4352C102.286 27.4352 99.493 27.9023 97.3367 27.9023ZM97.3103 16.5079C94.4625 16.5079 93.0778 18.0191 93.0778 21.126C93.0778 23.9155 94.7487 25.6494 97.433 25.6494C97.949 25.6494 98.5401 25.6159 99.3457 25.5481V16.6938C98.5409 16.5665 97.892 16.5079 97.3103 16.5079ZM57.0682 27.4837L49.1269 13.8598L49.1244 27.4837H46.3566V10.2364H50.2315L58.1727 23.7389L58.1693 10.2364H60.9737V27.4837H57.0682ZM82.3637 27.7491C81.0266 27.7491 79.6325 27.6018 77.9727 27.2878L77.7931 27.2543V24.8448L78.0554 24.9001C79.5193 25.2074 80.7831 25.4694 82.0477 25.4694C83.0688 25.4694 85.4474 25.312 85.4474 23.8343C85.4474 22.5953 83.8037 22.2838 82.4837 22.0352L82.4003 22.0184C82.1533 21.9732 81.9208 21.9272 81.725 21.8786C79.7884 21.3847 77.7224 20.6421 77.7224 18.0911C77.7224 15.6029 79.7254 14.1771 83.2187 14.1771C84.8955 14.1771 86.1125 14.3529 87.091 14.4969L87.5662 14.5656V16.9039L87.3132 16.8587C86.2061 16.6586 84.9083 16.4527 83.6607 16.4527C82.2734 16.4527 80.6272 16.708 80.6272 17.9211C80.6272 18.9283 81.9745 19.2163 83.5346 19.5503C85.7165 20.0142 88.4212 20.5968 88.4212 23.5237C88.4212 26.2087 86.2155 27.7491 82.3637 27.7491ZM110.539 27.7491C107.496 27.7491 104.678 27.2217 104.678 23.4023C104.678 19.2456 109.036 19.2456 111.641 19.2456C111.9 19.2456 113.125 19.3017 113.5 19.3176C113.497 16.986 113.467 16.4301 110.027 16.4301C108.664 16.4301 107.15 16.6946 105.813 16.9307L105.557 16.9759V14.6736L105.729 14.6376C107.279 14.3278 108.774 14.1771 110.297 14.1771C113.631 14.1771 116.455 14.507 116.455 18.5725V27.4385L116.252 27.4611C113.943 27.7156 112.11 27.7491 110.54 27.7491H110.539ZM111.568 21.3026C109.056 21.3026 107.499 21.666 107.499 23.4743C107.499 25.5674 109.485 25.7407 111.348 25.7407C112.043 25.7407 113.294 25.6528 113.677 25.626V21.3746C113.138 21.352 111.737 21.3026 111.568 21.3026ZM69.2897 27.7491C66.2426 27.7491 63.4255 27.2217 63.4255 23.4023C63.4255 19.2456 67.7832 19.2456 70.3874 19.2456C70.6472 19.2456 71.8743 19.3017 72.2508 19.3176C72.2474 16.986 72.2141 16.4301 68.7745 16.4301C67.4102 16.4301 65.896 16.6946 64.559 16.9307L64.3035 16.9759V14.6736L64.4798 14.6376C65.9815 14.3323 67.5109 14.178 69.0444 14.1771C72.3768 14.1771 75.2016 14.507 75.2016 18.5725V27.4385L74.9981 27.4611C72.6902 27.7156 70.8567 27.7491 69.2897 27.7491ZM70.3142 21.3026C67.8028 21.3026 66.2494 21.666 66.2494 23.4743C66.2494 25.5674 68.232 25.7407 70.0953 25.7407C70.7937 25.7407 72.0447 25.6528 72.427 25.626V21.3746C71.8846 21.352 70.4845 21.3026 70.315 21.3026" fill="#231F20"/>
<path d="M128.161 33.3441V27.6862C127.014 27.8436 126.405 27.8436 125.913 27.8436C124.748 27.8436 123.454 27.595 122.453 27.1797C120.21 26.263 118.873 23.9355 118.873 20.9492C118.873 19.459 119.243 16.7339 121.714 15.2654C122.955 14.537 124.419 14.2256 126.621 14.2256C127.409 14.2256 128.473 14.2842 129.501 14.3428L131.171 14.4282V32.033L128.161 33.3441ZM126.402 16.502C123.414 16.5011 121.9 17.9997 121.9 20.9492C121.9 24.7468 124.158 25.5447 126.057 25.5447C126.52 25.5447 127.039 25.5447 128.19 25.4007V16.584C127.289 16.5254 126.872 16.502 126.401 16.502H126.402Z" fill="#231F20"/>
<path d="M33.2232 0.0131836L23.4995 26.2764C23.3792 26.5998 23.1688 26.8834 22.8923 27.0947C22.6158 27.3059 22.2843 27.4364 21.9359 27.4711V27.4837H32.2149C33.0196 27.4837 33.7086 26.9805 33.9649 26.2773L43.692 0.0131836H33.2232Z" fill="#0996C7"/>
<path d="M21.097 27.0851C21.6931 27.0851 22.2152 26.7937 22.5345 26.3525C22.5678 26.3065 22.6844 26.1457 22.767 25.9272L26.3336 16.2893L24.2471 10.6607C24.1256 10.3757 23.9288 10.1278 23.677 9.94274C23.4252 9.75767 23.1277 9.64216 22.8152 9.60817C22.5028 9.57418 22.1867 9.62295 21.8999 9.74943C21.6131 9.87591 21.3659 10.0755 21.1839 10.3275C21.1498 10.3736 21.011 10.5787 20.9514 10.7528L17.3848 20.3874L19.4807 26.0386C19.6166 26.3492 19.8421 26.6138 20.1294 26.7998C20.4167 26.9858 20.7531 27.085 21.097 27.0851Z" fill="#0996C7"/>
<path d="M21.8592 9.1958H11.4669C10.6622 9.1958 9.9732 9.69645 9.71346 10.4031L-0.0102539 36.6663H10.4586L20.1832 10.4039C20.3094 10.0622 20.5361 9.76519 20.8346 9.55064C21.133 9.33609 21.4897 9.21373 21.8592 9.19915V9.1958Z" fill="#0996C7"/>
</g>
<defs>
<clipPath id="clip0_1_1688">
<rect width="132" height="36.8372" fill="white"/>
</clipPath>
</defs>
</svg>
