<svg width="327" height="41" viewBox="0 0 327 41" fill="none" xmlns="http://www.w3.org/2000/svg">
<g clip-path="url(#clip0_1_7897)">
<path d="M63.5855 28.0728L49.6107 3.75777C46.547 -1.31009 39.0759 -1.364 36.1196 3.97341L21.4463 29.2589C18.705 33.8954 22.0911 39.7179 27.5736 39.7179H56.9742C62.5105 39.7179 66.6492 33.7335 63.5855 28.0728Z" fill="#00B897"/>
<path d="M43.4295 29.9596L42.5696 28.45C41.7633 27.0482 39.9896 24.029 39.9896 24.029L28.1648 3.43418C25.1011 -1.14846 17.8451 -1.52585 14.7814 4.24288L1.02163 28.1265C-1.82706 33.1404 1.55912 39.6639 7.74026 39.7179H36.9796H49.4494H56.8669C49.2882 39.7718 46.8696 35.836 43.4295 29.9596Z" fill="#76FCB2"/>
<path d="M43.4297 29.9595L42.5698 28.4501C41.7636 27.0483 39.9898 24.0291 39.9898 24.0291L32.3574 10.5508L21.3926 29.3127C18.6515 33.9492 22.0377 39.7718 27.5202 39.7718H36.9261H49.3959H56.8671C49.2347 39.7179 46.8696 35.8362 43.4297 29.9595Z" fill="url(#paint0_linear_1_7897)"/>
<path d="M322.743 37.8324C320.754 37.8324 319.195 37.4011 318.013 36.6463C316.775 35.8376 316.131 34.6514 316.131 33.034V9.52783H319.249C320.378 9.52783 321.346 10.4444 321.346 11.6304V32.3331C321.346 32.3872 321.346 33.3575 322.152 34.1662C322.634 34.6514 323.226 34.921 324.032 34.921H324.624C324.84 34.921 325.054 35.1367 325.054 35.3523V37.8863L322.743 37.8324Z" fill="#00B897"/>
<path d="M255.557 37.83C252.332 37.83 249.698 36.9674 247.709 35.2421C246.689 34.3795 245.99 33.409 245.56 32.3307C245.13 31.2526 244.914 29.6889 244.914 27.5864C244.914 25.5378 245.13 23.9202 245.56 22.8419C245.936 21.8177 246.634 20.9011 247.656 20.0385C249.644 18.3133 252.277 17.4507 255.502 17.4507C258.728 17.4507 261.361 18.3133 263.35 20.0385C264.372 20.9011 265.071 21.8716 265.447 22.8419C265.877 23.9741 266.091 25.5378 266.091 27.5864C266.091 29.6889 265.877 31.2526 265.447 32.3307C265.016 33.409 264.318 34.3795 263.296 35.2421C261.416 36.9674 258.782 37.83 255.557 37.83ZM255.557 20.4159C252.008 20.4159 250.235 22.8419 250.235 27.6403C250.235 32.4926 252.008 34.9186 255.557 34.9186C259.103 34.9186 260.878 32.4926 260.878 27.6942C260.878 22.8419 259.051 20.4159 255.557 20.4159Z" fill="#00B897"/>
<path d="M277.808 37.8324C275.013 37.8324 272.434 37.0776 270.231 35.6219C270.015 35.4062 269.585 35.1367 269.047 34.8132C268.94 34.7593 268.833 34.5975 268.833 34.4358V9.52783H272.004C273.133 9.52783 274.1 10.4983 274.1 11.6304V18.9087L275.068 18.3696C276.197 17.7766 277.701 17.507 279.636 17.507C283.023 17.507 285.602 18.5314 287.323 20.5261C288.827 22.3053 289.58 24.6774 289.58 27.5888C289.58 30.5002 288.72 32.8724 286.999 34.5975C285.01 36.7541 281.894 37.8324 277.808 37.8324ZM278.346 20.4183C277.164 20.4183 275.819 20.8496 274.315 21.7662L274.1 21.874V33.5733L274.315 33.7349C275.498 34.4897 276.896 34.8671 278.346 34.8671C280.28 34.8671 281.787 34.0584 282.807 32.4411C283.667 31.147 284.152 29.4758 284.152 27.5888C284.152 22.8443 282.163 20.4183 278.346 20.4183Z" fill="#00B897"/>
<path d="M301.996 37.7761C296.083 37.7761 292.375 33.8944 292.375 27.5864C292.375 21.3325 296.028 17.4507 301.887 17.4507C304.145 17.4507 306.08 18.0437 307.639 19.1759L307.962 19.3916V17.8281H312.1C312.369 17.8281 312.53 18.0437 312.53 18.2594V37.3987H307.907V35.6734L307.584 35.943C306.296 37.1291 304.252 37.7761 301.996 37.7761ZM303.071 20.9011C299.361 20.9011 297.157 23.7586 297.157 27.5864C297.157 31.4142 299.361 34.3795 303.071 34.3795C304.252 34.3795 306.296 34.2718 307.907 32.6542L307.962 32.6003V22.788L307.907 22.7342C306.778 21.4403 305.112 20.9011 303.071 20.9011Z" fill="#00B897"/>
<path d="M111.025 37.5605V9.47168H134.298V11.2508C134.298 12.6526 133.169 13.7847 131.772 13.7847H116.829V21.3326H131.772V25.6458H116.829V33.1935H131.772C133.169 33.1935 134.298 34.3256 134.298 35.7275V37.5067L111.025 37.5605Z" fill="#030319" fill-opacity="0.6"/>
<path d="M167.73 9.47168H162.247C161.226 9.47168 160.312 9.90298 159.667 10.7117L153.056 19.0683L146.445 10.7656C145.8 9.95691 144.886 9.52559 143.865 9.52559H138.383L149.509 23.543L138.383 37.5605H143.865C144.886 37.5605 145.8 37.1293 146.445 36.3206L153.056 28.0179L159.721 36.3745C160.366 37.1293 161.28 37.6144 162.301 37.6144H167.783L156.657 23.5969L167.73 9.47168Z" fill="#030319" fill-opacity="0.6"/>
<path d="M92.8042 34.5979L100.437 21.2274V37.5093H106.242V9.42041H102.64C101.512 9.42041 100.437 10.0134 99.8991 11.0378L90.7618 27.7509L81.6245 11.0378C81.0869 10.0134 80.0119 9.42041 78.8831 9.42041H75.2821V37.5093H81.0869V21.2274L88.7192 34.5979H92.8042Z" fill="#030319" fill-opacity="0.6"/>
<path d="M182.887 37.8845C174.824 37.9923 168.267 31.6305 168.213 23.5435C168.213 19.1226 169.557 15.4565 172.083 12.9226C174.61 10.4426 178.264 9.09473 182.618 9.09473C187.724 9.09473 191.755 10.8739 194.658 14.3243L192.83 15.8878C191.702 16.8583 190.035 16.9122 188.799 15.9957C187.187 14.7556 185.144 14.1626 182.833 14.1626C177.136 14.1626 173.749 17.613 173.749 23.4357C173.749 29.3122 177.243 32.9245 182.833 32.9245C185.198 32.9245 187.187 32.2775 188.799 31.0914C189.982 30.1748 191.648 30.2289 192.83 31.1992L194.658 32.7627C191.755 36.1592 187.886 37.8845 182.887 37.8845Z" fill="#030319" fill-opacity="0.6"/>
<path d="M218.632 37.8845C209.603 37.8845 204.012 32.3854 204.012 23.5435C204.012 14.7018 209.603 9.20264 218.525 9.20264C222.825 9.20264 226.426 10.4426 229.221 12.9766L227.878 14.4862C227.286 15.1331 226.426 15.5105 225.565 15.5105C225.083 15.5105 224.598 15.4027 224.168 15.187C222.502 14.3244 220.567 13.8931 218.525 13.8931C212.719 13.8931 209.118 17.6131 209.118 23.5976C209.118 29.6357 212.88 33.3558 218.901 33.3558C221.803 33.3558 224.061 32.8167 225.727 31.6307L225.834 31.5768V25.8079H219.438V23.9209C219.438 22.5193 220.567 21.3871 221.964 21.3871H229.865C230.081 21.3871 230.295 21.6026 230.295 21.8184V34.2724C227.554 36.6446 223.63 37.8845 218.632 37.8845Z" fill="#00B897"/>
<path d="M240.668 37.8324C238.679 37.8324 237.12 37.4011 235.939 36.6463C234.703 35.8376 234.056 34.6514 234.056 33.034V9.52783H237.174C238.303 9.52783 239.271 10.4444 239.271 11.6304V32.3331C239.271 32.3872 239.271 33.3575 240.077 34.1662C240.561 34.6514 241.151 34.921 241.957 34.921H242.549C242.765 34.921 242.979 35.1367 242.979 35.3523V37.8863L240.668 37.8324Z" fill="#00B897"/>
</g>
<defs>
<linearGradient id="paint0_linear_1_7897" x1="17.4903" y1="20.788" x2="51.4836" y2="33.3112" gradientUnits="userSpaceOnUse">
<stop stop-color="#53E57A" stop-opacity="0"/>
<stop offset="1" stop-color="#00A977"/>
</linearGradient>
<clipPath id="clip0_1_7897">
<rect width="327" height="41" fill="white"/>
</clipPath>
</defs>
</svg>
