<svg width="287" height="47" viewBox="0 0 287 47" fill="none" xmlns="http://www.w3.org/2000/svg">
<g clip-path="url(#clip0_1_7951)">
<path d="M66.8521 23.1615C66.8521 28.8814 71.0804 32.6978 76.2064 32.6978C78.988 32.7038 81.7163 31.9275 84.0861 30.4559V36.0113C83.0209 36.6787 79.8206 37.8913 76.2483 37.8913C67.9127 37.8772 61.3122 31.4899 61.3122 23.1615C61.3122 14.8331 67.9127 8.45988 76.2483 8.45988C79.8206 8.45988 83.0209 9.66308 84.0861 10.3399V15.8624C81.7144 14.3963 78.9867 13.6235 76.2064 13.6299C71.0804 13.6299 66.8521 17.4416 66.8521 23.1615ZM108.614 23.4999V37.4636H103.497V25.1496C103.497 22.7056 102.427 20.882 99.6781 20.882C97.0127 20.882 95.4545 22.5787 95.4545 25.6478V37.4636H90.3378V7.20028H95.4545V20.177C95.8219 19.237 97.2593 16.3183 101.567 16.3183C105.99 16.3183 108.614 18.9738 108.614 23.4999ZM136.435 33.1114V37.4636H129.829C129.722 37.4701 129.614 37.454 129.513 37.4163C129.412 37.3786 129.32 37.3202 129.243 37.2446C129.165 37.169 129.104 37.078 129.064 36.9774C129.023 36.8767 129.003 36.7686 129.006 36.6599V32.9469C128.308 35.3909 126.424 37.8772 122.494 37.8772C117.159 37.8772 113.302 33.8587 113.302 27.1001C113.302 20.2569 117.526 16.3183 122.778 16.3183C127.62 16.3183 128.606 20.3415 128.606 20.3415V16.7366H133.723V33.1114H136.435ZM128.759 27.1424C128.759 23.2461 126.899 20.7974 123.838 20.7974C120.884 20.7974 118.628 22.997 118.628 27.1001C118.628 31.2032 120.489 33.4028 123.592 33.4028C126.75 33.4028 128.759 31.3301 128.759 27.1424ZM148.18 17.5638V37.4636H143.063V21.0888H139.342V16.7366H147.38C147.487 16.7332 147.594 16.7524 147.694 16.793C147.794 16.8336 147.884 16.8947 147.96 16.9725C148.035 17.0503 148.093 17.143 148.131 17.2448C148.169 17.3466 148.186 17.4552 148.18 17.5638ZM148.017 12.422H142.477V7.20028H148.017V12.422ZM154.157 16.7366H159.204V20.4261C159.371 19.8856 160.599 16.3183 165.4 16.3183C169.833 16.3183 172.461 18.9738 172.461 23.4905V37.4636H167.344V25.1496C167.344 22.7056 166.279 20.882 163.53 20.882C160.86 20.882 159.302 22.5787 159.302 25.6478V37.4636H154.185L154.157 16.7366ZM200.277 33.1114V37.4636H193.672C193.564 37.4701 193.457 37.454 193.356 37.4163C193.255 37.3786 193.163 37.3202 193.085 37.2446C193.008 37.169 192.947 37.078 192.906 36.9774C192.865 36.8767 192.846 36.7686 192.848 36.6599V32.9469C192.151 35.3909 190.267 37.8772 186.336 37.8772C181.001 37.8772 177.145 33.8587 177.145 27.1001C177.145 20.2569 181.368 16.3183 186.625 16.3183C191.467 16.3183 192.448 20.3415 192.448 20.3415V16.7366H197.565V33.1114H200.277ZM192.602 27.1424C192.602 23.2461 190.741 20.7974 187.681 20.7974C184.727 20.7974 182.471 22.997 182.471 27.1001C182.471 31.2032 184.355 33.4028 187.457 33.4028C190.592 33.4028 192.602 31.3301 192.602 27.1424ZM210.743 8.45988V37.4636H205.598V11.5525H202.398V7.20028H209.496C209.661 7.19839 209.823 7.22968 209.976 7.29231C210.128 7.35494 210.266 7.44765 210.382 7.56499C210.498 7.68234 210.59 7.82195 210.652 7.97562C210.714 8.1293 210.745 8.29394 210.743 8.45988ZM219.958 46.9999H214.841V42.6477H218.623C219.976 42.6477 220.595 42.2341 221.083 40.9886L222.604 37.0923L214.706 16.7366H220.409L225.209 31.3677L230.177 16.7366H235.88L225.786 42.9767C224.721 45.7544 222.953 46.9999 219.958 46.9999ZM238.722 36.1382V31.1233C239.42 31.5933 242.248 33.4733 245.411 33.4733C247.83 33.4733 248.895 32.7683 248.895 31.4006C248.895 27.2975 238.434 30.3243 238.434 22.5317C238.434 19.0067 241.387 16.3089 246.806 16.3089C249.797 16.3089 251.923 17.0985 252.756 17.5967V22.5599C251.728 21.8925 249.676 20.5671 246.885 20.5671C244.467 20.5671 243.564 21.3144 243.564 22.4753C243.564 25.8311 253.984 23.5093 253.984 31.1421C253.984 35.2875 250.579 37.896 245.611 37.896C242.345 37.8772 239.666 36.7586 238.722 36.1382ZM266.254 17.5638V37.4636H261.138V21.0888H257.416V16.7366H265.459C265.566 16.7331 265.673 16.7523 265.773 16.793C265.872 16.8336 265.963 16.8948 266.037 16.9727C266.112 17.0506 266.17 17.1433 266.208 17.2451C266.245 17.3469 266.261 17.4554 266.254 17.5638ZM266.092 12.422H260.552V7.20028H266.092V12.422ZM271.739 36.1382V31.1233C272.432 31.5933 275.264 33.4733 278.423 33.4733C280.846 33.4733 281.911 32.7683 281.911 31.4006C281.911 27.2975 271.45 30.3243 271.45 22.5317C271.45 19.0067 274.404 16.3089 279.823 16.3089C282.818 16.3089 284.94 17.0985 285.772 17.5967V22.5599C284.056 21.3225 282.014 20.6288 279.907 20.5671C277.483 20.5671 276.581 21.3144 276.581 22.4753C276.581 25.8311 287.005 23.5093 287.005 31.1421C287.005 35.2875 283.6 37.896 278.632 37.896C275.371 37.8772 272.678 36.7586 271.739 36.1382Z" fill="#FF5300"/>
<path d="M23.2571 0C23.7781 0 24.3688 0.0658 24.3688 0.0658C22.6209 2.18403 21.5677 4.79871 21.3547 7.5482C18.0613 8.10488 15.0293 9.70778 12.6989 12.1241C10.3685 14.5405 8.86105 17.6445 8.39546 20.9855C5.38591 21.3145 1.98099 22.7057 0.0226889 24.6938C-0.442465 11.0544 9.90256 0 23.2571 0ZM26.6062 40.9746C25.9902 41.0666 25.3683 41.1121 24.7456 41.1109C23.6709 41.0979 22.5984 41.0084 21.5361 40.843C20.7061 42.8621 19.6109 44.7592 18.28 46.483C14.1053 45.5527 10.2651 43.4779 7.18128 40.4863C4.09747 37.4947 1.88935 33.7022 0.799496 29.5254C2.89734 27.0109 7.74425 25.5539 10.7538 25.5539C17.1729 25.5539 20.5778 28.9943 21.7593 34.357C17.8939 33.2995 15.6007 31.114 14.0936 27.871C13.2128 27.5479 12.2815 27.3887 11.3445 27.401C10.4991 27.3975 9.6587 27.5324 8.85596 27.8005C10.5584 34.357 16.8473 39.2544 24.5084 39.2544C31.5834 39.2544 34.5929 35.6166 34.5929 35.6166V30.0518C34.5929 30.0518 31.1229 33.6943 26.8016 34.4228C26.3155 31.0233 24.7501 27.8752 22.3409 25.4519C19.9318 23.0286 16.809 21.4612 13.4424 20.9855C14.5541 15.4254 18.7451 12.314 24.4433 12.314C30.1414 12.314 34.7278 16.4829 34.7278 16.4829V10.9886C34.7278 10.9886 31.7788 8.2062 26.5411 7.614C26.6714 5.17 28.2436 2.1197 29.946 0.9917C37.0815 3.243 43.9611 9.3342 45.9241 18.2031C45.9241 18.2031 42.7796 21.3803 36.8861 21.3803C32.0392 21.3803 28.9785 18.9316 27.2575 14.6311C26.3546 14.3062 25.4016 14.147 24.4433 14.1611C23.549 14.1512 22.6607 14.3106 21.8245 14.6311C23.7223 21.5166 29.7321 26.1461 36.4303 26.1461C42.9797 26.1461 46.5148 23.1052 46.5148 23.1052C46.5148 36.8715 36.1 46.7368 23.7223 47C25.1643 45.59 26.276 42.4974 26.6062 40.9746Z" fill="#FF5300"/>
</g>
<defs>
<clipPath id="clip0_1_7951">
<rect width="287" height="47" fill="white"/>
</clipPath>
</defs>
</svg>
