<svg width="260" height="56" viewBox="0 0 260 56" fill="none" xmlns="http://www.w3.org/2000/svg">
<path d="M66.9458 23.084L51.8514 2.42131C50.7263 0.880478 48.9898 0 47.0821 0C45.1744 0 43.4379 0.884555 42.3129 2.42131L40.6701 4.66735L39.0274 2.42131C37.9023 0.880478 36.1658 0 34.2581 0C32.3504 0 30.6139 0.884555 29.4889 2.42131L27.8665 4.64289L26.2441 2.42131C25.1191 0.880478 23.3826 0 21.4749 0C19.5672 0 17.8307 0.884555 16.7056 2.42131L1.61115 23.084C-0.537051 26.023 -0.537051 29.977 1.61115 32.916L16.7056 53.5787C17.8307 55.1195 19.5672 56 21.4749 56C23.3826 56 25.1191 55.1154 26.2441 53.5787L34.2785 42.5809L35.9375 44.8514C35.9416 44.8595 35.9498 44.8677 35.9539 44.8758L42.3129 53.5787C43.4379 55.1195 45.1744 56 47.0821 56C48.9898 56 50.7263 55.1154 51.8514 53.5787L66.9458 32.916C69.094 29.977 69.094 26.023 66.9458 23.084ZM31.902 4.18227C32.4605 3.42001 33.3206 2.98384 34.2622 2.98384C35.2038 2.98384 36.068 3.42001 36.6224 4.18227L38.8276 7.19872L34.2826 13.4191L29.7171 7.17018L31.902 4.18227ZM23.8391 51.8177C23.2807 52.58 22.4206 53.0162 21.479 53.0162C20.5373 53.0162 19.6732 52.58 19.1188 51.8177L4.02432 31.155C2.64653 29.2677 2.64653 26.7323 4.02432 24.8409L19.1188 4.17819C19.6773 3.41593 20.5373 2.97976 21.479 2.97976C22.4206 2.97976 23.2848 3.41593 23.8391 4.17819L26.024 7.16612L14.3985 23.0799C12.2503 26.0189 12.2503 29.9729 14.4025 32.916L15.2871 34.1144L23.0809 44.8473C24.0715 46.2047 25.543 47.0526 27.1858 47.2319L23.8391 51.8177ZM30.2144 43.0945C29.656 43.8527 28.7959 44.2929 27.8502 44.2929C26.9086 44.2929 26.0444 43.8568 25.4941 43.0986L17.4801 32.0641L17.4761 32.0681L16.8075 31.1591C15.4298 29.2718 15.4298 26.7364 16.8075 24.845L27.8706 9.70155L32.436 15.9505L27.2225 23.0881C25.0743 26.0271 25.0743 29.9811 27.2225 32.9201L32.436 40.0576L30.2144 43.0945ZM34.2826 18.4737L38.9336 24.8409C40.3114 26.7282 40.3114 29.2636 38.9336 31.155L34.2826 37.5222L29.6315 31.155C28.2538 29.2677 28.2538 26.7323 29.6315 24.8409L34.2826 18.4737ZM41.3427 32.916C43.4909 29.977 43.4909 26.023 41.3427 23.084L36.1291 15.9464L40.6742 9.72602L51.7169 24.845C53.0946 26.7323 53.0946 29.2677 51.7087 31.1673L49.9396 33.6253L43.0629 43.0945C42.5044 43.8567 41.6443 44.2929 40.7027 44.2929C39.7693 44.2929 38.9173 43.8649 38.3629 43.1189L36.1251 40.0576L41.3427 32.916ZM64.5408 31.155L49.4464 51.8177C48.8879 52.58 48.0278 53.0162 47.0862 53.0162C46.1446 53.0162 45.2804 52.58 44.726 51.8177L41.3794 47.236C43.0181 47.0566 44.4896 46.2088 45.4842 44.8473L51.3907 36.711L51.3989 36.7151L52.3691 35.3699L53.4982 33.8128L53.49 33.8087L54.13 32.916C56.2782 29.977 56.2782 26.023 54.13 23.084L42.5248 7.19872L44.7301 4.18227C45.2885 3.42001 46.1486 2.98384 47.0903 2.98384C48.0319 2.98384 48.892 3.42001 49.4504 4.18227L64.5449 24.845C65.9186 26.7323 65.9186 29.2677 64.5408 31.155Z" fill="url(#paint0_linear_1_7923)"/>
<path opacity="0.4" d="M27.8485 47.2731C27.6202 47.2731 27.392 47.2608 27.1719 47.2364L23.9312 51.704L26.377 53.4283L32.3039 45.292C31.1789 46.5556 29.5646 47.2731 27.8485 47.2731Z" fill="url(#paint1_linear_1_7923)"/>
<path opacity="0.4" d="M40.6931 47.2722C40.9214 47.2722 41.1496 47.26 41.3698 47.2355L44.6104 51.7031L42.1646 53.4274L36.2703 45.2993C37.3913 46.563 38.977 47.2722 40.6931 47.2722Z" fill="url(#paint2_linear_1_7923)"/>
<path opacity="0.4" d="M32.4121 40.0342L34.2954 42.6063L31.4298 46.4543L29.5465 43.9556L32.4121 40.0342Z" fill="url(#paint3_linear_1_7923)"/>
<path opacity="0.6" d="M26.0244 7.16992L27.875 9.7176L21.1655 18.9341L18.8216 17.0794L26.0244 7.16992Z" fill="url(#paint4_linear_1_7923)"/>
<path opacity="0.6" d="M32.4375 15.9429L34.2719 18.4905L29.9958 24.4052L27.6479 22.5505L32.4375 15.9429Z" fill="url(#paint5_linear_1_7923)"/>
<path opacity="0.6" d="M38.8284 7.19434L40.6709 9.72979L36.134 15.938L34.2833 13.4066L38.8284 7.19434Z" fill="url(#paint6_linear_1_7923)"/>
<path d="M111.585 19.2305V35.9088H108.153V25.2852L101.322 35.9088H97.486L90.6546 25.3248V35.9088H87.2231V19.2305H90.6546L99.392 32.9329L108.157 19.2305H111.585Z" fill="black"/>
<path d="M161.195 19.2305V35.9088H157.764V28.9783H145.515V35.9088H142.084V19.2305H145.515V26.1173H157.764V19.2305H161.195Z" fill="black"/>
<path d="M211.003 27.5161C211.003 31.9343 208.399 35.9088 201.227 35.9088H191.685V19.2305H201.227C208.736 19.2305 211.003 23.0979 211.003 27.5161ZM207.508 27.5161C207.508 24.6908 206.077 22.1707 201.148 22.1707H195.117V32.9686H201.144C206.077 32.9686 207.508 30.3414 207.508 27.5161Z" fill="black"/>
<path d="M238.565 27.5661C238.565 22.1454 242.444 18.8882 249.113 18.8882C255.782 18.8882 259.662 22.1454 259.662 27.5661C259.662 32.9869 255.782 36.2441 249.113 36.2441C242.444 36.2441 238.565 32.9908 238.565 27.5661ZM256.068 27.5661C256.068 23.7066 253.211 21.8522 249.113 21.8522C245.02 21.8522 242.08 23.7066 242.08 27.5661C242.08 31.4296 245.02 33.2682 249.113 33.2682C253.207 33.2682 256.068 31.4336 256.068 27.5661Z" fill="black"/>
<path d="M129.154 20.2277C128.782 19.3124 127.871 18.6665 126.809 18.6665C125.747 18.6665 124.839 19.3084 124.463 20.2198L117.1 35.9074H120.805L122.454 32.2738H131.171L132.828 35.9074H136.568L129.154 20.2277ZM123.753 29.4089L126.805 22.6845L129.868 29.4089H123.753Z" fill="black"/>
<path d="M178.629 20.2277C178.256 19.3124 177.345 18.6665 176.283 18.6665C175.221 18.6665 174.313 19.3084 173.937 20.2198L166.575 35.9074H170.28L171.928 32.2738H180.646L182.302 35.9074H186.043L178.629 20.2277ZM173.228 29.4089L176.279 22.6845L179.342 29.4089H173.228Z" fill="black"/>
<path d="M227.516 20.2277C227.144 19.3124 226.232 18.6665 225.17 18.6665C224.108 18.6665 223.201 19.3084 222.824 20.2198L215.462 35.9074H219.167L220.815 32.2738H229.533L231.189 35.9074H234.93L227.516 20.2277ZM222.115 29.4089L225.166 22.6845L228.229 29.4089H222.115Z" fill="black"/>
<defs>
<linearGradient id="paint0_linear_1_7923" x1="12.6547" y1="49.6263" x2="55.9074" y2="6.37364" gradientUnits="userSpaceOnUse">
<stop stop-color="#FF8506"/>
<stop offset="0.5805" stop-color="#FD3947"/>
<stop offset="1" stop-color="#FB0078"/>
</linearGradient>
<linearGradient id="paint1_linear_1_7923" x1="30.4229" y1="45.2302" x2="25.3703" y2="52.3806" gradientUnits="userSpaceOnUse">
<stop stop-color="#78005B"/>
<stop offset="0.3483" stop-color="#7A025A" stop-opacity="0.6517"/>
<stop offset="0.51" stop-color="#820955" stop-opacity="0.49"/>
<stop offset="0.6332" stop-color="#8E154E" stop-opacity="0.3668"/>
<stop offset="0.7369" stop-color="#A12643" stop-opacity="0.2631"/>
<stop offset="0.8283" stop-color="#B83C36" stop-opacity="0.1717"/>
<stop offset="0.9111" stop-color="#D65725" stop-opacity="0.0889"/>
<stop offset="0.9857" stop-color="#F87711" stop-opacity="0.0143"/>
<stop offset="1" stop-color="#FF7E0D" stop-opacity="0"/>
</linearGradient>
<linearGradient id="paint2_linear_1_7923" x1="42.7684" y1="51.8475" x2="38.013" y2="45.0075" gradientUnits="userSpaceOnUse">
<stop stop-color="#FF7E0D" stop-opacity="0"/>
<stop offset="0.00928743" stop-color="#F97811" stop-opacity="0.0127"/>
<stop offset="0.0651" stop-color="#D65825" stop-opacity="0.0888"/>
<stop offset="0.1269" stop-color="#B93D36" stop-opacity="0.1729"/>
<stop offset="0.1949" stop-color="#A12643" stop-opacity="0.2657"/>
<stop offset="0.272" stop-color="#8F154E" stop-opacity="0.3707"/>
<stop offset="0.3632" stop-color="#820955" stop-opacity="0.495"/>
<stop offset="0.4822" stop-color="#7A025A" stop-opacity="0.6573"/>
<stop offset="0.7336" stop-color="#78005B"/>
</linearGradient>
<linearGradient id="paint3_linear_1_7923" x1="30.5903" y1="45.1942" x2="34.4358" y2="39.6633" gradientUnits="userSpaceOnUse">
<stop stop-color="#FF7E0D" stop-opacity="0"/>
<stop offset="0.0133" stop-color="#F97910" stop-opacity="0.0192"/>
<stop offset="0.1144" stop-color="#D25427" stop-opacity="0.1659"/>
<stop offset="0.219" stop-color="#B1363A" stop-opacity="0.3175"/>
<stop offset="0.3263" stop-color="#981E48" stop-opacity="0.4731"/>
<stop offset="0.4375" stop-color="#860D53" stop-opacity="0.6344"/>
<stop offset="0.5551" stop-color="#7B0359" stop-opacity="0.8048"/>
<stop offset="0.6897" stop-color="#78005B"/>
</linearGradient>
<linearGradient id="paint4_linear_1_7923" x1="19.1929" y1="17.4524" x2="27.7497" y2="8.89547" gradientUnits="userSpaceOnUse">
<stop stop-color="#FF4630" stop-opacity="0"/>
<stop offset="0.5722" stop-color="#B31F48" stop-opacity="0.5722"/>
<stop offset="1" stop-color="#78005B"/>
</linearGradient>
<linearGradient id="paint5_linear_1_7923" x1="28.244" y1="23.1452" x2="33.9437" y2="17.4455" gradientUnits="userSpaceOnUse">
<stop stop-color="#FF4630" stop-opacity="0"/>
<stop offset="0.5722" stop-color="#B31F48" stop-opacity="0.5722"/>
<stop offset="1" stop-color="#78005B"/>
</linearGradient>
<linearGradient id="paint6_linear_1_7923" x1="34.6217" y1="14.4256" x2="40.3402" y2="8.70717" gradientUnits="userSpaceOnUse">
<stop stop-color="#FF4630" stop-opacity="0"/>
<stop offset="0.5722" stop-color="#B31F48" stop-opacity="0.5722"/>
<stop offset="1" stop-color="#78005B"/>
</linearGradient>
</defs>
</svg>
