<svg width="204" height="52" viewBox="0 0 204 52" fill="none" xmlns="http://www.w3.org/2000/svg">
<path d="M82.6256 22.2262L77.7097 21.3023C74.4634 20.6555 73.7214 20.2859 73.7214 18.5305C73.7214 16.775 74.8344 16.0359 78.4517 16.0359C82.5328 16.0359 83.7386 16.9598 83.7386 19.9164V20.3783L89.8602 18.7153C89.3965 13.9108 85.9647 10.3999 78.6372 10.3999C70.6606 10.3999 67.5997 14.5576 67.5997 18.8076C67.5997 23.1501 69.8258 25.7371 75.1127 26.661L80.0285 27.4926C83.9241 28.1393 84.3879 28.7861 84.3879 30.6339C84.3879 32.4818 83.5531 33.2209 79.9358 33.2209C74.9272 33.2209 73.8141 32.3894 73.8141 29.3404V28.8785L67.6925 30.5415C68.1562 35.9927 71.9591 38.8569 79.5648 38.8569C87.4487 38.8569 90.4167 34.884 90.4167 30.4491C90.5095 26.4762 88.469 23.4273 82.6256 22.2262Z" fill="black"/>
<path d="M113.373 26.923V26.4611C113.373 21.3795 109.292 17.9609 103.727 17.9609C96.7707 17.9609 92.7823 22.211 92.7823 28.8633C92.7823 35.4232 96.4924 39.5808 103.356 39.5808C109.107 39.5808 113.281 36.1623 113.281 31.0807V30.6187H107.066V30.8959C107.066 33.2057 105.768 34.0373 103.171 34.0373C100.203 34.0373 98.904 32.6514 98.904 28.7709C98.904 24.8904 100.203 23.5045 103.171 23.5045C105.768 23.5045 107.066 24.2436 107.066 26.6459V27.0154H113.373V26.923Z" fill="black"/>
<path d="M125.894 17.8687C120.051 17.8687 116.155 21.1024 116.155 26.0916V26.5536L122.091 26.0916C122.091 23.9666 123.111 23.3198 125.616 23.3198C128.027 23.3198 129.419 23.7818 129.419 26.184V26.8308L122.277 27.9395C118.01 28.5862 115.691 30.6189 115.691 33.7602C115.691 37.5483 118.567 39.4886 122.277 39.4886C126.172 39.4886 128.213 37.8255 129.419 36.2548H129.697V39.0266H135.447V26.7384C135.262 21.2872 132.016 17.8687 125.894 17.8687ZM124.224 34.7765C122.369 34.7765 121.535 34.407 121.535 33.2982C121.535 32.4667 122.091 32.0047 123.39 31.82L129.326 30.896C129.326 34.1298 126.729 34.7765 124.224 34.7765Z" fill="black"/>
<path d="M138.973 13.0644V39.1192H145.187V11.4014L138.973 13.0644Z" fill="black"/>
<path d="M149.082 13.0644V39.1192H155.297V11.4014L149.082 13.0644Z" fill="black"/>
<path fill-rule="evenodd" clip-rule="evenodd" d="M168.838 17.8687C162.16 17.8687 158.172 22.1187 158.172 28.6786C158.172 35.2385 162.16 39.4886 168.838 39.4886C175.517 39.4886 179.412 35.2385 179.412 28.6786C179.412 22.1187 175.517 17.8687 168.838 17.8687ZM169.029 34.4249C165.86 34.4249 163.283 31.8473 163.283 28.6789C163.283 25.5105 165.86 22.9329 169.029 22.9329C169.509 22.9329 169.989 22.992 170.461 23.1102C170.558 23.1397 170.646 23.2062 170.69 23.2948L170.783 23.4746C171.468 24.8098 172.641 25.8299 174.058 26.3229C174.206 26.3746 174.302 26.5075 174.302 26.6626V30.6878C174.302 30.8429 174.206 30.9758 174.058 31.0275C172.64 31.5207 171.466 32.5393 170.777 33.8731L170.683 34.0556C170.639 34.1516 170.55 34.2181 170.454 34.2402C169.981 34.3658 169.501 34.4249 169.029 34.4249Z" fill="black"/>
<path d="M194.438 17.8687C191.285 17.8687 188.873 19.0698 187.76 21.3796H187.575V18.3306H181.824V46.0484L188.038 44.3854V36.3472H188.224C189.151 38.1027 191.192 39.4886 194.531 39.4886C200.189 39.4886 203.343 35.2385 203.343 28.6786C203.435 22.1187 200.282 17.8687 194.438 17.8687ZM192.583 34.2222C189.615 34.2222 188.038 33.2059 188.038 30.3417V27.0155C188.038 24.2438 189.708 23.135 192.583 23.135C196.201 23.135 197.128 24.8905 197.128 28.6786C197.128 32.4667 196.201 34.2222 192.583 34.2222Z" fill="black"/>
<path d="M36.6096 3.1009C32.4806 7.35502 28.3516 11.5935 24.2226 15.8476C24.1757 15.8789 24.1444 15.9102 24.0975 15.9571L15.1044 24.9502C14.2442 25.8104 14.2442 27.2336 15.1044 28.0938L23.6283 36.6177L13.1338 47.6127C11.5072 46.5023 9.95882 45.2198 8.42609 43.6714C-2.56893 32.692 -2.94429 19.1164 8.12893 8.02755C16.903 -0.746568 27.2568 -2.23238 36.6096 3.1009Z" fill="url(#paint0_linear_1_8593)"/>
<path d="M43.9916 43.8748C35.2331 52.6177 24.9419 54.1817 15.6517 49.1612L19.3427 45.2981C22.1736 42.3734 24.9888 39.4643 27.8197 36.5396L30.6662 33.6931L36.2497 28.1096C37.1099 27.2494 37.1099 25.8261 36.2497 24.9659L33.6847 22.4009L27.7884 16.5046L38.1735 5.6347L39.0806 4.69629C40.6133 5.77546 42.1461 7.07359 43.6006 8.52812C54.5018 19.398 54.971 32.8798 43.9916 43.8748Z" fill="url(#paint1_linear_1_8593)"/>
<defs>
<linearGradient id="paint0_linear_1_8593" x1="30.0431" y1="-17.4798" x2="-39.8963" y2="135.331" gradientUnits="userSpaceOnUse">
<stop stop-color="#00DECA"/>
<stop offset="0.37798" stop-color="#3A8AFA"/>
<stop offset="1" stop-color="#1A6AF4"/>
</linearGradient>
<linearGradient id="paint1_linear_1_8593" x1="45.4841" y1="-12.6701" x2="-24.0256" y2="139.121" gradientUnits="userSpaceOnUse">
<stop stop-color="#00DECA"/>
<stop offset="0.37798" stop-color="#3A8AFA"/>
<stop offset="1" stop-color="#1A6AF4"/>
</linearGradient>
</defs>
</svg>
