<svg width="233" height="475" viewBox="0 0 233 475" fill="none" xmlns="http://www.w3.org/2000/svg">
<g filter="url(#filter0_b_1_2910)">
<path fill-rule="evenodd" clip-rule="evenodd" d="M96.3245 324.627L23.7682 356.248C12.7776 361.038 12.7776 368.804 23.7682 373.594L96.9072 405.469C107.898 410.259 125.717 410.259 136.708 405.469L209.264 373.848C220.255 369.058 220.255 361.292 209.264 356.502L136.125 324.627C125.134 319.837 107.315 319.837 96.3245 324.627ZM22.4415 355.67L94.9978 324.048C106.721 318.939 125.728 318.939 137.452 324.048L210.591 355.924C222.314 361.033 222.314 369.317 210.591 374.426L138.034 406.047C126.311 411.157 107.304 411.157 95.5805 406.047L22.4415 374.172C10.7182 369.063 10.7182 360.779 22.4415 355.67Z" fill="url(#paint0_radial_1_2910)" fill-opacity="0.5"/>
</g>
<g filter="url(#filter1_b_1_2910)">
<path d="M14.7714 362.757L13.0016 309.998C12.9323 307.933 14.9735 306.461 16.8975 307.188L101.487 339.14C109.894 342.315 119.135 342.471 127.643 339.582L215.194 309.851C217.063 309.217 219 310.614 219 312.596V362.43C219 367.093 216.219 371.301 211.943 373.111L136.831 404.892L128.819 407.748C119.603 411.034 109.494 410.714 100.502 406.851L21.7637 373.023C17.648 371.255 14.9221 367.253 14.7714 362.757Z" fill="url(#paint1_radial_1_2910)" fill-opacity="0.5"/>
</g>
<path d="M94.5462 269.069L21.6592 296.622C9.69709 301.144 9.69709 308.475 21.6592 312.997L95.1349 340.773C107.097 345.295 126.491 345.295 138.454 340.773L211.341 313.22C223.303 308.698 223.303 301.366 211.341 296.844L137.865 269.069C125.903 264.547 106.508 264.547 94.5462 269.069Z" fill="#1D2D3B"/>
<g filter="url(#filter2_b_1_2910)">
<path fill-rule="evenodd" clip-rule="evenodd" d="M95.8999 269.581L23.0129 297.134C11.7984 301.373 11.7984 308.246 23.0129 312.486L96.4886 340.261C107.703 344.5 125.885 344.5 137.1 340.261L209.987 312.708C221.201 308.469 221.201 301.595 209.987 297.356L136.511 269.581C125.297 265.341 107.114 265.341 95.8999 269.581ZM21.6592 296.622L94.5462 269.069C106.508 264.547 125.903 264.547 137.865 269.069L211.341 296.844C223.303 301.366 223.303 308.698 211.341 313.22L138.454 340.773C126.491 345.295 107.097 345.295 95.1349 340.773L21.6592 312.997C9.69709 308.475 9.69709 301.144 21.6592 296.622Z" fill="url(#paint2_radial_1_2910)" fill-opacity="0.5"/>
</g>
<g filter="url(#filter3_b_1_2910)">
<path fill-rule="evenodd" clip-rule="evenodd" d="M83.1737 309.268C102.112 319.037 132.817 319.037 151.756 309.268C170.694 299.498 170.694 283.659 151.756 273.889C132.817 264.12 102.112 264.12 83.1737 273.889C64.2353 283.659 64.2353 299.498 83.1737 309.268ZM81.8875 309.931C101.536 320.067 133.393 320.067 153.042 309.931C172.69 299.795 172.69 283.362 153.042 273.226C133.393 263.09 101.536 263.09 81.8875 273.226C62.2389 283.362 62.2389 299.795 81.8875 309.931Z" fill="url(#paint3_radial_1_2910)" fill-opacity="0.5"/>
</g>
<g opacity="0.2" filter="url(#filter4_f_1_2910)">
<path d="M165.561 283.681C171.586 302.164 165.537 312.664 157.316 318.456C77.2412 332.968 73.9357 309.504 70.9998 293.181C115.368 298.003 122.1 294.606 137.561 301.237C153.023 307.869 159.537 265.198 165.561 283.681Z" fill="white" fill-opacity="0.8"/>
</g>
<path d="M153.042 298.293C133.393 308.429 101.536 308.429 81.8875 298.293C62.2389 288.157 62.2389 271.724 81.8875 261.588C101.536 251.452 133.393 251.452 153.042 261.588C172.69 271.724 172.69 288.157 153.042 298.293Z" fill="url(#paint4_linear_1_2910)"/>
<g filter="url(#filter5_b_1_2910)">
<path fill-rule="evenodd" clip-rule="evenodd" d="M83.1737 297.629C102.112 307.399 132.817 307.399 151.756 297.629C170.694 287.86 170.694 272.021 151.756 262.251C132.817 252.482 102.112 252.482 83.1737 262.251C64.2353 272.021 64.2353 287.86 83.1737 297.629ZM81.8875 298.293C101.536 308.429 133.393 308.429 153.042 298.293C172.69 288.157 172.69 271.724 153.042 261.588C133.393 251.452 101.536 251.452 81.8875 261.588C62.2389 271.724 62.2389 288.157 81.8875 298.293Z" fill="url(#paint5_radial_1_2910)" fill-opacity="0.5"/>
</g>
<path d="M10.9998 80.1122L69.415 284.954C69.5889 286.888 70.542 288.667 72.053 289.877C97.8549 310.543 134.186 311.427 160.953 292.041L163.535 290.171C164.189 289.697 164.616 288.968 164.71 288.163L229 80.1122L118.5 0.5L10.9998 80.1122Z" fill="url(#paint6_linear_1_2910)"/>
<g filter="url(#filter6_d_1_2910)">
<circle cx="120" cy="205" r="48" fill="white"/>
</g>
<path d="M132.053 178.984C127.362 183.817 122.671 188.633 117.98 193.466C117.927 193.501 117.891 193.537 117.838 193.59L107.621 203.807C106.644 204.784 106.644 206.401 107.621 207.379L117.305 217.063L105.382 229.554C103.534 228.292 101.775 226.835 100.034 225.076C87.5423 212.603 87.1158 197.179 99.6961 184.581C109.664 174.613 121.427 172.925 132.053 178.984Z" fill="url(#paint7_linear_1_2910)"/>
<path d="M140.441 225.307C130.491 235.24 118.799 237.017 108.244 231.313L112.438 226.924C115.654 223.601 118.852 220.296 122.068 216.974L125.302 213.74L131.646 207.396C132.623 206.419 132.623 204.802 131.646 203.825L128.732 200.911L122.033 194.212L133.831 181.863L134.862 180.797C136.603 182.023 138.344 183.497 139.997 185.15C152.382 197.499 152.915 212.816 140.441 225.307Z" fill="url(#paint8_linear_1_2910)"/>
<path d="M120.362 192.968C120.344 192.968 120.326 192.968 120.326 192.951C120.326 192.951 120.344 192.968 120.362 192.968Z" fill="url(#paint9_linear_1_2910)"/>
<path d="M93.2079 468.36C91.9279 468.36 90.7719 468.136 89.7399 467.688C88.7159 467.232 87.8719 466.584 87.2079 465.744C86.5519 464.896 86.1359 463.888 85.9599 462.72L89.3679 462.216C89.6079 463.208 90.1039 463.972 90.8559 464.508C91.6079 465.044 92.4639 465.312 93.4239 465.312C93.9599 465.312 94.4799 465.228 94.9839 465.06C95.4879 464.892 95.8999 464.644 96.2199 464.316C96.5479 463.988 96.7119 463.584 96.7119 463.104C96.7119 462.928 96.6839 462.76 96.6279 462.6C96.5799 462.432 96.4959 462.276 96.3759 462.132C96.2559 461.988 96.0839 461.852 95.8599 461.724C95.6439 461.596 95.3679 461.48 95.0319 461.376L90.5439 460.056C90.2079 459.96 89.8159 459.824 89.3679 459.648C88.9279 459.472 88.4999 459.22 88.0839 458.892C87.6679 458.564 87.3199 458.132 87.0399 457.596C86.7679 457.052 86.6319 456.368 86.6319 455.544C86.6319 454.384 86.9239 453.42 87.5079 452.652C88.0919 451.884 88.8719 451.312 89.8479 450.936C90.8239 450.56 91.9039 450.376 93.0879 450.384C94.2799 450.4 95.3439 450.604 96.2799 450.996C97.2159 451.388 97.9999 451.96 98.6319 452.712C99.2639 453.456 99.7199 454.368 99.9999 455.448L96.4719 456.048C96.3439 455.488 96.1079 455.016 95.7639 454.632C95.4199 454.248 95.0079 453.956 94.5279 453.756C94.0559 453.556 93.5599 453.448 93.0399 453.432C92.5279 453.416 92.0439 453.488 91.5879 453.648C91.1399 453.8 90.7719 454.024 90.4839 454.32C90.2039 454.616 90.0639 454.968 90.0639 455.376C90.0639 455.752 90.1799 456.06 90.4119 456.3C90.6439 456.532 90.9359 456.72 91.2879 456.864C91.6399 457.008 91.9999 457.128 92.3679 457.224L95.3679 458.04C95.8159 458.16 96.3119 458.32 96.8559 458.52C97.3999 458.712 97.9199 458.984 98.4159 459.336C98.9199 459.68 99.3319 460.136 99.6519 460.704C99.9799 461.272 100.144 461.992 100.144 462.864C100.144 463.792 99.9479 464.604 99.5559 465.3C99.1719 465.988 98.6519 466.56 97.9959 467.016C97.3399 467.464 96.5959 467.8 95.7639 468.024C94.9399 468.248 94.0879 468.36 93.2079 468.36ZM110.197 468.36C108.469 468.36 106.977 467.984 105.721 467.232C104.473 466.48 103.509 465.428 102.829 464.076C102.157 462.724 101.821 461.152 101.821 459.36C101.821 457.568 102.157 455.996 102.829 454.644C103.509 453.292 104.473 452.24 105.721 451.488C106.977 450.736 108.469 450.36 110.197 450.36C112.181 450.36 113.845 450.852 115.189 451.836C116.541 452.82 117.493 454.152 118.045 455.832L114.757 456.744C114.437 455.696 113.897 454.884 113.137 454.308C112.377 453.724 111.397 453.432 110.197 453.432C109.101 453.432 108.185 453.676 107.449 454.164C106.721 454.652 106.173 455.34 105.805 456.228C105.437 457.116 105.253 458.16 105.253 459.36C105.253 460.56 105.437 461.604 105.805 462.492C106.173 463.38 106.721 464.068 107.449 464.556C108.185 465.044 109.101 465.288 110.197 465.288C111.397 465.288 112.377 464.996 113.137 464.412C113.897 463.828 114.437 463.016 114.757 461.976L118.045 462.888C117.493 464.568 116.541 465.9 115.189 466.884C113.845 467.868 112.181 468.36 110.197 468.36ZM120.928 468V450.72H124.192V464.952H131.632V468H120.928ZM133.672 468V450.72H140.968C141.136 450.72 141.36 450.728 141.64 450.744C141.928 450.752 142.184 450.776 142.408 450.816C143.44 450.976 144.284 451.316 144.94 451.836C145.604 452.356 146.092 453.012 146.404 453.804C146.716 454.588 146.872 455.464 146.872 456.432C146.872 457.4 146.712 458.28 146.392 459.072C146.08 459.856 145.592 460.508 144.928 461.028C144.272 461.548 143.432 461.888 142.408 462.048C142.184 462.08 141.928 462.104 141.64 462.12C141.352 462.136 141.128 462.144 140.968 462.144H136.936V468H133.672ZM136.936 459.096H140.824C140.992 459.096 141.176 459.088 141.376 459.072C141.576 459.056 141.76 459.024 141.928 458.976C142.368 458.856 142.708 458.656 142.948 458.376C143.188 458.088 143.352 457.772 143.44 457.428C143.536 457.076 143.584 456.744 143.584 456.432C143.584 456.12 143.536 455.792 143.44 455.448C143.352 455.096 143.188 454.78 142.948 454.5C142.708 454.212 142.368 454.008 141.928 453.888C141.76 453.84 141.576 453.808 141.376 453.792C141.176 453.776 140.992 453.768 140.824 453.768H136.936V459.096Z" fill="url(#paint10_linear_1_2910)"/>
<defs>
<filter id="filter0_b_1_2910" x="-118.008" y="188.559" width="469.048" height="352.977" filterUnits="userSpaceOnUse" color-interpolation-filters="sRGB">
<feFlood flood-opacity="0" result="BackgroundImageFix"/>
<feGaussianBlur in="BackgroundImageFix" stdDeviation="65.8286"/>
<feComposite in2="SourceAlpha" operator="in" result="effect1_backgroundBlur_1_2910"/>
<feBlend mode="normal" in="SourceGraphic" in2="effect1_backgroundBlur_1_2910" result="shape"/>
</filter>
<filter id="filter1_b_1_2910" x="10.9999" y="305" width="210" height="107" filterUnits="userSpaceOnUse" color-interpolation-filters="sRGB">
<feFlood flood-opacity="0" result="BackgroundImageFix"/>
<feGaussianBlur in="BackgroundImageFix" stdDeviation="1"/>
<feComposite in2="SourceAlpha" operator="in" result="effect1_backgroundBlur_1_2910"/>
<feBlend mode="normal" in="SourceGraphic" in2="effect1_backgroundBlur_1_2910" result="shape"/>
</filter>
<filter id="filter2_b_1_2910" x="-118.97" y="134.02" width="470.939" height="341.801" filterUnits="userSpaceOnUse" color-interpolation-filters="sRGB">
<feFlood flood-opacity="0" result="BackgroundImageFix"/>
<feGaussianBlur in="BackgroundImageFix" stdDeviation="65.8286"/>
<feComposite in2="SourceAlpha" operator="in" result="effect1_backgroundBlur_1_2910"/>
<feBlend mode="normal" in="SourceGraphic" in2="effect1_backgroundBlur_1_2910" result="shape"/>
</filter>
<filter id="filter3_b_1_2910" x="-64.5061" y="133.967" width="363.941" height="315.223" filterUnits="userSpaceOnUse" color-interpolation-filters="sRGB">
<feFlood flood-opacity="0" result="BackgroundImageFix"/>
<feGaussianBlur in="BackgroundImageFix" stdDeviation="65.8286"/>
<feComposite in2="SourceAlpha" operator="in" result="effect1_backgroundBlur_1_2910"/>
<feBlend mode="normal" in="SourceGraphic" in2="effect1_backgroundBlur_1_2910" result="shape"/>
</filter>
<filter id="filter4_f_1_2910" x="50.9998" y="259" width="137" height="84" filterUnits="userSpaceOnUse" color-interpolation-filters="sRGB">
<feFlood flood-opacity="0" result="BackgroundImageFix"/>
<feBlend mode="normal" in="SourceGraphic" in2="BackgroundImageFix" result="shape"/>
<feGaussianBlur stdDeviation="10" result="effect1_foregroundBlur_1_2910"/>
</filter>
<filter id="filter5_b_1_2910" x="-64.5061" y="122.329" width="363.941" height="315.223" filterUnits="userSpaceOnUse" color-interpolation-filters="sRGB">
<feFlood flood-opacity="0" result="BackgroundImageFix"/>
<feGaussianBlur in="BackgroundImageFix" stdDeviation="65.8286"/>
<feComposite in2="SourceAlpha" operator="in" result="effect1_backgroundBlur_1_2910"/>
<feBlend mode="normal" in="SourceGraphic" in2="effect1_backgroundBlur_1_2910" result="shape"/>
</filter>
<filter id="filter6_d_1_2910" x="51.9999" y="137" width="136" height="136" filterUnits="userSpaceOnUse" color-interpolation-filters="sRGB">
<feFlood flood-opacity="0" result="BackgroundImageFix"/>
<feColorMatrix in="SourceAlpha" type="matrix" values="0 0 0 0 0 0 0 0 0 0 0 0 0 0 0 0 0 0 127 0" result="hardAlpha"/>
<feOffset/>
<feGaussianBlur stdDeviation="10"/>
<feColorMatrix type="matrix" values="0 0 0 0 0 0 0 0 0 0 0 0 0 0 0 0 0 0 0.1 0"/>
<feBlend mode="normal" in2="BackgroundImageFix" result="effect1_dropShadow_1_2910"/>
<feBlend mode="normal" in="SourceGraphic" in2="effect1_dropShadow_1_2910" result="shape"/>
</filter>
<radialGradient id="paint0_radial_1_2910" cx="0" cy="0" r="1" gradientUnits="userSpaceOnUse" gradientTransform="translate(14.4099 365.251) rotate(-1.28869) scale(171.821 123.499)">
<stop stop-color="white" stop-opacity="0.65"/>
<stop offset="0.0001" stop-color="white"/>
<stop offset="1" stop-color="white" stop-opacity="0.65"/>
</radialGradient>
<radialGradient id="paint1_radial_1_2910" cx="0" cy="0" r="1" gradientUnits="userSpaceOnUse" gradientTransform="translate(24.1395 313.216) rotate(24.1631) scale(177.316 219.127)">
<stop stop-color="white" stop-opacity="0.65"/>
<stop offset="0.0001" stop-color="white"/>
<stop offset="1" stop-color="white" stop-opacity="0.65"/>
</radialGradient>
<radialGradient id="paint2_radial_1_2910" cx="0" cy="0" r="1" gradientUnits="userSpaceOnUse" gradientTransform="translate(13.3323 305.099) rotate(-1.11784) scale(173.596 108.242)">
<stop stop-color="white" stop-opacity="0.65"/>
<stop offset="0.0001" stop-color="white"/>
<stop offset="1" stop-color="white" stop-opacity="0.65"/>
</radialGradient>
<radialGradient id="paint3_radial_1_2910" cx="0" cy="0" r="1" gradientUnits="userSpaceOnUse" gradientTransform="translate(117.018 259.073) rotate(84.009) scale(54.9917 173.94)">
<stop stop-color="white" stop-opacity="0.65"/>
<stop offset="0.0001" stop-color="white"/>
<stop offset="1" stop-color="white" stop-opacity="0.65"/>
</radialGradient>
<linearGradient id="paint4_linear_1_2910" x1="134.317" y1="288.634" x2="359.708" y2="439.02" gradientUnits="userSpaceOnUse">
<stop stop-color="#1D2D3C"/>
<stop offset="1" stop-color="#00DECA"/>
</linearGradient>
<radialGradient id="paint5_radial_1_2910" cx="0" cy="0" r="1" gradientUnits="userSpaceOnUse" gradientTransform="translate(117.018 247.435) rotate(84.009) scale(54.9917 173.94)">
<stop stop-color="white" stop-opacity="0.65"/>
<stop offset="0.0001" stop-color="white"/>
<stop offset="1" stop-color="white" stop-opacity="0.65"/>
</radialGradient>
<linearGradient id="paint6_linear_1_2910" x1="123.5" y1="311.5" x2="129" y2="164.5" gradientUnits="userSpaceOnUse">
<stop stop-color="white" stop-opacity="0.1"/>
<stop offset="0.0001" stop-color="white" stop-opacity="0.32"/>
<stop offset="1" stop-color="white" stop-opacity="0"/>
</linearGradient>
<linearGradient id="paint7_linear_1_2910" x1="124.593" y1="155.603" x2="45.1348" y2="329.21" gradientUnits="userSpaceOnUse">
<stop stop-color="#00DECA"/>
<stop offset="0.37798" stop-color="#3A8AFA"/>
<stop offset="1" stop-color="#1A6AF4"/>
</linearGradient>
<linearGradient id="paint8_linear_1_2910" x1="142.137" y1="161.067" x2="63.1671" y2="333.516" gradientUnits="userSpaceOnUse">
<stop stop-color="#00DECA"/>
<stop offset="0.37798" stop-color="#3A8AFA"/>
<stop offset="1" stop-color="#1A6AF4"/>
</linearGradient>
<linearGradient id="paint9_linear_1_2910" x1="120.344" y1="192.951" x2="120.344" y2="192.968" gradientUnits="userSpaceOnUse">
<stop stop-color="#4D9DFE"/>
<stop offset="1" stop-color="#1A6AF4"/>
</linearGradient>
<linearGradient id="paint10_linear_1_2910" x1="85.8669" y1="458.5" x2="207.181" y2="455.751" gradientUnits="userSpaceOnUse">
<stop stop-color="#FEFEFE"/>
<stop offset="1" stop-color="white" stop-opacity="0"/>
</linearGradient>
</defs>
</svg>
