<svg width="32" height="32" viewBox="0 0 32 32" fill="none" xmlns="http://www.w3.org/2000/svg">
<circle cx="16" cy="16" r="16" fill="#E5F1FF"/>
<path fill-rule="evenodd" clip-rule="evenodd" d="M19.4503 11.1989L11.4196 19.2175C10.9226 19.7146 10.9226 20.5205 11.4196 21.0177V21.0177C11.9168 21.5147 12.7227 21.5147 13.2198 21.0177L21.2384 12.9852C21.7316 12.4916 21.7316 11.6917 21.2384 11.198L21.2384 11.198C20.7444 10.7045 19.9439 10.7049 19.4503 11.1989V11.1989Z" fill="#377DFF"/>
<path opacity="0.3" fill-rule="evenodd" clip-rule="evenodd" d="M14.6235 12.1697C14.6235 13.0959 14.0654 13.9308 13.2096 14.285C12.3538 14.6392 11.3689 14.4427 10.7144 13.7874C10.0599 13.132 9.86475 12.1469 10.22 11.2915C10.5753 10.4361 11.411 9.87915 12.3372 9.88037C12.944 9.88072 13.5258 10.1221 13.9546 10.5515C14.3833 10.9808 14.624 11.5629 14.6235 12.1697ZM22.5517 20.0979C22.5521 21.0233 21.9946 21.8584 21.1391 22.2131C20.2836 22.5677 19.2987 22.372 18.6438 21.7173C17.9888 21.0625 17.7929 20.0776 18.1474 19.2221C18.5019 18.3665 19.3369 17.8088 20.263 17.809C20.8701 17.8087 21.4524 18.0498 21.8817 18.4791C22.311 18.9084 22.552 19.4907 22.5517 20.0979Z" fill="#377DFF"/>
</svg>
