<svg width="157" height="40" viewBox="0 0 157 40" fill="none" xmlns="http://www.w3.org/2000/svg">
<path d="M63.9499 17.5834L60.1685 16.8726C57.6714 16.3752 57.1006 16.0909 57.1006 14.7405C57.1006 13.3902 57.9568 12.8216 60.7393 12.8216C63.8786 12.8216 64.8061 13.5323 64.8061 15.8066V16.1619L69.515 14.8827C69.1582 11.187 66.5184 8.48633 60.882 8.48633C54.7462 8.48633 52.3917 11.6845 52.3917 14.9537C52.3917 18.2941 54.104 20.284 58.1708 20.9947L61.9522 21.6344C64.9488 22.1319 65.3055 22.6294 65.3055 24.0508C65.3055 25.4722 64.6634 26.0407 61.8809 26.0407C58.0281 26.0407 57.172 25.4011 57.172 23.0558V22.7004L52.4631 23.9797C52.8198 28.1729 55.745 30.376 61.5955 30.376C67.66 30.376 69.9431 27.32 69.9431 23.9086C70.0144 20.8526 68.4448 18.5073 63.9499 17.5834Z" fill="black"/>
<path d="M87.2096 20.7102V20.3549C87.2096 16.446 84.0704 13.8164 79.7895 13.8164C74.4385 13.8164 71.3706 17.0856 71.3706 22.2027C71.3706 27.2487 74.2245 30.4469 79.5042 30.4469C83.9277 30.4469 87.1383 27.8173 87.1383 23.9084V23.5531H82.358V23.7663C82.358 25.543 81.3592 26.1827 79.3615 26.1827C77.0784 26.1827 76.0795 25.1166 76.0795 22.1317C76.0795 19.1467 77.0784 18.0806 79.3615 18.0806C81.3592 18.0806 82.358 18.6492 82.358 20.497V20.7813H87.2096V20.7102Z" fill="black"/>
<path d="M96.8408 13.7451C92.346 13.7451 89.3494 16.2326 89.3494 20.0704V20.4257L93.9156 20.0704C93.9156 18.4358 94.7004 17.9383 96.6268 17.9383C98.4818 17.9383 99.552 18.2936 99.552 20.1415V20.639L94.0583 21.4918C90.7763 21.9893 88.9927 23.5528 88.9927 25.9692C88.9927 28.8831 91.2044 30.3756 94.0583 30.3756C97.0549 30.3756 98.6245 29.0963 99.552 27.8881H99.7661V30.0203H104.19V20.5679C104.047 16.3747 101.55 13.7451 96.8408 13.7451ZM95.5566 26.751C94.1297 26.751 93.4875 26.4667 93.4875 25.6139C93.4875 24.9743 93.9156 24.6189 94.9145 24.4768L99.4807 23.7661C99.4807 26.2535 97.483 26.751 95.5566 26.751Z" fill="black"/>
<path d="M106.901 10.0498V30.0917H111.682V8.77051L106.901 10.0498Z" fill="black"/>
<path d="M114.678 10.0498V30.0917H119.458V8.77051L114.678 10.0498Z" fill="black"/>
<path fill-rule="evenodd" clip-rule="evenodd" d="M129.874 13.7451C124.737 13.7451 121.67 17.0144 121.67 22.0604C121.67 27.1064 124.737 30.3756 129.874 30.3756C135.011 30.3756 138.008 27.1064 138.008 22.0604C138.008 17.0144 135.011 13.7451 129.874 13.7451ZM130.02 26.4804C127.583 26.4804 125.6 24.4977 125.6 22.0605C125.6 19.6233 127.583 17.6405 130.02 17.6405C130.39 17.6405 130.759 17.686 131.122 17.7769C131.196 17.7996 131.264 17.8507 131.299 17.9189L131.369 18.0572C131.896 19.0843 132.799 19.8689 133.889 20.2482C134.003 20.288 134.077 20.3902 134.077 20.5095V23.6058C134.077 23.7251 134.003 23.8273 133.889 23.8671C132.799 24.2464 131.895 25.0299 131.365 26.056L131.293 26.1964C131.259 26.2702 131.191 26.3213 131.117 26.3384C130.753 26.435 130.384 26.4804 130.02 26.4804Z" fill="black"/>
<path d="M149.566 13.7451C147.141 13.7451 145.286 14.669 144.429 16.4458H144.287V14.1005H139.863V35.4216L144.644 34.1423V27.9592H144.786C145.5 29.3096 147.069 30.3756 149.638 30.3756C153.99 30.3756 156.416 27.1064 156.416 22.0604C156.487 17.0144 154.061 13.7451 149.566 13.7451ZM148.14 26.3246C145.856 26.3246 144.644 25.5428 144.644 23.3396V20.7811C144.644 18.649 145.928 17.7961 148.14 17.7961C150.922 17.7961 151.636 19.1465 151.636 22.0604C151.636 24.9743 150.922 26.3246 148.14 26.3246Z" fill="black"/>
<path d="M28.1609 2.38528C24.9848 5.65764 21.8087 8.91797 18.6326 12.1903C18.5965 12.2144 18.5724 12.2384 18.5363 12.2745L11.6186 19.1922C10.957 19.8539 10.957 20.9487 11.6186 21.6104L18.1754 28.1671L10.1028 36.6247C8.85158 35.7705 7.66054 34.784 6.48153 33.593C-1.97607 25.1474 -2.26481 14.7047 6.25294 6.17496C13.0022 -0.574276 20.9665 -1.71719 28.1609 2.38528Z" fill="url(#paint0_linear_1_8436)"/>
<path d="M33.8393 33.7502C27.1021 40.4754 19.1859 41.6785 12.0397 37.8166L14.8789 34.845C17.0565 32.5953 19.222 30.3576 21.3996 28.1078L23.5892 25.9182L27.8841 21.6233C28.5458 20.9616 28.5458 19.8668 27.8841 19.2051L25.9111 17.2321L21.3755 12.6965L29.3639 4.33512L30.0617 3.61328C31.2407 4.4434 32.4197 5.44195 33.5386 6.56081C41.924 14.9222 42.2849 25.2926 33.8393 33.7502Z" fill="url(#paint1_linear_1_8436)"/>
<defs>
<linearGradient id="paint0_linear_1_8436" x1="23.1098" y1="-13.4459" x2="-30.6891" y2="104.1" gradientUnits="userSpaceOnUse">
<stop stop-color="#00DECA"/>
<stop offset="0.37798" stop-color="#3A8AFA"/>
<stop offset="1" stop-color="#1A6AF4"/>
</linearGradient>
<linearGradient id="paint1_linear_1_8436" x1="34.9874" y1="-9.74533" x2="-18.4809" y2="107.016" gradientUnits="userSpaceOnUse">
<stop stop-color="#00DECA"/>
<stop offset="0.37798" stop-color="#3A8AFA"/>
<stop offset="1" stop-color="#1A6AF4"/>
</linearGradient>
</defs>
</svg>
