<svg width="32" height="32" viewBox="0 0 32 32" fill="none" xmlns="http://www.w3.org/2000/svg">
<circle cx="16.0002" cy="16" r="16" fill="#EAFAF3"/>
<path d="M22.1727 12.4299L16.0002 15.9999L9.82768 12.4299C9.95442 12.2106 10.1351 12.0273 10.3527 11.8974L15.2502 9.06994C15.7157 8.80741 16.2846 8.80741 16.7502 9.06994L21.6477 11.8974C21.8652 12.0273 22.0459 12.2106 22.1727 12.4299Z" fill="#EAFAF3"/>
<path opacity="0.2" d="M16.0002 15.9999V23.1249C15.7637 23.1246 15.5304 23.0708 15.3177 22.9674L10.3752 20.1099C9.91189 19.8419 9.62619 19.3477 9.62518 18.8124V13.1874C9.62642 12.9217 9.69617 12.6608 9.82768 12.4299L16.0002 15.9999Z" fill="#2DCA8C"/>
<path d="M22.3752 13.1874V18.8124C22.3742 19.3477 22.0885 19.8419 21.6252 20.1099L16.6602 22.9749C16.4537 23.0723 16.2285 23.1235 16.0002 23.1249V15.9999L22.1727 12.4299C22.3042 12.6608 22.3739 12.9217 22.3752 13.1874Z" fill="#2DCA8C"/>
</svg>
