<svg width="126" height="115" viewBox="0 0 126 115" fill="none" xmlns="http://www.w3.org/2000/svg">
<path d="M62.6657 72.9243L62.7028 75.9043L103.614 52.2851L103.577 49.3027L62.6657 72.9243Z" fill="url(#paint0_linear_1_1880)"/>
<path d="M22 49.291L22.0372 52.271L62.7026 75.9043L62.6654 72.9243L22 49.291Z" fill="url(#paint1_linear_1_1880)"/>
<g filter="url(#filter0_bd_1_1880)">
<path d="M22.0024 49.2791L62.6776 72.9123L103.583 49.3128L62.9071 25.6812L22.0024 49.2791Z" fill="url(#paint2_radial_1_1880)" fill-opacity="0.3"/>
<path d="M102.585 49.3113L62.6785 72.3346L23.0004 49.2806L62.9062 26.2589L102.585 49.3113Z" stroke="url(#paint3_radial_1_1880)"/>
</g>
<g opacity="0.5" filter="url(#filter1_b_1_1880)">
<path d="M62.6909 38.9417L62.721 68.0216L96.444 48.5529L96.4138 19.4707L62.6909 38.9417Z" fill="url(#paint4_radial_1_1880)" fill-opacity="0.5"/>
<path d="M95.9147 20.3362L95.9437 48.2644L63.2202 67.1561L63.1912 39.2302L95.9147 20.3362Z" stroke="white" stroke-opacity="0.5"/>
</g>
<g filter="url(#filter2_f_1_1880)">
<path d="M76.4102 46.6753C76.1593 46.5552 75.9996 46.2969 75.9996 46.0123V44.3872C75.9996 44.3272 76.0148 44.2655 76.0452 44.2095C76.1441 44.033 76.3646 43.947 76.5318 44.0246L80.257 45.7257C80.4775 45.8269 80.6067 46.0363 80.6067 46.2909V47.976C80.6067 48.0509 80.5839 48.1285 80.5459 48.2004C80.4243 48.4095 80.1582 48.5084 79.9605 48.412L76.4102 46.6753ZM81.9675 42.9319C82.188 43.0331 82.3173 43.2425 82.3173 43.4971V46.9198C82.3173 47.0246 82.264 47.1208 82.1728 47.184L81.3594 47.7296C81.3517 47.738 81.3365 47.7398 81.3289 47.7482V45.8534C81.3289 45.6063 81.1997 45.3969 80.9868 45.2948L77.7178 43.7569V41.5925C77.7178 41.5326 77.733 41.4709 77.7634 41.4148C77.8622 41.2384 78.0827 41.1524 78.25 41.2299L81.9675 42.9319ZM83.5945 40.2079C83.8149 40.3091 83.9442 40.5185 83.9442 40.7732V45.7686C83.9442 45.8734 83.8834 45.9705 83.7921 46.0337L83.0167 46.5374V43.0623C83.0167 42.8152 82.8874 42.6058 82.6746 42.5037L79.3295 40.9224V38.8928C79.3295 38.8329 79.3447 38.7712 79.3751 38.7151C79.4739 38.5387 79.6944 38.4527 79.8617 38.5302L83.5945 40.2079Z" fill="white"/>
</g>
<path d="M76.4102 46.6753C76.1593 46.5552 75.9996 46.2969 75.9996 46.0123V44.3872C75.9996 44.3272 76.0148 44.2655 76.0452 44.2095C76.1441 44.033 76.3646 43.947 76.5318 44.0246L80.257 45.7257C80.4775 45.8269 80.6067 46.0363 80.6067 46.2909V47.976C80.6067 48.0509 80.5839 48.1285 80.5459 48.2004C80.4243 48.4095 80.1582 48.5084 79.9605 48.412L76.4102 46.6753ZM81.9675 42.9319C82.188 43.0331 82.3173 43.2425 82.3173 43.4971V46.9198C82.3173 47.0246 82.264 47.1208 82.1728 47.184L81.3594 47.7296C81.3517 47.738 81.3365 47.7398 81.3289 47.7482V45.8534C81.3289 45.6063 81.1997 45.3969 80.9868 45.2948L77.7178 43.7569V41.5925C77.7178 41.5326 77.733 41.4709 77.7634 41.4148C77.8622 41.2384 78.0827 41.1524 78.25 41.2299L81.9675 42.9319ZM83.5945 40.2079C83.8149 40.3091 83.9442 40.5185 83.9442 40.7732V45.7686C83.9442 45.8734 83.8834 45.9705 83.7921 46.0337L83.0167 46.5374V43.0623C83.0167 42.8152 82.8874 42.6058 82.6746 42.5037L79.3295 40.9224V38.8928C79.3295 38.8329 79.3447 38.7712 79.3751 38.7151C79.4739 38.5387 79.6944 38.4527 79.8617 38.5302L83.5945 40.2079Z" fill="white"/>
<g opacity="0.5" filter="url(#filter3_b_1_1880)">
<path d="M29.1696 19.4595L29.1998 48.5394L62.7206 68.0197L62.6904 38.9398L29.1696 19.4595Z" fill="url(#paint5_radial_1_1880)" fill-opacity="0.5"/>
<path d="M62.2197 67.1503L29.6995 48.2515L29.6705 20.3289L62.1907 39.2277L62.2197 67.1503Z" stroke="white" stroke-opacity="0.5"/>
</g>
<g filter="url(#filter4_f_1_1880)">
<path d="M47.9233 46.5231L45.6477 39.2708C45.5202 38.8904 45.3276 38.6412 45.0781 38.5181L44.8774 38.4192C44.6252 38.2948 44.4353 38.3554 44.3078 38.61L43.3178 40.7922L42.5692 40.423C42.3468 40.3164 42.1624 40.425 42.1624 40.676V40.6821C42.1651 40.9314 42.3468 41.2267 42.5692 41.3363L42.9706 41.5343L42.0268 43.6152C42.0105 43.6646 41.9996 43.7167 41.9996 43.7772C41.9996 43.9194 42.0403 44.0513 42.1108 44.1738C42.1814 44.2963 42.2844 44.3894 42.4119 44.4523C42.496 44.4907 42.5774 44.5037 42.6452 44.4796C42.7184 44.4583 42.7672 44.4037 42.8079 44.33L43.8494 41.9677L44.5709 42.3235C44.7933 42.4301 44.9778 42.3215 44.9778 42.0705V42.0584C44.975 41.809 44.7933 41.5138 44.5709 41.4041L44.1858 41.2142L44.9805 39.4014L47.1449 46.4688C47.1856 46.5826 47.2344 46.6884 47.3076 46.7789C47.3754 46.8698 47.4595 46.9385 47.5409 46.9816C47.6684 47.0445 47.7687 47.0517 47.842 47.0001C47.9152 46.9485 47.9532 46.8553 47.9532 46.7132C47.9532 46.6527 47.945 46.5882 47.9233 46.5231Z" fill="white"/>
</g>
<path d="M47.9233 46.5231L45.6477 39.2708C45.5202 38.8904 45.3276 38.6412 45.0781 38.5181L44.8774 38.4192C44.6252 38.2948 44.4353 38.3554 44.3078 38.61L43.3178 40.7922L42.5692 40.423C42.3468 40.3164 42.1624 40.425 42.1624 40.676V40.6821C42.1651 40.9314 42.3468 41.2267 42.5692 41.3363L42.9706 41.5343L42.0268 43.6152C42.0105 43.6646 41.9996 43.7167 41.9996 43.7772C41.9996 43.9194 42.0403 44.0513 42.1108 44.1738C42.1814 44.2963 42.2844 44.3894 42.4119 44.4523C42.496 44.4907 42.5774 44.5037 42.6452 44.4796C42.7184 44.4583 42.7672 44.4037 42.8079 44.33L43.8494 41.9677L44.5709 42.3235C44.7933 42.4301 44.9778 42.3215 44.9778 42.0705V42.0584C44.975 41.809 44.7933 41.5138 44.5709 41.4041L44.1858 41.2142L44.9805 39.4014L47.1449 46.4688C47.1856 46.5826 47.2344 46.6884 47.3076 46.7789C47.3754 46.8698 47.4595 46.9385 47.5409 46.9816C47.6684 47.0445 47.7687 47.0517 47.842 47.0001C47.9152 46.9485 47.9532 46.8553 47.9532 46.7132C47.9532 46.6527 47.945 46.5882 47.9233 46.5231Z" fill="white"/>
<g opacity="0.7" filter="url(#filter5_b_1_1880)">
<path d="M29.1729 19.4515L62.7012 38.9322L96.4188 19.4794L62.8903 0L29.1729 19.4515Z" fill="url(#paint6_linear_1_1880)"/>
</g>
<defs>
<filter id="filter0_bd_1_1880" x="-77.9976" y="-74.3188" width="281.58" height="247.231" filterUnits="userSpaceOnUse" color-interpolation-filters="sRGB">
<feFlood flood-opacity="0" result="BackgroundImageFix"/>
<feGaussianBlur in="BackgroundImageFix" stdDeviation="50"/>
<feComposite in2="SourceAlpha" operator="in" result="effect1_backgroundBlur_1_1880"/>
<feColorMatrix in="SourceAlpha" type="matrix" values="0 0 0 0 0 0 0 0 0 0 0 0 0 0 0 0 0 0 127 0" result="hardAlpha"/>
<feOffset dy="20"/>
<feGaussianBlur stdDeviation="11"/>
<feColorMatrix type="matrix" values="0 0 0 0 0 0 0 0 0 0 0 0 0 0 0 0 0 0 0.05 0"/>
<feBlend mode="normal" in2="effect1_backgroundBlur_1_1880" result="effect2_dropShadow_1_1880"/>
<feBlend mode="normal" in="SourceGraphic" in2="effect2_dropShadow_1_1880" result="shape"/>
</filter>
<filter id="filter1_b_1_1880" x="-68.9663" y="-112.186" width="297.067" height="311.865" filterUnits="userSpaceOnUse" color-interpolation-filters="sRGB">
<feFlood flood-opacity="0" result="BackgroundImageFix"/>
<feGaussianBlur in="BackgroundImageFix" stdDeviation="65.8286"/>
<feComposite in2="SourceAlpha" operator="in" result="effect1_backgroundBlur_1_1880"/>
<feBlend mode="normal" in="SourceGraphic" in2="effect1_backgroundBlur_1_1880" result="shape"/>
</filter>
<filter id="filter2_f_1_1880" x="71.9996" y="34.5015" width="15.9445" height="17.9478" filterUnits="userSpaceOnUse" color-interpolation-filters="sRGB">
<feFlood flood-opacity="0" result="BackgroundImageFix"/>
<feBlend mode="normal" in="SourceGraphic" in2="BackgroundImageFix" result="shape"/>
<feGaussianBlur stdDeviation="2" result="effect1_foregroundBlur_1_1880"/>
</filter>
<filter id="filter3_b_1_1880" x="-102.488" y="-112.198" width="296.865" height="311.874" filterUnits="userSpaceOnUse" color-interpolation-filters="sRGB">
<feFlood flood-opacity="0" result="BackgroundImageFix"/>
<feGaussianBlur in="BackgroundImageFix" stdDeviation="65.8286"/>
<feComposite in2="SourceAlpha" operator="in" result="effect1_backgroundBlur_1_1880"/>
<feBlend mode="normal" in="SourceGraphic" in2="effect1_backgroundBlur_1_1880" result="shape"/>
</filter>
<filter id="filter4_f_1_1880" x="37.9996" y="34.3569" width="13.9535" height="16.6772" filterUnits="userSpaceOnUse" color-interpolation-filters="sRGB">
<feFlood flood-opacity="0" result="BackgroundImageFix"/>
<feBlend mode="normal" in="SourceGraphic" in2="BackgroundImageFix" result="shape"/>
<feGaussianBlur stdDeviation="2" result="effect1_foregroundBlur_1_1880"/>
</filter>
<filter id="filter5_b_1_1880" x="25.1729" y="-4" width="75.2459" height="46.9321" filterUnits="userSpaceOnUse" color-interpolation-filters="sRGB">
<feFlood flood-opacity="0" result="BackgroundImageFix"/>
<feGaussianBlur in="BackgroundImageFix" stdDeviation="2"/>
<feComposite in2="SourceAlpha" operator="in" result="effect1_backgroundBlur_1_1880"/>
<feBlend mode="normal" in="SourceGraphic" in2="effect1_backgroundBlur_1_1880" result="shape"/>
</filter>
<linearGradient id="paint0_linear_1_1880" x1="76.5071" y1="69.9634" x2="68.6386" y2="53.9452" gradientUnits="userSpaceOnUse">
<stop stop-color="#0E71E8"/>
<stop offset="1" stop-color="#0E72EA" stop-opacity="0"/>
</linearGradient>
<linearGradient id="paint1_linear_1_1880" x1="35.7582" y1="69.9607" x2="27.8552" y2="53.976" gradientUnits="userSpaceOnUse">
<stop stop-color="#0E71E8"/>
<stop offset="1" stop-color="#0E72EA" stop-opacity="0.79"/>
</linearGradient>
<radialGradient id="paint2_radial_1_1880" cx="0" cy="0" r="1" gradientUnits="userSpaceOnUse" gradientTransform="translate(27.1253 28.5316) rotate(27.9168) scale(71.088 97.3149)">
<stop stop-color="white" stop-opacity="0.65"/>
<stop offset="0.0001" stop-color="white"/>
<stop offset="1" stop-color="#2577FF"/>
</radialGradient>
<radialGradient id="paint3_radial_1_1880" cx="0" cy="0" r="1" gradientUnits="userSpaceOnUse" gradientTransform="translate(97.0118 66.4434) rotate(-149.442) scale(47.4864 67.6377)">
<stop stop-color="white"/>
<stop offset="1" stop-color="white" stop-opacity="0.4"/>
</radialGradient>
<radialGradient id="paint4_radial_1_1880" cx="0" cy="0" r="1" gradientUnits="userSpaceOnUse" gradientTransform="translate(64.9059 28.3635) rotate(57.7319) scale(50.8741 75.9937)">
<stop stop-color="#277DFE" stop-opacity="0.65"/>
<stop offset="0.0001" stop-color="white"/>
<stop offset="1" stop-color="#1F73FB"/>
</radialGradient>
<radialGradient id="paint5_radial_1_1880" cx="0" cy="0" r="1" gradientUnits="userSpaceOnUse" gradientTransform="translate(31.3713 28.354) rotate(57.892) scale(50.7945 75.6717)">
<stop stop-color="#277DFE" stop-opacity="0.65"/>
<stop offset="0.0001" stop-color="white"/>
<stop offset="1" stop-color="#1F73FB"/>
</radialGradient>
<linearGradient id="paint6_linear_1_1880" x1="63.1689" y1="-27.5672" x2="64.6545" y2="77.5518" gradientUnits="userSpaceOnUse">
<stop stop-color="#00DECA"/>
<stop offset="0.583107" stop-color="#1768F7"/>
<stop offset="1" stop-color="#277DFE"/>
</linearGradient>
</defs>
</svg>
