<svg width="100" height="24" viewBox="0 0 100 24" fill="none" xmlns="http://www.w3.org/2000/svg">
<mask id="mask0_1_1453" style="mask-type:alpha" maskUnits="userSpaceOnUse" x="0" y="0" width="36" height="24">
<rect width="36" height="24" rx="4" fill="#C4C4C4"/>
</mask>
<g mask="url(#mask0_1_1453)">
<path d="M35.7578 0H-0.75V24H35.7578V0Z" fill="#012169"/>
<path d="M35.7578 7.92011H27.678L35.7578 2.62482V0H31.9005L20.6138 7.39515V0H14.4055V7.40656L3.09593 0H-0.75V2.63623L7.31847 7.92011H-0.75V16.0799H7.35271L-0.75 21.3866V24H3.13017L14.4055 16.6163V24H20.6138V16.6277L31.8777 24H35.7578V21.398L27.6437 16.0799H35.7578V7.92011Z" fill="white"/>
<path d="M19.3698 0H15.6379V24H19.3698V0Z" fill="#D21034"/>
<path d="M35.759 14.4581V9.55078L-0.74881 9.55078V14.4581L35.759 14.4581Z" fill="#D21034"/>
<path d="M11.2899 7.92006H8.41405L-0.75 1.9172V0.0341797L11.2899 7.92006Z" fill="#D21034"/>
<path d="M35.7575 22.1172V24.0002L23.6719 16.0801H26.5478L35.7575 22.1172Z" fill="#D21034"/>
<path d="M14.1316 16.0801L2.03459 24.0002H-0.75V23.9431L11.2557 16.0801H14.1316Z" fill="#D21034"/>
<path d="M35.758 0V0.0684741L23.7751 7.92011H20.9106L32.9962 0H35.758Z" fill="#D21034"/>
</g>
<path d="M64 4C64 1.79086 65.7909 0 68 0H96C98.2091 0 100 1.79086 100 4V20C100 22.2091 98.2091 24 96 24H68C65.7909 24 64 22.2091 64 20V4Z" fill="#3F51B5"/>
<path d="M81.6446 3.11071C81.7907 2.81889 82.2093 2.81811 82.3554 3.10988C82.413 3.22486 82.5255 3.30495 82.6528 3.32287C82.9725 3.36785 83.1069 3.76252 82.874 3.98611C82.7813 4.07508 82.739 4.20485 82.7607 4.33145C82.8158 4.65111 82.4817 4.89806 82.1937 4.74878L82.1829 4.74317C82.0683 4.68375 81.9319 4.68385 81.8174 4.74342L81.8063 4.74919C81.5193 4.89847 81.1859 4.65254 81.2418 4.33392C81.2641 4.20672 81.2216 4.0764 81.1283 3.98712C80.8948 3.76371 81.0279 3.36861 81.3479 3.32359C81.475 3.30569 81.5872 3.22556 81.6446 3.11071ZM77.3458 4.37586C77.4921 4.08382 77.9104 4.08345 78.0567 4.37549C78.1143 4.4906 78.2269 4.57082 78.3543 4.58916C78.6743 4.63521 78.809 5.03052 78.5758 5.25441C78.4828 5.34369 78.4403 5.47373 78.4622 5.60077C78.5172 5.91975 78.184 6.16573 77.8964 6.01716L77.8837 6.01061C77.7693 5.95151 77.6334 5.95151 77.519 6.01061L77.5064 6.0171C77.2194 6.16536 76.887 5.91967 76.9429 5.60153C76.9654 5.47403 76.9227 5.34346 76.8292 5.25396C76.5956 5.0305 76.7291 4.63515 77.0491 4.58908C77.1762 4.57077 77.2883 4.49068 77.3458 4.37586ZM74.294 7.14725C74.4391 6.85637 74.8554 6.85733 75.0014 7.14779C75.0591 7.26258 75.1716 7.34279 75.2987 7.36111C75.6187 7.4072 75.7531 7.80249 75.5199 8.02639C75.4269 8.11568 75.3843 8.24564 75.4063 8.3727C75.4613 8.69138 75.1279 8.93647 74.8409 8.78741L74.8311 8.78231C74.7167 8.72291 74.5806 8.72279 74.4662 8.78197L74.4538 8.78835C74.1666 8.93687 73.8336 8.69138 73.8886 8.37274C73.9106 8.24569 73.8681 8.11568 73.7751 8.02639C73.5419 7.80251 73.6763 7.40724 73.9963 7.36119C74.1239 7.34283 74.2364 7.26259 74.294 7.14725ZM86.6543 4.37586C86.5081 4.08382 86.0897 4.08345 85.9435 4.37549C85.8858 4.4906 85.7732 4.57082 85.6458 4.58916C85.3258 4.63521 85.1911 5.03052 85.4243 5.25441C85.5173 5.34369 85.5599 5.47373 85.5379 5.60077C85.4829 5.91975 85.8161 6.16573 86.1037 6.01716L86.1164 6.01061C86.2308 5.95151 86.3668 5.95151 86.4812 6.01061L86.4937 6.0171C86.7807 6.16536 87.1131 5.91967 87.0572 5.60153C87.0348 5.47403 87.0774 5.34346 87.1709 5.25396C87.4045 5.0305 87.271 4.63515 86.9511 4.58908C86.824 4.57077 86.7118 4.49068 86.6543 4.37586ZM77.346 17.866C77.4921 17.5741 77.9103 17.5737 78.0565 17.8655C78.1142 17.9808 78.2265 18.0609 78.3541 18.0789C78.675 18.124 78.8086 18.5196 78.5753 18.7446C78.4826 18.834 78.4402 18.964 78.4622 19.0909C78.5172 19.4101 78.1838 19.656 77.896 19.5074L77.8837 19.501C77.7693 19.4419 77.6334 19.4419 77.519 19.501L77.5067 19.5073C77.2196 19.6557 76.887 19.41 76.943 19.0918C76.9654 18.9643 76.9229 18.8338 76.8295 18.7442C76.596 18.5199 76.7286 18.1244 77.0492 18.079C77.1765 18.0609 77.2884 17.9809 77.346 17.866ZM86.6542 17.866C86.508 17.5741 86.0898 17.5737 85.9436 17.8655C85.8859 17.9808 85.7736 18.0609 85.646 18.0789C85.3251 18.124 85.1915 18.5196 85.4248 18.7446C85.5175 18.834 85.5599 18.964 85.538 19.0909C85.4829 19.4101 85.8164 19.656 86.1041 19.5074L86.1164 19.501C86.2308 19.4419 86.3668 19.4419 86.4812 19.501L86.4934 19.5073C86.7806 19.6557 87.1131 19.41 87.0572 19.0918C87.0347 18.9643 87.0773 18.8338 87.1706 18.7442C87.4042 18.5199 87.2715 18.1244 86.9509 18.079C86.8236 18.0609 86.7117 17.9809 86.6542 17.866ZM89.7062 7.14725C89.561 6.85637 89.1447 6.85733 88.9987 7.14779C88.941 7.26258 88.8286 7.34279 88.7014 7.36111C88.3814 7.4072 88.247 7.80249 88.4802 8.02639C88.5732 8.11568 88.6158 8.24564 88.5939 8.3727C88.5389 8.69138 88.8723 8.93647 89.1592 8.78741L89.1691 8.78231C89.2834 8.72291 89.4195 8.72279 89.534 8.78197L89.5463 8.78835C89.8335 8.93687 90.1665 8.69138 90.1115 8.37274C90.0895 8.24569 90.1321 8.11568 90.2251 8.02639C90.4583 7.80251 90.3238 7.40724 90.0039 7.36119C89.8763 7.34283 89.7637 7.26259 89.7062 7.14725ZM74.294 15.0505C74.4391 14.7596 74.8554 14.7605 75.0014 15.051C75.0591 15.1658 75.1716 15.246 75.2987 15.2643C75.6187 15.3104 75.7531 15.7057 75.5199 15.9296C75.4269 16.0189 75.3844 16.1488 75.4063 16.2759C75.4613 16.5944 75.1282 16.8394 74.8413 16.6907L74.831 16.6853C74.7167 16.626 74.5807 16.626 74.4663 16.6851L74.4538 16.6916C74.1666 16.8401 73.8336 16.5946 73.8886 16.2759C73.9106 16.1489 73.8681 16.0189 73.7751 15.9296C73.5419 15.7057 73.6763 15.3104 73.9963 15.2644C74.1239 15.246 74.2364 15.1658 74.294 15.0505ZM89.7062 15.0505C89.561 14.7596 89.1447 14.7605 88.9987 15.051C88.941 15.1658 88.8286 15.246 88.7014 15.2643C88.3814 15.3104 88.247 15.7057 88.4802 15.9296C88.5732 16.0189 88.6158 16.1488 88.5938 16.2759C88.5388 16.5944 88.8719 16.8394 89.1588 16.6907L89.1691 16.6853C89.2834 16.626 89.4195 16.626 89.5339 16.6851L89.5463 16.6915C89.8335 16.8401 90.1665 16.5946 90.1115 16.2759C90.0895 16.1489 90.1321 16.0189 90.2251 15.9296C90.4583 15.7057 90.3238 15.3104 90.0039 15.2644C89.8763 15.246 89.7637 15.1658 89.7062 15.0505ZM90.0153 11.3541C90.1612 11.0622 90.5792 11.062 90.7254 11.3538C90.783 11.4689 90.8936 11.5489 91.021 11.5673L91.031 11.5687C91.351 11.6148 91.4777 12.0089 91.2445 12.2328C91.1515 12.3221 91.109 12.4521 91.1309 12.5792C91.186 12.8978 90.853 13.1435 90.5657 12.995L90.5523 12.9881C90.438 12.9291 90.3022 12.9292 90.1879 12.9884L90.1772 12.994C89.8905 13.1426 89.5578 12.8978 89.613 12.5796C89.6351 12.4523 89.5924 12.322 89.4989 12.2327C89.2651 12.0092 89.3983 11.6135 89.7185 11.5675C89.8457 11.5492 89.9578 11.469 90.0153 11.3541ZM73.2746 11.3541C73.4208 11.0623 73.8389 11.0622 73.9848 11.3541C74.0423 11.469 74.1545 11.5492 74.2817 11.5675C74.6017 11.6135 74.7353 12.009 74.5016 12.2324C74.4079 12.3219 74.3652 12.4524 74.3877 12.58C74.4436 12.8977 74.1115 13.1429 73.8249 12.9947L73.8123 12.9882C73.698 12.9291 73.5621 12.9291 73.4478 12.9881L73.4345 12.995C73.1476 13.1432 72.8153 12.8978 72.871 12.5798C72.8933 12.4524 72.8507 12.3219 72.7572 12.2325C72.5236 12.009 72.6576 11.6135 72.9775 11.5675C73.1047 11.5492 73.2171 11.469 73.2746 11.3541ZM81.6445 19.5974C81.7908 19.3054 82.2093 19.3057 82.3554 19.5978C82.413 19.7129 82.5236 19.7929 82.651 19.8113L82.6614 19.8128C82.9811 19.8588 83.1076 20.2526 82.8745 20.4762C82.7815 20.5653 82.739 20.6953 82.7609 20.8223C82.8159 21.1412 82.4828 21.3874 82.1952 21.2388L82.1825 21.2322C82.068 21.1731 81.9321 21.1731 81.8177 21.2322L81.805 21.2388C81.5181 21.387 81.1857 21.1413 81.2417 20.8232C81.2641 20.6957 81.2214 20.5651 81.1278 20.4756C80.8941 20.2522 81.0277 19.8567 81.3477 19.8107C81.4748 19.7924 81.587 19.7123 81.6445 19.5974Z" fill="#FFEB3B"/>
</svg>
