<svg width="32" height="32" viewBox="0 0 32 32" fill="none" xmlns="http://www.w3.org/2000/svg">
<circle cx="16" cy="16" r="16" fill="#EAFAF3"/>
<g clip-path="url(#clip0_1_3657)">
<path opacity="0.2" d="M10 19L22 19C23.2421 18.9986 24.2486 17.9921 24.25 16.75L24.25 10.75C24.2486 9.5079 23.2421 8.50137 22 8.5L10 8.5C8.7579 8.50137 7.75137 9.5079 7.75 10.75L7.75 16.75C7.75137 17.9921 8.7579 18.9986 10 19ZM16 11.5C17.2426 11.5 18.25 12.5074 18.25 13.75C18.25 14.9926 17.2426 16 16 16C14.7574 16 13.75 14.9926 13.75 13.75C13.7514 12.5079 14.7579 11.5014 16 11.5Z" fill="#2DCA8C"/>
<path d="M16 17.5C16.4141 17.4999 16.7499 17.8355 16.75 18.2496C16.75 18.2497 16.75 18.2499 16.75 18.25L16.75 22.75C16.75 23.1642 16.4142 23.5 16 23.5C15.5858 23.5 15.25 23.1642 15.25 22.75L15.25 18.25C15.2499 17.8359 15.5855 17.5001 15.9996 17.5C15.9997 17.5 15.9999 17.5 16 17.5Z" fill="#2DCA8C"/>
<path d="M14.3125 20.3125C14.5115 20.3123 14.7023 20.3914 14.8428 20.5322L16 21.6894L17.1573 20.5322C17.4528 20.2421 17.9276 20.2464 18.2178 20.5419C18.5042 20.8336 18.5042 21.301 18.2178 21.5927L16.5303 23.2802C16.2376 23.5731 15.7629 23.5732 15.47 23.2805C15.4699 23.2804 15.4698 23.2803 15.4697 23.2802L13.7822 21.5927C13.4894 21.2998 13.4894 20.8249 13.7824 20.5321C13.923 20.3915 14.1137 20.3125 14.3125 20.3125Z" fill="#2DCA8C"/>
<path d="M16 11.5C17.2426 11.5 18.25 12.5074 18.25 13.75C18.25 14.9926 17.2426 16 16 16C14.7574 16 13.75 14.9926 13.75 13.75C13.7514 12.5079 14.7579 11.5014 16 11.5Z" fill="#EAFAF3"/>
<path d="M20.5 13C20.0858 13 19.75 13.3358 19.75 13.75C19.75 14.1642 20.0858 14.5 20.5 14.5C20.9142 14.5 21.25 14.1642 21.25 13.75C21.25 13.3358 20.9142 13 20.5 13Z" fill="#2ECA8C"/>
<path d="M11.5 13C11.0858 13 10.75 13.3358 10.75 13.75C10.75 14.1642 11.0858 14.5 11.5 14.5C11.9142 14.5 12.25 14.1642 12.25 13.75C12.25 13.3358 11.9142 13 11.5 13Z" fill="#2ECA8C"/>
</g>
<defs>
<clipPath id="clip0_1_3657">
<rect width="18" height="18" fill="white" transform="translate(25 25) rotate(180)"/>
</clipPath>
</defs>
</svg>
