<svg width="56" height="72" viewBox="0 0 56 72" fill="none" xmlns="http://www.w3.org/2000/svg">
<path d="M0.783386 2.99992L5.94356 0L30.3962 2.08141L25.24 5.08133L0.783386 2.99992Z" fill="#519EFB"/>
<path d="M43.6907 65.3866L38.5313 68.3849C54.1659 59.2992 49.9097 32.8822 49.6393 31.2049L54.7986 28.2065C55.0687 29.8839 59.3253 56.3009 43.6907 65.3866Z" fill="#1553B0"/>
<path d="M25.2404 5.08292L30.3966 2.08301L54.798 28.211L49.6418 31.207L25.2404 5.08292Z" fill="#1553B0"/>
<g opacity="0.5" filter="url(#filter0_b_1_1905)">
<path d="M25.2376 5.08004L49.6394 31.2069C49.969 33.2532 56.2337 72.1331 25.0563 71.4188C-6.02301 36.1897 0.441198 4.65824 0.781399 2.99902L25.2376 5.08004Z" fill="url(#paint0_radial_1_1905)"/>
<path d="M1.18601 3.53526L25.0035 5.56193L49.1698 31.4366C49.4251 33.0542 50.8581 42.8133 48.6759 52.2353C47.544 57.1224 45.4489 61.8757 41.7536 65.3611C38.1053 68.8022 32.8504 71.0518 25.2861 70.9233C-3.99144 37.6216 0.412034 7.71369 1.18601 3.53526Z" stroke="url(#paint1_linear_1_1905)"/>
</g>
<g opacity="0.7" filter="url(#filter1_b_1_1905)">
<path d="M26.1064 63.3411C5.71723 39.7718 6.03378 18.5592 6.84151 11.5537L24.1433 12.7308L43.3198 33.3668C43.8091 36.9533 45.1505 50.5483 38.7258 58.0918C35.8173 61.5072 31.5725 63.2721 26.1064 63.3411Z" fill="url(#paint2_radial_1_1905)" fill-opacity="0.7"/>
<path d="M38.3451 57.7676L38.3451 57.7677C35.5909 61.0019 31.5746 62.7233 26.3319 62.8372C6.65137 39.982 6.53969 19.4175 7.28676 12.0852L23.9118 13.2162L42.8455 33.5908C43.0914 35.45 43.5082 39.5981 43.1173 44.2031C42.714 48.955 41.4569 54.114 38.3451 57.7676Z" stroke="white" stroke-opacity="0.5"/>
</g>
<g filter="url(#filter2_f_1_1905)">
<path d="M23.9362 40.4072C23.7625 40.3299 23.5906 40.2156 23.4302 40.0709C23.2698 39.9262 23.1241 39.7538 23.0014 39.5638L20.8863 36.2885C20.6409 35.9052 20.5038 35.4743 20.5049 35.0897C20.506 34.7052 20.6452 34.3982 20.8921 34.2359C21.139 34.0735 21.4736 34.069 21.8228 34.2233C22.172 34.3775 22.5075 34.678 22.7559 35.0592L23.9361 36.8875L27.4975 34.5462C27.62 34.4641 27.7658 34.4204 27.9265 34.4177C28.0872 34.415 28.2597 34.4532 28.4339 34.5302C28.6082 34.6073 28.7808 34.7216 28.9419 34.8666C29.103 35.0116 29.2493 35.1844 29.3726 35.3752C29.4958 35.5659 29.5934 35.7707 29.6599 35.978C29.7263 36.1852 29.7603 36.3906 29.7598 36.5826C29.7593 36.7745 29.7243 36.9491 29.6569 37.0963C29.5896 37.2435 29.4911 37.3604 29.3672 37.4403L24.871 40.3962C24.7483 40.477 24.6026 40.5196 24.4421 40.5215C24.2817 40.5233 24.1098 40.4845 23.9362 40.4072Z" fill="white"/>
</g>
<path d="M23.9362 40.4072C23.7625 40.3299 23.5906 40.2156 23.4302 40.0709C23.2698 39.9262 23.1241 39.7538 23.0014 39.5638L20.8863 36.2885C20.6409 35.9052 20.5038 35.4743 20.5049 35.0897C20.506 34.7052 20.6452 34.3982 20.8921 34.2359C21.139 34.0735 21.4736 34.069 21.8228 34.2233C22.172 34.3775 22.5075 34.678 22.7559 35.0592L23.9361 36.8875L27.4975 34.5462C27.62 34.4641 27.7658 34.4204 27.9265 34.4177C28.0872 34.415 28.2597 34.4532 28.4339 34.5302C28.6082 34.6073 28.7808 34.7216 28.9419 34.8666C29.103 35.0116 29.2493 35.1844 29.3726 35.3752C29.4958 35.5659 29.5934 35.7707 29.6599 35.978C29.7263 36.1852 29.7603 36.3906 29.7598 36.5826C29.7593 36.7745 29.7243 36.9491 29.6569 37.0963C29.5896 37.2435 29.4911 37.3604 29.3672 37.4403L24.871 40.3962C24.7483 40.477 24.6026 40.5196 24.4421 40.5215C24.2817 40.5233 24.1098 40.4845 23.9362 40.4072Z" fill="white"/>
<defs>
<filter id="filter0_b_1_1905" x="-4" y="-1.00098" width="58.3673" height="76.4297" filterUnits="userSpaceOnUse" color-interpolation-filters="sRGB">
<feFlood flood-opacity="0" result="BackgroundImageFix"/>
<feGaussianBlur in="BackgroundImageFix" stdDeviation="2"/>
<feComposite in2="SourceAlpha" operator="in" result="effect1_backgroundBlur_1_1905"/>
<feBlend mode="normal" in="SourceGraphic" in2="effect1_backgroundBlur_1_1905" result="shape"/>
</filter>
<filter id="filter1_b_1_1905" x="-125.086" y="-120.103" width="300.521" height="315.102" filterUnits="userSpaceOnUse" color-interpolation-filters="sRGB">
<feFlood flood-opacity="0" result="BackgroundImageFix"/>
<feGaussianBlur in="BackgroundImageFix" stdDeviation="65.8286"/>
<feComposite in2="SourceAlpha" operator="in" result="effect1_backgroundBlur_1_1905"/>
<feBlend mode="normal" in="SourceGraphic" in2="effect1_backgroundBlur_1_1905" result="shape"/>
</filter>
<filter id="filter2_f_1_1905" x="16.5049" y="30.1108" width="17.2549" height="14.4106" filterUnits="userSpaceOnUse" color-interpolation-filters="sRGB">
<feFlood flood-opacity="0" result="BackgroundImageFix"/>
<feBlend mode="normal" in="SourceGraphic" in2="BackgroundImageFix" result="shape"/>
<feGaussianBlur stdDeviation="2" result="effect1_foregroundBlur_1_1905"/>
</filter>
<radialGradient id="paint0_radial_1_1905" cx="0" cy="0" r="1" gradientUnits="userSpaceOnUse" gradientTransform="translate(25.1837 37.2138) rotate(89.7268) scale(27.6001 20.1838)">
<stop stop-color="#00DECA"/>
<stop offset="1" stop-color="#277DFE"/>
</radialGradient>
<linearGradient id="paint1_linear_1_1905" x1="23.9216" y1="63.7542" x2="37.707" y2="20.4548" gradientUnits="userSpaceOnUse">
<stop stop-color="#96C5FF"/>
<stop offset="1" stop-color="#1164F4" stop-opacity="0"/>
</linearGradient>
<radialGradient id="paint2_radial_1_1905" cx="0" cy="0" r="1" gradientUnits="userSpaceOnUse" gradientTransform="translate(9.01255 21.0394) rotate(56.8756) scale(54.7886 82.9693)">
<stop stop-color="#277DFE" stop-opacity="0.65"/>
<stop offset="0.0001" stop-color="white"/>
<stop offset="1" stop-color="#1F73FB"/>
</radialGradient>
</defs>
</svg>
