<svg width="32" height="32" viewBox="0 0 32 32" fill="none" xmlns="http://www.w3.org/2000/svg">
<circle cx="16" cy="16" r="16" fill="#2377FC" fill-opacity="0.1"/>
<path d="M19.75 12.25H17.5C17.0875 12.25 16.75 12.5875 16.75 13C16.75 13.4125 17.0875 13.75 17.5 13.75H19.75C20.9875 13.75 22 14.7625 22 16C22 17.2375 20.9875 18.25 19.75 18.25H17.5C17.0875 18.25 16.75 18.5875 16.75 19C16.75 19.4125 17.0875 19.75 17.5 19.75H19.75C21.82 19.75 23.5 18.07 23.5 16C23.5 13.93 21.82 12.25 19.75 12.25ZM13 16C13 16.4125 13.3375 16.75 13.75 16.75H18.25C18.6625 16.75 19 16.4125 19 16C19 15.5875 18.6625 15.25 18.25 15.25H13.75C13.3375 15.25 13 15.5875 13 16ZM14.5 18.25H12.25C11.0125 18.25 10 17.2375 10 16C10 14.7625 11.0125 13.75 12.25 13.75H14.5C14.9125 13.75 15.25 13.4125 15.25 13C15.25 12.5875 14.9125 12.25 14.5 12.25H12.25C10.18 12.25 8.5 13.93 8.5 16C8.5 18.07 10.18 19.75 12.25 19.75H14.5C14.9125 19.75 15.25 19.4125 15.25 19C15.25 18.5875 14.9125 18.25 14.5 18.25Z" fill="#1164F4"/>
</svg>
