<svg width="40" height="40" viewBox="0 0 40 40" fill="none" xmlns="http://www.w3.org/2000/svg">
<path d="M28.1612 2.38531C24.9851 5.65771 21.8089 8.91808 18.6328 12.1905C18.5967 12.2145 18.5726 12.2386 18.5365 12.2747L11.6188 19.1924C10.9571 19.8541 10.9571 20.9489 11.6188 21.6106L18.1756 28.1675L10.1029 36.6252C8.85169 35.771 7.66063 34.7845 6.48161 33.5934C-1.9761 25.1477 -2.26484 14.7049 6.25302 6.17504C13.0023 -0.574283 20.9668 -1.71722 28.1612 2.38531Z" fill="url(#paint0_linear_1_1493)"/>
<path d="M33.8398 33.7496C27.1025 40.4749 19.1862 41.678 12.0399 37.8161L14.8791 34.8445C17.0567 32.5947 19.2223 30.3569 21.3999 28.1072L23.5895 25.9175L27.8845 21.6225C28.5462 20.9608 28.5462 19.866 27.8845 19.2043L25.9115 17.2313L21.3758 12.6956L29.3643 4.33416L30.0621 3.6123C31.2411 4.44243 32.4202 5.441 33.539 6.55987C41.9245 14.9213 42.2855 25.2919 33.8398 33.7496Z" fill="url(#paint1_linear_1_1493)"/>
<defs>
<linearGradient id="paint0_linear_1_1493" x1="23.1101" y1="-13.446" x2="-30.6895" y2="104.101" gradientUnits="userSpaceOnUse">
<stop stop-color="#00DECA"/>
<stop offset="0.37798" stop-color="#3A8AFA"/>
<stop offset="1" stop-color="#1A6AF4"/>
</linearGradient>
<linearGradient id="paint1_linear_1_1493" x1="34.9878" y1="-9.74648" x2="-18.4811" y2="107.016" gradientUnits="userSpaceOnUse">
<stop stop-color="#00DECA"/>
<stop offset="0.37798" stop-color="#3A8AFA"/>
<stop offset="1" stop-color="#1A6AF4"/>
</linearGradient>
</defs>
</svg>
