<svg width="192" height="52" viewBox="0 0 192 52" fill="none" xmlns="http://www.w3.org/2000/svg">
<g clip-path="url(#clip0_1_7947)">
<path d="M57.9442 39.5132V2.44505H60.5083V37.0681H78.0665V39.5132H57.9442ZM90.7469 40.0263C86.7705 40.0263 83.6956 38.7384 81.3919 36.2933C79.2184 33.8483 78.0565 30.3769 78.0565 25.8692C78.0565 21.4923 79.0781 17.8901 81.2616 15.3142C83.4351 12.6076 86.2597 11.3197 89.9757 11.3197C93.1808 11.3197 95.7449 12.4768 97.668 14.6703C99.5911 16.9845 100.483 20.0735 100.483 23.9373V26H80.6206C80.6206 29.733 81.5221 32.6912 83.3149 34.6231C84.9776 36.6858 87.5417 37.5813 90.7469 37.5813C92.2794 37.5813 93.6916 37.4505 94.8435 37.1989C95.9953 36.9373 97.5378 36.555 99.3307 35.7802V38.2252C97.7982 38.8692 96.386 39.3824 95.1039 39.644C93.6716 39.9056 92.2092 40.0364 90.7469 40.0263ZM89.9757 13.644C87.2813 13.644 85.238 14.5495 83.5653 16.2198C82.0329 18.0209 81.0012 20.4659 80.7508 23.8166H97.668C97.668 20.5967 97.027 18.1517 95.6147 16.3506C94.3327 14.5395 92.4096 13.644 89.9757 13.644ZM113.814 11.4505C115.737 11.4505 117.53 11.8328 118.942 12.4768C120.354 13.2515 121.637 14.4087 122.788 16.2098H122.919C122.788 14.0263 122.788 11.9636 122.788 9.90093V0H125.222V39.5132H123.56L122.919 35.267C120.865 38.356 117.79 40.0263 113.944 40.0263C110.098 40.0263 107.283 38.8692 105.23 36.4241C103.177 34.1099 102.285 30.6285 102.285 26.1308C102.285 21.3715 103.307 17.7593 105.23 15.1935C107.153 12.6176 110.098 11.4505 113.814 11.4505ZM113.814 13.644C110.869 13.644 108.566 14.6703 107.023 16.8638C105.491 18.9265 104.719 22.0155 104.719 26.1308C104.719 33.9791 107.794 37.8429 113.814 37.8429C116.889 37.8429 119.193 36.9373 120.605 35.1362C122.017 33.3351 122.778 30.3769 122.778 26.1207V25.7384C122.778 21.4923 122.007 18.4032 120.605 16.6022C119.323 14.5395 117.019 13.644 113.814 13.644ZM151.865 11.9737V13.7748L146.226 14.1571C147.759 16.089 148.53 18.1517 148.53 20.3351C148.53 23.0418 147.628 25.0944 145.835 26.7748C144.043 28.445 141.739 29.2198 138.784 29.2198C137.502 29.2198 136.611 29.2198 136.22 29.089C135.198 29.6022 134.427 30.2461 133.916 30.8901C133.405 31.6649 133.145 32.3088 133.145 33.2043C133.145 34.0998 133.526 34.7438 134.167 35.1362C134.808 35.5186 135.96 35.7802 137.502 35.7802H142.24C145.184 35.7802 147.488 36.4241 149.031 37.5813C150.573 38.7384 151.465 40.5395 151.465 42.9845C151.465 45.9427 150.313 48.1362 148.009 49.6757C145.705 51.2152 142.37 51.9899 138.013 51.9899C134.557 51.9899 131.863 51.346 129.94 49.9272C128.017 48.6393 127.125 46.7074 127.125 44.3932C127.125 42.4613 127.766 40.9218 128.918 39.6339C130.07 38.346 131.733 37.5712 133.656 37.058C132.885 36.6757 132.123 36.1525 131.733 35.5186C131.232 34.8947 130.962 34.13 130.962 33.3351C130.962 31.5341 132.113 29.8638 134.417 28.445C132.885 27.8011 131.603 26.7748 130.701 25.356C129.8 23.9373 129.419 22.267 129.419 20.4659C129.419 17.7593 130.321 15.445 131.983 13.7748C133.776 12.1045 136.08 11.3297 139.035 11.3297C140.827 11.3297 142.24 11.4605 143.261 11.8429H151.845V11.9737H151.865ZM129.569 44.1517C129.569 47.8847 132.384 49.8166 138.023 49.8166C145.194 49.8166 148.79 47.5023 148.79 42.8638C148.79 41.1935 148.279 40.0364 147.128 39.2616C145.976 38.4868 144.183 38.1045 141.619 38.1045H137.131C132.133 38.2252 129.569 40.1571 129.569 44.1517ZM131.753 20.4659C131.753 22.6494 132.394 24.1989 133.676 25.4868C134.958 26.644 136.621 27.2879 138.804 27.2879C141.108 27.2879 142.901 26.644 144.053 25.4868C145.335 24.3297 145.845 22.6594 145.845 20.4659C145.845 18.1517 145.204 16.3506 143.922 15.1935C142.64 14.0364 140.978 13.3924 138.674 13.3924C136.5 13.3924 134.698 14.0364 133.546 15.3243C132.264 16.4714 131.753 18.2724 131.753 20.4659Z" fill="#333745"/>
<path d="M164.295 40.0265C160.319 40.0265 157.244 38.7386 154.94 36.2935C152.766 33.8485 151.605 30.3771 151.605 25.8694C151.605 21.4924 152.626 17.8903 154.81 15.3144C156.983 12.6077 159.808 11.3198 163.524 11.3198C166.729 11.3198 169.293 12.4769 171.216 14.6704C173.139 16.9847 174.031 20.0737 174.031 23.9375V26.0002H154.299C154.299 29.7331 155.2 32.6913 156.993 34.6232C158.656 36.6859 161.22 37.5814 164.425 37.5814C165.958 37.5814 167.37 37.4506 168.522 37.1991C169.674 36.9375 171.216 36.5551 173.009 35.7803V38.2254C171.477 38.8694 170.064 39.3825 168.782 39.6441C167.37 39.9057 165.958 40.0265 164.295 40.0265ZM163.654 13.6441C160.96 13.6441 158.916 14.5497 157.244 16.22C155.711 18.0211 154.68 20.4661 154.429 23.8167H171.346C171.346 20.5969 170.705 18.1519 169.293 16.3508C168.011 14.5396 166.088 13.6441 163.654 13.6441ZM188.253 11.4506C189.405 11.4506 190.687 11.5814 191.969 11.833L191.459 14.278C190.277 14.0164 189.075 13.8856 187.873 13.8957C185.569 13.8957 183.646 14.922 182.104 16.8539C180.571 18.9166 179.8 21.3616 179.8 24.4506V39.5133H177.236V11.9738H179.409L179.67 16.9947H179.8C180.952 14.932 182.104 13.5234 183.386 12.7486C184.928 11.843 186.461 11.4506 188.253 11.4506ZM33.4747 1.28809H15.1452V26.0002H39.7448V7.71765C39.7548 4.24629 36.9303 1.28809 33.4747 1.28809ZM9.51619 1.28809H6.44125C2.98569 1.28809 0.0309448 4.11548 0.0309448 7.72771V10.8167H9.51619V1.28809ZM0.0309448 16.6023H9.51619V26.131H0.0309448V16.6023ZM30.2695 41.3144H33.3445C36.8 41.3144 39.7548 38.487 39.7548 34.8748V31.7958H30.2695V41.3144ZM15.1452 31.7958H24.6305V41.3245H15.1452V31.7958ZM0.0309448 31.7958V34.8848C0.0309448 38.3562 2.84547 41.3245 6.44125 41.3245H9.51619V31.7958H0.0309448Z" fill="#333745"/>
</g>
<defs>
<clipPath id="clip0_1_7947">
<rect width="192" height="52" fill="white"/>
</clipPath>
</defs>
</svg>
