<svg width="48" height="32" viewBox="0 0 48 32" fill="none" xmlns="http://www.w3.org/2000/svg">
<mask id="mask0_1_3075" style="mask-type:alpha" maskUnits="userSpaceOnUse" x="0" y="0" width="48" height="32">
<rect x="6.10352e-05" width="48" height="32" rx="4" fill="#C4C4C4"/>
</mask>
<g mask="url(#mask0_1_3075)">
<path d="M47.6772 0H-0.999939V32H47.6772V0Z" fill="#012169"/>
<path d="M47.6772 10.5602H36.904L47.6772 3.49976V0H42.5341L27.4851 9.8602V0H19.2074V9.87541L4.12797 0H-0.999939V3.51498L9.75803 10.5602H-0.999939V21.4398H9.80367L-0.999939 28.5155V32H4.17362L19.2074 22.155V32H27.4851V22.1702L42.5036 32H47.6772V28.5307L36.8584 21.4398H47.6772V10.5602Z" fill="white"/>
<path d="M25.8267 0H20.8509V32H25.8267V0Z" fill="#D21034"/>
<path d="M47.6786 19.2778V12.7347L-0.998474 12.7347V19.2778L47.6786 19.2778Z" fill="#D21034"/>
<path d="M15.0533 10.5598H11.2188L-0.999939 2.55599V0.0452881L15.0533 10.5598Z" fill="#D21034"/>
<path d="M47.6771 29.489V31.9997L31.5629 21.4396H35.3974L47.6771 29.489Z" fill="#D21034"/>
<path d="M18.8422 21.4396L2.71285 31.9997H-0.999939V31.9236L15.0077 21.4396H18.8422Z" fill="#D21034"/>
<path d="M47.6772 0V0.0912988L31.7 10.5602H27.8807L43.9948 0H47.6772Z" fill="#D21034"/>
</g>
</svg>
