<svg width="105" height="28" viewBox="0 0 105 28" fill="none" xmlns="http://www.w3.org/2000/svg">
<path d="M11.5581 9.09714L7.77667 8.38642C5.27949 7.88892 4.70871 7.60464 4.70871 6.25428C4.70871 4.90393 5.56488 4.33535 8.34744 4.33535C11.4867 4.33535 12.4143 5.04607 12.4143 7.32035V7.67571L17.1232 6.39642C16.7665 2.70071 14.1266 0 8.49014 0C2.35423 0 -0.000244141 3.19821 -0.000244141 6.4675C-0.000244141 9.80785 1.7121 11.7978 5.77893 12.5086L9.56036 13.1482C12.557 13.6457 12.9137 14.1432 12.9137 15.5646C12.9137 16.9861 12.2716 17.5546 9.48901 17.5546C5.63623 17.5546 4.78006 16.915 4.78006 14.5696V14.2143L0.0711026 15.4936C0.427841 19.6868 3.3531 21.89 9.20362 21.89C15.2682 21.89 17.5513 18.8339 17.5513 15.4225C17.6227 12.3664 16.053 10.0211 11.5581 9.09714Z" fill="black"/>
<path d="M35.2104 12.7103V12.355C35.2104 8.44605 32.0711 5.81641 27.7902 5.81641C22.4391 5.81641 19.3712 9.08569 19.3712 14.2028C19.3712 19.2489 22.2251 22.4471 27.5048 22.4471C31.9284 22.4471 35.139 19.8175 35.139 15.9085V15.5532H30.3587V15.7664C30.3587 17.5432 29.3598 18.1828 27.3621 18.1828C25.079 18.1828 24.0801 17.1168 24.0801 14.1318C24.0801 11.1468 25.079 10.0807 27.3621 10.0807C29.3598 10.0807 30.3587 10.6493 30.3587 12.4971V12.7814H35.2104V12.7103Z" fill="black"/>
<path d="M44.8416 5.74512C40.3467 5.74512 37.3501 8.23261 37.3501 12.0705V12.4258L41.9163 12.0705C41.9163 10.4358 42.7012 9.93833 44.6276 9.93833C46.4826 9.93833 47.5528 10.2937 47.5528 12.1415V12.639L42.059 13.4919C38.777 13.9894 36.9933 15.553 36.9933 17.9694C36.9933 20.8833 39.2051 22.3758 42.059 22.3758C45.0556 22.3758 46.6253 21.0965 47.5528 19.8883H47.7669V22.0205H52.1904V12.568C52.0477 8.37476 49.5506 5.74512 44.8416 5.74512ZM43.5573 18.7512C42.1304 18.7512 41.4883 18.4669 41.4883 17.614C41.4883 16.9744 41.9163 16.619 42.9152 16.4769L47.4815 15.7662C47.4815 18.2537 45.4837 18.7512 43.5573 18.7512Z" fill="black"/>
<path d="M54.9023 2.04979V22.0919H59.6826V0.770508L54.9023 2.04979Z" fill="black"/>
<path d="M62.6786 2.04979V22.0919H67.4589V0.770508L62.6786 2.04979Z" fill="black"/>
<path fill-rule="evenodd" clip-rule="evenodd" d="M77.8757 5.74512C72.7387 5.74512 69.6707 9.0144 69.6707 14.0605C69.6707 19.1065 72.7387 22.3758 77.8757 22.3758C83.0127 22.3758 86.0093 19.1065 86.0093 14.0605C86.0093 9.0144 83.0127 5.74512 77.8757 5.74512ZM78.0221 18.4805C75.5848 18.4805 73.6021 16.4978 73.6021 14.0605C73.6021 11.6233 75.5848 9.64052 78.0221 9.64052C78.3913 9.64052 78.7606 9.68597 79.1242 9.77687C79.1981 9.79959 79.2662 9.85072 79.3003 9.9189L79.3713 10.0572C79.8983 11.0843 80.8006 11.8689 81.891 12.2482C82.0046 12.288 82.0785 12.3902 82.0785 12.5095V15.6058C82.0785 15.7251 82.0046 15.8274 81.891 15.8671C80.8003 16.2465 79.8969 17.03 79.3671 18.056L79.2947 18.1964C79.2606 18.2703 79.1924 18.3214 79.1185 18.3385C78.7549 18.435 78.3857 18.4805 78.0221 18.4805Z" fill="black"/>
<path d="M97.5679 5.74512C95.1421 5.74512 93.287 6.66904 92.4308 8.44583H92.2882V6.10047H87.8646V27.4219L92.6449 26.1426V19.9594H92.7876C93.5011 21.3097 95.0707 22.3758 97.6392 22.3758C101.991 22.3758 104.417 19.1065 104.417 14.0605C104.489 9.0144 102.063 5.74512 97.5679 5.74512ZM96.1409 18.3247C93.8578 18.3247 92.6449 17.543 92.6449 15.3398V12.7812C92.6449 10.649 93.9291 9.79618 96.1409 9.79618C98.9235 9.79618 99.637 11.1465 99.637 14.0605C99.637 16.9744 98.9235 18.3247 96.1409 18.3247Z" fill="black"/>
</svg>
