<svg width="350" height="50" viewBox="0 0 350 50" fill="none" xmlns="http://www.w3.org/2000/svg">
<rect width="50" height="50" rx="10" fill="#F5F6FA"/>
<path d="M18.0035 20.0004H17.9754C17.6688 20.0189 17.3616 19.974 17.0731 19.8684C16.7847 19.7629 16.521 19.599 16.2987 19.3871C16.0764 19.1751 15.9002 18.9195 15.7811 18.6364C15.662 18.3533 15.6025 18.0486 15.6064 17.7414C15.6103 17.4343 15.6775 17.1312 15.8037 16.8512C15.93 16.5712 16.1127 16.3202 16.3403 16.1139C16.5679 15.9077 16.8356 15.7505 17.1267 15.6524C17.4177 15.5542 17.7259 15.5171 18.032 15.5433C18.3395 15.5211 18.6484 15.5627 18.9391 15.6655C19.2298 15.7684 19.4961 15.9303 19.7212 16.141C19.9463 16.3518 20.1254 16.6068 20.2472 16.8901C20.369 17.1734 20.4309 17.4789 20.4289 17.7872C20.4269 18.0956 20.3612 18.4002 20.2358 18.682C20.1104 18.9637 19.9281 19.2164 19.7003 19.4243C19.4725 19.6322 19.2042 19.7907 18.9122 19.8898C18.6202 19.9889 18.3108 20.0266 18.0035 20.0004Z" fill="#AAB0B7"/>
<path d="M20.018 23H16.018V35H20.018V23Z" fill="#AAB0B7"/>
<path d="M30.5176 23C29.8435 23.0018 29.1786 23.156 28.5725 23.451C27.9665 23.746 27.4349 24.1741 27.0176 24.7034V23H23.0176V35H27.0176V29.5C27.0176 28.9696 27.2283 28.4609 27.6034 28.0858C27.9784 27.7107 28.4871 27.5 29.0176 27.5C29.548 27.5 30.0567 27.7107 30.4318 28.0858C30.8069 28.4609 31.0176 28.9696 31.0176 29.5V35H35.0176V27.5C35.0176 26.9091 34.9012 26.3239 34.675 25.7779C34.4489 25.232 34.1174 24.7359 33.6996 24.318C33.2817 23.9002 32.7856 23.5687 32.2397 23.3425C31.6937 23.1164 31.1085 23 30.5176 23Z" fill="#AAB0B7"/>
<rect x="75" width="50" height="50" rx="10" fill="#F5F6FA"/>
<path d="M89.3021 25.6456C91.3481 24.557 93.6321 23.6483 95.7661 22.7351C99.4374 21.2393 103.123 19.7694 106.846 18.4009C107.571 18.1677 108.872 17.9398 109 18.9767C108.93 20.4444 108.643 21.9036 108.445 23.3628C107.945 26.5717 107.366 29.7696 106.802 32.968C106.608 34.0334 105.226 34.5848 104.342 33.903C102.218 32.5169 100.077 31.1441 97.9796 29.7258C97.2925 29.0515 97.9296 28.083 98.5432 27.6015C100.293 25.9357 102.149 24.5205 103.807 22.7687C104.255 21.7252 102.933 22.6046 102.497 22.8741C100.101 24.4687 97.7643 26.1606 95.2387 27.5621C93.9486 28.248 92.445 27.6618 91.1555 27.279C89.9993 26.8166 88.305 26.3508 89.302 25.6457L89.3021 25.6456Z" fill="#AAB0B7"/>
<rect x="150" width="50" height="50" rx="10" fill="#F5F6FA"/>
<g clip-path="url(#clip0_1_8465)">
<g clip-path="url(#clip1_1_8465)">
<g clip-path="url(#clip2_1_8465)">
<path d="M185 19.36H184.21C183.914 19.36 183.5 19.785 183.5 20.059V29.992C183.5 30.27 183.914 30.641 184.21 30.641H185V33H177.832V30.64H179.332V20.2H179.262L175.758 33H173.047L169.586 20.2H169.5V30.64H171V33H165V30.64H165.77C166.086 30.64 166.5 30.27 166.5 29.992V20.06C166.5 19.786 166.086 19.36 165.77 19.36H165V17H172.504L174.964 26.262H175.035L177.52 17H185V19.36Z" fill="#AAB0B7"/>
</g>
</g>
</g>
<rect x="225" width="50" height="50" rx="10" fill="#F5F6FA"/>
<mask id="mask0_1_8465" style="mask-type:luminance" maskUnits="userSpaceOnUse" x="236" y="11" width="28" height="28">
<rect x="236" y="11" width="28" height="28" fill="white"/>
</mask>
<g mask="url(#mask0_1_8465)">
</g>
<path d="M258.475 21.0073C258.485 21.1924 258.485 21.3775 258.485 21.5523C258.483 22.691 258.317 23.8233 257.992 24.9147C257.307 27.4298 255.805 29.6453 253.721 31.2113C251.638 32.7773 249.092 33.6046 246.485 33.5626C244.191 33.5652 241.945 32.9045 240.018 31.6602C240.352 31.7016 240.688 31.7222 241.025 31.7219C242.924 31.7238 244.767 31.0862 246.259 29.9122C245.381 29.8957 244.529 29.6055 243.823 29.082C243.117 28.5585 242.592 27.8279 242.321 26.9919C242.583 27.0367 242.847 27.0608 243.113 27.0639C243.492 27.0653 243.869 27.0134 244.234 26.9096C243.331 26.7309 242.512 26.2609 241.903 25.5717C241.294 24.8824 240.927 24.0122 240.861 23.0947C240.844 22.9893 240.837 22.8826 240.84 22.7759V22.7245C241.426 23.0507 242.082 23.2306 242.753 23.2489C242.176 22.8643 241.703 22.3428 241.376 21.731C241.05 21.1192 240.88 20.436 240.881 19.7425C240.881 18.9958 241.076 18.2619 241.447 17.614C242.506 18.9189 243.828 19.986 245.327 20.7461C246.825 21.5061 248.468 21.942 250.146 22.0253C249.934 21.1205 250.026 20.1708 250.409 19.3239C250.792 18.477 251.443 17.7802 252.263 17.3417C253.082 16.9033 254.024 16.7477 254.941 16.8992C255.858 17.0507 256.699 17.5008 257.334 18.1795C258.281 17.9927 259.188 17.6449 260.018 17.1513C260.053 17.8672 259.934 18.5823 259.668 19.2478C259.401 19.9133 258.995 20.5135 258.475 21.0073Z" fill="#AAB0B7"/>
<rect x="300" width="50" height="50" rx="10" fill="#F5F6FA"/>
<path d="M325 20.0684C323.985 20.0684 322.992 20.3695 322.148 20.9337C321.303 21.498 320.645 22.2999 320.256 23.2382C319.868 24.1765 319.766 25.2089 319.964 26.205C320.162 27.2011 320.651 28.116 321.369 28.8342C322.088 29.5523 323.003 30.0413 323.999 30.2395C324.995 30.4376 326.027 30.3359 326.965 29.9473C327.904 29.5586 328.706 28.9005 329.27 28.056C329.834 27.2116 330.135 26.2188 330.135 25.2032C330.135 24.5289 330.002 23.8612 329.744 23.2382C329.486 22.6152 329.108 22.0491 328.631 21.5723C328.155 21.0955 327.588 20.7173 326.965 20.4592C326.342 20.2012 325.675 20.0683 325 20.0684ZM325 28.5368C324.341 28.5368 323.697 28.3413 323.148 27.975C322.6 27.6087 322.173 27.0881 321.921 26.4789C321.668 25.8698 321.602 25.1995 321.731 24.5528C321.86 23.9062 322.177 23.3122 322.643 22.846C323.109 22.3798 323.703 22.0623 324.35 21.9337C324.997 21.805 325.667 21.8711 326.276 22.1234C326.885 22.3757 327.406 22.803 327.772 23.3512C328.139 23.8994 328.334 24.5439 328.334 25.2032C328.334 25.641 328.248 26.0745 328.08 26.479C327.913 26.8835 327.667 27.251 327.358 27.5606C327.048 27.8701 326.681 28.1157 326.276 28.2832C325.872 28.4507 325.438 28.5369 325 28.5368Z" fill="#AAB0B7"/>
<path d="M334.94 21.0803C334.923 20.2508 334.766 19.43 334.475 18.6531C334.224 17.9859 333.83 17.3815 333.322 16.8816C332.823 16.3727 332.218 15.9791 331.551 15.7281C330.774 15.4369 329.954 15.2799 329.124 15.2637C328.058 15.2151 327.717 15.2031 325.001 15.2031C322.286 15.2031 321.944 15.2144 320.878 15.2637C320.048 15.2801 319.227 15.4371 318.45 15.7281C317.783 15.9793 317.179 16.3729 316.679 16.8816C316.17 17.3808 315.776 17.9855 315.525 18.6531C315.234 19.43 315.077 20.2508 315.061 21.0803C315.012 22.1465 315 22.4874 315 25.2031C315 27.9188 315.012 28.2597 315.061 29.3259C315.077 30.1554 315.234 30.9762 315.525 31.7532C315.776 32.4207 316.17 33.0254 316.679 33.5247C317.179 34.033 317.783 34.4266 318.45 34.6781C319.227 34.969 320.048 35.126 320.878 35.1425C321.944 35.191 322.285 35.2031 325 35.2031C327.716 35.2031 328.057 35.1918 329.123 35.1425C329.953 35.1261 330.773 34.9691 331.55 34.6781C332.215 34.4212 332.818 34.0283 333.322 33.5246C333.826 33.021 334.219 32.4176 334.475 31.7532C334.767 30.9763 334.924 30.1555 334.94 29.3259C334.988 28.2589 335 27.9188 335 25.2031C335 22.4874 334.988 22.1465 334.94 21.0803ZM333.141 29.2444C333.133 29.8785 333.017 30.5066 332.797 31.1015C332.63 31.5327 332.376 31.9243 332.049 32.2511C331.722 32.5779 331.33 32.8326 330.899 32.9989C330.304 33.2193 329.676 33.3357 329.042 33.3429C327.987 33.3913 327.671 33.401 325 33.401C322.33 33.401 322.014 33.3913 320.96 33.3429C320.326 33.3356 319.698 33.2192 319.103 32.9989C318.669 32.8383 318.276 32.5828 317.953 32.2509C317.621 31.9287 317.365 31.5359 317.205 31.1015C316.985 30.5068 316.868 29.8786 316.861 29.2444C316.813 28.1903 316.803 27.8737 316.803 25.2032C316.803 22.5327 316.813 22.217 316.861 21.162C316.869 20.5279 316.985 19.8999 317.205 19.305C317.366 18.8706 317.621 18.4776 317.953 18.1548C318.275 17.8222 318.669 17.5665 319.103 17.4068C319.698 17.1863 320.326 17.0699 320.96 17.0628C322.014 17.0143 322.331 17.0046 325 17.0046C327.67 17.0046 327.987 17.0151 329.042 17.0628C329.676 17.0707 330.304 17.1871 330.899 17.4068C331.33 17.573 331.722 17.8278 332.049 18.1548C332.376 18.4817 332.631 18.8736 332.797 19.305C333.017 19.8997 333.134 20.5278 333.141 21.162C333.189 22.217 333.199 22.5327 333.199 25.2032C333.199 27.8737 333.189 28.1894 333.141 29.2444H333.141Z" fill="#AAB0B7"/>
<path d="M330.339 18.665H330.339C330.02 18.6651 329.715 18.7915 329.49 19.0166C329.265 19.2416 329.139 19.5468 329.139 19.8649C329.139 20.1831 329.265 20.4883 329.49 20.7132C329.715 20.9382 330.021 21.0646 330.339 21.0646C330.657 21.0646 330.962 20.9382 331.187 20.7132C331.412 20.4883 331.539 20.1831 331.539 19.8649C331.539 19.5468 331.412 19.2416 331.187 19.0166C330.962 18.7915 330.657 18.6651 330.339 18.665Z" fill="#AAB0B7"/>
<defs>
<clipPath id="clip0_1_8465">
<rect width="24" height="24" fill="white" transform="translate(163 13)"/>
</clipPath>
<clipPath id="clip1_1_8465">
<rect width="24" height="24" fill="white" transform="translate(163 13)"/>
</clipPath>
<clipPath id="clip2_1_8465">
<rect width="24" height="24" fill="white" transform="translate(163 13)"/>
</clipPath>
</defs>
</svg>
