<svg width="15" height="17" viewBox="0 0 15 17" fill="none" xmlns="http://www.w3.org/2000/svg">
<path d="M2.00006 8.62499V11.625C2.00006 12.2475 2.50256 12.75 3.12506 12.75C3.74756 12.75 4.25006 12.2475 4.25006 11.625V8.62499C4.25006 8.00249 3.74756 7.49999 3.12506 7.49999C2.50256 7.49999 2.00006 8.00249 2.00006 8.62499ZM6.50006 8.62499V11.625C6.50006 12.2475 7.00256 12.75 7.62506 12.75C8.24756 12.75 8.75006 12.2475 8.75006 11.625V8.62499C8.75006 8.00249 8.24756 7.49999 7.62506 7.49999C7.00256 7.49999 6.50006 8.00249 6.50006 8.62499ZM1.62506 16.5H13.6251C14.2476 16.5 14.7501 15.9975 14.7501 15.375C14.7501 14.7525 14.2476 14.25 13.6251 14.25H1.62506C1.00256 14.25 0.500061 14.7525 0.500061 15.375C0.500061 15.9975 1.00256 16.5 1.62506 16.5ZM11.0001 8.62499V11.625C11.0001 12.2475 11.5026 12.75 12.1251 12.75C12.7476 12.75 13.2501 12.2475 13.2501 11.625V8.62499C13.2501 8.00249 12.7476 7.49999 12.1251 7.49999C11.5026 7.49999 11.0001 8.00249 11.0001 8.62499ZM6.92756 1.11749L1.00256 4.23749C0.695061 4.39499 0.500061 4.71749 0.500061 5.06249C0.500061 5.57999 0.920061 5.99999 1.43756 5.99999H13.8201C14.3301 5.99999 14.7501 5.57999 14.7501 5.06249C14.7501 4.71749 14.5551 4.39499 14.2476 4.23749L8.32256 1.11749C7.88756 0.88499 7.36256 0.88499 6.92756 1.11749Z" fill="#2277FC"/>
</svg>
