<svg width="578" height="48" viewBox="0 0 578 48" fill="none" xmlns="http://www.w3.org/2000/svg">
<path d="M38.7018 39.1635L44.0631 9.00586H52.4402L47.2464 39.1635H38.7018Z" fill="#939191"/>
<path d="M38.7018 39.1635L45.571 9.00586H52.4402L47.2464 39.1635H38.7018Z" fill="#939191"/>
<path d="M77.5725 9.34034C75.8971 8.67017 73.2164 8 69.8656 8C61.4885 8 55.4569 12.1886 55.4569 18.2201C55.4569 22.7437 59.6455 25.0893 62.9963 26.5972C66.3472 28.1051 67.3524 29.1103 67.3524 30.4507C67.3524 32.4612 64.6718 33.4664 62.3262 33.4664C58.9753 33.4664 57.1324 32.9638 54.2841 31.791L53.1113 31.2884L51.9386 38.1576C53.9491 38.9953 57.635 39.833 61.4885 39.833C70.3682 39.833 76.2322 35.6445 76.2322 29.2779C76.2322 25.7595 74.0541 23.0788 69.0279 20.9008C66.0121 19.3929 64.1691 18.5552 64.1691 17.0473C64.1691 15.7069 65.677 14.3666 69.0279 14.3666C71.8761 14.3666 73.8866 14.8692 75.3945 15.5394L76.2322 15.8745L77.5725 9.34034Z" fill="#939191"/>
<path d="M77.5725 9.34034C75.8971 8.67017 73.2164 8 69.8656 8C61.4885 8 56.9648 12.1886 56.9648 18.2201C56.9648 22.7437 59.6455 25.0893 62.9963 26.5972C66.3472 28.1051 67.3524 29.1103 67.3524 30.4507C67.3524 32.4612 64.6718 33.4664 62.3262 33.4664C58.9753 33.4664 57.1324 32.9638 54.2841 31.791L53.1113 31.2884L51.9386 38.1576C53.9491 38.9953 57.635 39.833 61.4885 39.833C70.3682 39.833 76.2322 35.6445 76.2322 29.2779C76.2322 25.7595 74.0541 23.0788 69.0279 20.9008C66.0121 19.3929 64.1691 18.5552 64.1691 17.0473C64.1691 15.7069 65.677 14.3666 69.0279 14.3666C71.8761 14.3666 73.8866 14.8692 75.3945 15.5394L76.2322 15.8745L77.5725 9.34034Z" fill="#939191"/>
<path d="M91.9806 9.00586C89.9701 9.00586 88.4622 9.1734 87.6245 11.1839L75.0588 39.1635H84.1061L85.7815 34.1372H96.5042L97.5095 39.1635H105.552L98.5147 9.00586H91.9806ZM88.1271 29.1109C88.6298 27.603 91.478 20.2312 91.478 20.2312C91.478 20.2312 92.1481 18.3882 92.6508 17.2154L93.1534 20.0636C93.1534 20.0636 94.8288 27.603 95.1639 29.2785H88.1271V29.1109Z" fill="#939191"/>
<path d="M93.9911 9.00586C91.9806 9.00586 90.4727 9.1734 89.635 11.1839L75.0588 39.1635H84.1061L85.7815 34.1372H96.5042L97.5095 39.1635H105.552L98.5147 9.00586H93.9911ZM88.1271 29.1109C88.7973 27.4355 91.478 20.2312 91.478 20.2312C91.478 20.2312 92.1481 18.3882 92.6508 17.2154L93.1534 20.0636C93.1534 20.0636 94.8288 27.603 95.1639 29.2785H88.1271V29.1109Z" fill="#939191"/>
<path d="M23.2879 30.1166L22.4502 25.7605C20.9423 20.7342 16.0835 15.2053 10.7222 12.5247L18.2616 39.3314H27.3089L40.8798 9.17383H31.8325L23.2879 30.1166Z" fill="#939191"/>
<path d="M23.2879 30.1166L22.4502 25.7605C20.9423 20.7342 16.0835 15.2053 10.7222 12.5247L18.2616 39.3314H27.3089L40.8798 9.17383H33.5079L23.2879 30.1166Z" fill="#939191"/>
<path d="M0 9.00586L1.50788 9.34095C12.2306 11.8541 19.6024 18.2207 22.4507 25.7601L19.4349 11.519C18.9323 9.50849 17.4244 9.00586 15.5814 9.00586H0Z" fill="#939191"/>
<path d="M0 9.00586C10.7227 11.519 19.6024 18.0531 22.4507 25.5925L19.6024 13.697C19.0998 11.6865 17.4244 10.5137 15.5814 10.5137L0 9.00586Z" fill="#939191"/>
<path d="M0 9.00586C10.7227 11.519 19.6024 18.0531 22.4507 25.5925L20.4402 19.0584C19.9375 17.0479 19.2674 15.0374 16.9218 14.1997L0 9.00586Z" fill="#939191"/>
<path d="M31.665 29.1097L25.9686 23.4133L23.2879 29.7799L22.6177 25.5913C21.1098 20.565 16.2511 15.0361 10.8898 12.3555L18.4292 39.1622H27.4764L31.665 29.1097Z" fill="#939191"/>
<path d="M47.2464 39.1629L40.0421 31.791L38.7018 39.1629H47.2464Z" fill="#939191"/>
<path d="M66.5148 28.7744C67.1849 29.4446 67.52 29.9472 67.3525 30.6174C67.3525 32.6279 64.6718 33.6331 62.3262 33.6331C58.9754 33.6331 57.1324 33.1305 54.2842 31.9577L53.1114 31.4551L51.9386 38.3243C53.9491 39.162 57.635 39.9997 61.4885 39.9997C66.8499 39.9997 71.206 38.4919 73.7191 35.8112L66.5148 28.7744Z" fill="#939191"/>
<path d="M76.2312 39.1629H84.1057L85.7811 34.1366H96.5038L97.5091 39.1629H105.551L102.703 26.9323L92.6503 17.2148L93.153 19.8955C93.153 19.8955 94.8284 27.4349 95.1635 29.1103H88.1267C88.7969 27.4349 91.4775 20.2306 91.4775 20.2306C91.4775 20.2306 92.1477 18.3876 92.6503 17.2148" fill="#939191"/>
<path d="M193.349 18.2317C191.715 18.2667 190.296 19.4699 190.305 21.3911C190.311 22.5066 191.173 23.3884 192.016 24.3187C193.317 25.7544 193.699 25.5011 193.639 26.9563C193.617 27.4889 192.733 28.3209 191.784 28.3186C190.377 28.3161 189.394 26.9657 189.784 25.3331H189.378L188.305 29.2172H188.711C188.83 28.8184 189.631 28.8542 189.958 28.8404C190.572 28.8144 190.923 29.3089 192.189 29.3042C193.923 29.2977 195.626 28.164 195.61 26.0578C195.601 24.9649 194.931 24.2223 194.045 23.3621C192.681 22.0394 192.15 21.407 192.392 20.3476C192.593 19.4711 193.219 19.2254 193.842 19.2172C195.008 19.2023 195.51 20.4321 195.668 21.71H196.045L197.001 18.4636H196.595C196.506 18.8471 196.037 18.8664 195.668 18.8404C195.501 18.8285 195.407 18.862 195.001 18.7245C194.568 18.5776 193.885 18.2204 193.349 18.2317ZM197.436 18.6665L197.32 19.3042C197.96 19.307 198.191 19.2926 198.189 20.4926V29.2172C198.189 29.2172 198.358 29.6001 198.595 29.2172C198.832 28.834 202.682 22.4636 202.682 22.4636V22.6665L202.653 29.2172C202.653 29.2172 202.898 29.6001 203.146 29.2172C203.394 28.834 208.711 20.0578 208.711 20.0578C208.954 19.6223 209.138 19.3191 209.755 19.3042L209.9 18.6665H206.624L206.508 19.3042C207.225 19.3056 207.703 19.1926 207.726 19.623C207.735 19.8035 207.703 19.9484 207.581 20.1737L204.885 24.5795L204.827 24.4926V20.4926C204.83 20.3127 204.831 20.1354 204.827 19.9998C204.809 19.3206 204.996 19.3056 205.523 19.3042L205.639 18.6665H201.987L201.871 19.3042C202.421 19.3191 202.661 19.4786 202.653 19.9708V20.8694L200.305 24.6665L200.218 24.7244V20.4636C200.219 20.3137 200.22 20.0784 200.218 19.9129C200.216 19.6807 200.165 19.3056 200.827 19.3042L201.001 18.6665H197.436ZM210.392 18.6665L210.276 19.3042C210.576 19.2886 210.881 19.4018 210.914 19.739C210.928 19.8858 210.841 20.1013 210.769 20.3766L208.769 27.8259C208.651 28.3207 208.056 28.5857 207.262 28.5795L207.146 29.2172H211.407L211.552 28.5795C210.799 28.5643 210.846 28.3559 210.856 28.0868C210.862 27.9184 210.943 27.7638 211.001 27.565L213.03 20.0868C213.239 19.3873 213.742 19.3197 214.508 19.3042L214.653 18.6665H210.392ZM215.233 18.6665L215.088 19.3042C215.723 19.3522 216.624 19.3452 216.392 20.0868C216.342 20.2489 216.397 20.1745 216.334 20.4346L214.392 27.681C214.241 28.3536 213.771 28.5642 213.204 28.5795L213.03 29.2172H217.552L217.726 28.5795C216.737 28.577 216.337 28.4446 216.537 27.681C216.58 27.5183 216.661 27.2302 216.711 26.9853L217.639 23.7969H217.842C218.726 23.7935 218.975 23.9036 219.001 24.3766C219.017 24.6805 219.009 24.927 219.03 25.1013H219.523L220.276 21.9998L219.871 21.9418C219.453 23.0102 218.561 23.0253 218.247 23.0143H217.842L218.479 20.4636C218.757 19.5212 218.847 19.5735 219.552 19.565C220.78 19.5503 221.509 19.7517 221.407 21.4781H221.813L222.566 18.6665H215.233ZM223.146 18.6665L222.363 21.4781H222.827C223.054 20.6927 223.06 20.5607 223.523 20.1447C223.998 19.729 224.509 19.565 225.32 19.565L223.204 27.3042C223.057 28.5682 222.33 28.564 221.407 28.5795L221.262 29.2172H226.044L226.16 28.6375C225.548 28.6942 225.172 28.2919 225.291 27.8259C225.337 27.6466 225.421 27.3804 225.494 27.0723L227.465 19.565C228.966 19.5641 229.267 20.1669 229.175 21.4781H229.61L230.363 18.6665H223.146ZM205.03 28.0288C204.779 28.0279 204.515 28.3415 204.45 28.7244C204.386 29.1074 204.547 29.4192 204.798 29.4201C205.049 29.4212 205.313 29.1074 205.378 28.7244C205.442 28.3418 205.281 28.0299 205.03 28.0288ZM212.45 28.0288C212.199 28.0279 211.935 28.3415 211.871 28.7244C211.806 29.1074 211.967 29.4192 212.218 29.4201C212.469 29.4212 212.734 29.1074 212.798 28.7244C212.863 28.3418 212.701 28.0299 212.45 28.0288ZM218.827 28.0288C218.576 28.0279 218.312 28.3415 218.247 28.7244C218.183 29.1074 218.315 29.4192 218.566 29.4201C218.817 29.4212 219.082 29.1074 219.146 28.7244C219.211 28.3418 219.078 28.0299 218.827 28.0288ZM195.987 28.0578C195.736 28.0566 195.5 28.3705 195.436 28.7534C195.371 29.1364 195.504 29.448 195.755 29.4491C196.006 29.4502 196.27 29.1364 196.334 28.7534C196.399 28.3705 196.238 28.0589 195.987 28.0578ZM227.349 28.0578C227.098 28.0569 226.833 28.3705 226.769 28.7534C226.704 29.1364 226.866 29.4482 227.117 29.4491C227.368 29.4502 227.632 29.1364 227.697 28.7534C227.761 28.3708 227.6 28.0589 227.349 28.0578Z" fill="#939191"/>
<path fill-rule="evenodd" clip-rule="evenodd" d="M194.662 18.5179C194.796 18.5721 194.918 18.6211 195.024 18.657C195.224 18.7246 195.344 18.7491 195.432 18.7587C195.476 18.7635 195.514 18.7647 195.551 18.7653C195.557 18.7654 195.563 18.7655 195.569 18.7656C195.601 18.7661 195.635 18.7666 195.673 18.7693M194.662 18.5179L194.644 18.5106L194.662 18.5179ZM194.644 18.5106C194.516 18.4588 194.379 18.4031 194.238 18.3519L194.644 18.5106ZM194.238 18.3519C193.945 18.2451 193.63 18.1545 193.347 18.1604L194.238 18.3519ZM194.189 18.4877C193.898 18.382 193.604 18.2997 193.35 18.305C191.752 18.3392 190.368 19.5133 190.377 21.3918C190.38 21.93 190.589 22.4154 190.906 22.8849C191.189 23.3037 191.554 23.7046 191.929 24.1168C191.975 24.1681 192.022 24.2195 192.069 24.2711C192.392 24.6278 192.658 24.8795 192.875 25.0797C192.906 25.108 192.936 25.1354 192.965 25.162C193.139 25.3219 193.282 25.453 193.393 25.5846C193.524 25.7412 193.613 25.9009 193.663 26.1166C193.713 26.3297 193.726 26.5945 193.711 26.9603C193.704 27.1113 193.638 27.276 193.533 27.435C193.428 27.595 193.28 27.7543 193.104 27.8955C192.752 28.1773 192.278 28.3931 191.783 28.3919C190.346 28.3893 189.351 27.035 189.693 25.4064H189.433L188.4 29.1459H188.661C188.705 29.0497 188.783 28.9799 188.875 28.9296C188.982 28.8711 189.113 28.8361 189.244 28.8141C189.446 28.7806 189.666 28.776 189.827 28.7726C189.875 28.7716 189.918 28.7707 189.954 28.7692C190.23 28.7575 190.458 28.8455 190.712 28.9435C190.758 28.9613 190.805 28.9796 190.854 28.9976C191.171 29.1153 191.567 29.2352 192.189 29.2329C193.041 29.2297 193.883 28.9494 194.509 28.4144C195.133 27.8806 195.545 27.0909 195.537 26.0593C195.529 25 194.882 24.2768 193.994 23.415C193.314 22.755 192.833 22.2597 192.554 21.7942C192.272 21.3227 192.196 20.8807 192.322 20.3325C192.425 19.8784 192.642 19.581 192.918 19.3976C193.193 19.2153 193.521 19.1501 193.84 19.1459C194.455 19.1381 194.893 19.4604 195.194 19.9415C195.483 20.4039 195.649 21.0166 195.731 21.6387H195.99L196.904 18.5369H196.649C196.584 18.7262 196.43 18.8268 196.256 18.8761C196.069 18.9292 195.849 18.9266 195.662 18.9135L195.662 18.9135C195.63 18.9112 195.6 18.9107 195.568 18.9102C195.562 18.9101 195.555 18.91 195.549 18.9099C195.51 18.9092 195.467 18.9079 195.416 18.9024C195.314 18.8914 195.184 18.8638 194.978 18.7939C194.867 18.7564 194.741 18.7057 194.608 18.652L194.591 18.6449C194.462 18.5929 194.327 18.538 194.189 18.4877ZM193.347 18.1604C191.677 18.1962 190.223 19.4286 190.233 21.3925L193.347 18.1604ZM196.538 18.3923L196.525 18.4483L196.538 18.3923ZM196.525 18.4483C196.488 18.6059 196.376 18.6919 196.217 18.737L196.525 18.4483ZM196.217 18.737C196.055 18.7829 195.856 18.7822 195.673 18.7693L196.217 18.737ZM197.375 18.5952H201.095L200.882 19.3774L200.827 19.3775C200.508 19.3781 200.388 19.4681 200.336 19.5587C200.309 19.6074 200.296 19.6644 200.291 19.7266C200.288 19.7741 200.289 19.82 200.29 19.8661C200.29 19.8817 200.29 19.8974 200.29 19.9132V19.9133C200.292 20.0356 200.291 20.1961 200.291 20.3318C200.291 20.3802 200.291 20.4254 200.29 20.4647V24.5537L202.581 20.8498V19.9713L202.581 19.9707C202.584 19.7355 202.529 19.5992 202.425 19.5158C202.317 19.4283 202.141 19.3848 201.868 19.3774L201.784 19.3752L201.926 18.5952H205.725L205.583 19.3773L205.523 19.3775C205.39 19.3778 205.284 19.3791 205.199 19.3906C205.113 19.402 205.056 19.4226 205.016 19.4551C204.977 19.4867 204.945 19.5362 204.924 19.6226C204.903 19.7104 204.895 19.8314 204.899 19.9989C204.903 20.1359 204.902 20.3142 204.899 20.4941V24.4186L207.518 20.1387C207.634 19.9234 207.662 19.7919 207.653 19.6279C207.648 19.5347 207.62 19.482 207.58 19.4481C207.537 19.4116 207.469 19.3877 207.368 19.3755C207.268 19.3633 207.146 19.3637 206.999 19.3673C206.963 19.3682 206.925 19.3694 206.886 19.3705C206.77 19.374 206.643 19.3777 206.508 19.3775L206.421 19.3773L206.564 18.5952H209.99L209.812 19.3761L209.756 19.3774C209.461 19.3846 209.278 19.46 209.139 19.5791C208.997 19.7014 208.896 19.8743 208.774 20.094L208.753 20.1311H208.752L208.544 20.4741C208.398 20.7148 208.189 21.0592 207.938 21.4735C207.436 22.3023 206.763 23.4113 206.083 24.5323C204.723 26.7733 203.331 29.0647 203.206 29.2574C203.139 29.3616 203.065 29.4241 202.986 29.4488C202.905 29.4739 202.831 29.456 202.773 29.426C202.716 29.3964 202.671 29.3536 202.641 29.3203C202.626 29.3034 202.614 29.2881 202.606 29.2769C202.602 29.2713 202.598 29.2666 202.596 29.2632C202.595 29.2621 202.595 29.261 202.594 29.2602L202.593 29.2592L202.593 29.2579L202.592 29.2573L202.592 29.2572C202.592 29.2572 202.592 29.2572 202.653 29.2182L202.592 29.2572L202.581 29.2392L202.609 22.7244L202.578 22.7765C202.472 22.9514 202.321 23.2017 202.139 23.5034C201.774 24.1066 201.285 24.9148 200.789 25.7351C199.797 27.3753 198.775 29.0642 198.656 29.2562C198.594 29.3579 198.528 29.4216 198.456 29.4477C198.381 29.4754 198.313 29.4553 198.263 29.422C198.215 29.3902 198.181 29.345 198.159 29.3116C198.147 29.2943 198.139 29.2787 198.133 29.2674C198.13 29.2617 198.128 29.257 198.126 29.2536C198.125 29.2519 198.124 29.2505 198.124 29.2494L198.123 29.2481L198.123 29.2477L198.123 29.2475L198.123 29.2474C198.123 29.2474 198.123 29.2474 198.189 29.2182L198.123 29.2474L198.117 29.2334V20.4935C198.117 20.1949 198.103 19.9762 198.073 19.8154C198.043 19.6543 197.998 19.559 197.942 19.4999C197.889 19.4423 197.817 19.411 197.715 19.3947C197.614 19.3787 197.493 19.3782 197.34 19.3776L197.233 19.3771L197.375 18.5952ZM198.261 29.2014C198.266 29.2094 198.272 29.2204 198.28 29.2325C198.297 29.2589 198.319 29.2856 198.343 29.3016C198.365 29.3162 198.384 29.32 198.407 29.3118C198.434 29.302 198.478 29.27 198.534 29.1802C198.652 28.989 199.673 27.3011 200.666 25.6603C201.162 24.84 201.65 24.0318 202.015 23.4286C202.197 23.1269 202.348 22.8766 202.454 22.7017L202.62 22.4273C202.62 22.4273 202.62 22.4272 202.682 22.4646L202.62 22.4272L202.754 22.2052V22.6675L202.754 22.6678L202.725 29.1953C202.731 29.203 202.739 29.2129 202.749 29.2238C202.773 29.2504 202.804 29.2793 202.84 29.2976C202.874 29.3154 202.908 29.3215 202.943 29.3107C202.979 29.2995 203.029 29.2662 203.085 29.1789C203.208 28.9883 204.598 26.7001 205.959 24.4573C206.64 23.3363 207.312 22.2273 207.814 21.3986C208.066 20.9842 208.274 20.6399 208.42 20.3992L208.648 20.0225C208.768 19.8071 208.881 19.6111 209.045 19.4695C209.204 19.333 209.405 19.2509 209.696 19.2351L209.809 18.7398H206.684L206.595 19.2325C206.695 19.2315 206.79 19.2287 206.88 19.2261C206.919 19.2249 206.958 19.2237 206.996 19.2228C207.141 19.2191 207.274 19.2184 207.386 19.232C207.497 19.2455 207.598 19.2741 207.673 19.3376C207.751 19.4036 207.791 19.4981 207.798 19.6202C207.808 19.8167 207.771 19.9747 207.644 20.2091L207.643 20.2108L204.887 24.7148L204.755 24.5155V20.4931L204.755 20.4926C204.757 20.3128 204.758 20.1367 204.755 20.0027C204.75 19.8307 204.758 19.695 204.784 19.5889C204.809 19.4815 204.854 19.3998 204.925 19.3425C204.995 19.2862 205.082 19.2603 205.179 19.2473C205.261 19.2364 205.356 19.2339 205.462 19.2331L205.552 18.7398H202.047L201.956 19.2364C202.194 19.2503 202.384 19.2965 202.516 19.4033C202.669 19.5263 202.729 19.7156 202.725 19.9724V20.8909L200.358 24.7189L200.146 24.8605V20.4645C200.146 20.4248 200.146 20.3792 200.146 20.3306C200.147 20.1951 200.147 20.036 200.146 19.9145L200.218 19.9139L200.146 19.9146L200.146 19.9145C200.146 19.9021 200.145 19.8886 200.145 19.8744C200.144 19.8269 200.143 19.7708 200.147 19.7154C200.153 19.642 200.169 19.5616 200.211 19.4873C200.294 19.3405 200.464 19.2446 200.771 19.2339L200.757 19.2862L200.827 19.3052L200.827 19.2329C200.808 19.2329 200.789 19.2333 200.771 19.2339L200.906 18.7398H197.496L197.406 19.2333C197.529 19.234 197.641 19.2365 197.737 19.2519C197.858 19.2712 197.964 19.3118 198.048 19.401C198.13 19.4887 198.183 19.6149 198.215 19.7887C198.248 19.9628 198.262 20.1922 198.261 20.4937V29.2014ZM210.332 18.5952H214.744L214.566 19.3763L214.509 19.3775C214.125 19.3853 213.821 19.4065 213.588 19.5064C213.363 19.6031 213.198 19.7761 213.099 20.1076C213.099 20.1079 213.099 20.1082 213.099 20.1085L211.07 27.5856L211.07 27.5862C211.051 27.6535 211.028 27.7182 211.007 27.7774C210.996 27.8068 210.986 27.8349 210.977 27.8613C210.95 27.9439 210.931 28.0167 210.928 28.0903C210.928 28.1049 210.927 28.1189 210.926 28.1322C210.924 28.1845 210.922 28.228 210.927 28.2687C210.932 28.3166 210.944 28.3516 210.971 28.3803C210.999 28.4102 211.048 28.441 211.142 28.4649C211.235 28.4888 211.367 28.5045 211.553 28.5082L211.642 28.51L211.464 29.2905H207.059L207.201 28.5078L207.262 28.5082C207.652 28.5113 207.987 28.4476 208.237 28.3265C208.486 28.2059 208.646 28.031 208.699 27.8101L208.699 27.8091L210.699 20.3593L210.699 20.3591C210.717 20.2892 210.737 20.2233 210.755 20.162C210.757 20.1532 210.76 20.1445 210.762 20.1359C210.778 20.0843 210.792 20.0365 210.804 19.9917C210.833 19.8849 210.848 19.8058 210.842 19.7469C210.828 19.6026 210.757 19.5101 210.659 19.4528C210.557 19.3936 210.421 19.3701 210.28 19.3774L210.189 19.3821L210.332 18.5952ZM210.452 18.7398L210.363 19.232C210.493 19.2362 210.623 19.2647 210.731 19.3278C210.868 19.4074 210.967 19.5401 210.986 19.733L210.986 19.733C210.994 19.821 210.972 19.9231 210.944 20.0296C210.931 20.0762 210.916 20.1258 210.901 20.1773C210.898 20.1858 210.896 20.1944 210.893 20.203C210.875 20.2641 210.857 20.3283 210.839 20.396L210.839 20.3964L208.839 27.8437C208.839 27.844 208.839 27.8444 208.839 27.8447C208.773 28.1181 208.577 28.3227 208.3 28.4566C208.038 28.5835 207.701 28.6492 207.322 28.6528L207.232 29.1459H211.349L211.462 28.65C211.314 28.6435 211.197 28.6283 211.106 28.605C210.997 28.5772 210.918 28.5362 210.865 28.4784C210.81 28.4195 210.79 28.351 210.783 28.2836C210.777 28.2313 210.78 28.1743 210.782 28.121C210.783 28.1088 210.783 28.0969 210.784 28.0852C210.787 27.9905 210.811 27.9018 210.84 27.8154C210.851 27.784 210.862 27.7535 210.873 27.723C210.893 27.6666 210.913 27.6099 210.931 27.5464C210.931 27.5463 210.931 27.5461 210.931 27.5459L212.96 20.068L212.96 20.0671C213.07 19.6997 213.261 19.4894 213.531 19.3736C213.781 19.2665 214.092 19.2429 214.45 19.2342L214.562 18.7398H210.452ZM215.175 18.5952H222.66L221.868 21.5514H221.33L221.334 21.4748C221.385 20.6176 221.227 20.167 220.932 19.9256C220.632 19.68 220.169 19.631 219.552 19.6383C219.513 19.6388 219.477 19.6391 219.442 19.6394C219.317 19.6404 219.217 19.6411 219.132 19.6494C219.027 19.6599 218.955 19.6814 218.897 19.7236C218.839 19.7661 218.786 19.8355 218.73 19.9579C218.674 20.0803 218.618 20.2489 218.549 20.4836L217.934 22.943H218.248L218.25 22.9431C218.403 22.9484 218.691 22.947 218.991 22.8175C219.288 22.689 219.601 22.4324 219.803 21.9165L219.824 21.8632L220.365 21.9405L219.579 25.1746H218.966L218.958 25.1109C218.947 25.0197 218.944 24.911 218.941 24.7901C218.941 24.7739 218.941 24.7574 218.94 24.7407C218.938 24.6317 218.936 24.512 218.929 24.3816C218.922 24.2687 218.903 24.1848 218.869 24.121C218.836 24.0589 218.787 24.0112 218.711 23.9741C218.552 23.8964 218.286 23.8685 217.842 23.8702L217.841 23.8702H217.693L216.781 27.0037C216.74 27.2018 216.68 27.4275 216.636 27.5917C216.625 27.6321 216.615 27.6687 216.607 27.7003C216.558 27.8864 216.548 28.0254 216.57 28.1295C216.591 28.2301 216.641 28.3019 216.724 28.356C216.811 28.4121 216.935 28.4508 217.104 28.4749C217.273 28.4988 217.479 28.5076 217.726 28.5082L217.82 28.5085L217.607 29.2905H212.935L213.148 28.5097L213.202 28.5083C213.478 28.5008 213.722 28.4459 213.914 28.3177C214.103 28.1908 214.249 27.9871 214.322 27.6661L214.322 27.6647L216.264 20.4186C216.264 20.4183 216.264 20.418 216.264 20.4177C216.294 20.2923 216.295 20.2516 216.295 20.2243C216.295 20.2226 216.295 20.2209 216.295 20.2191C216.296 20.2043 216.296 20.1865 216.299 20.1636C216.303 20.1384 216.31 20.1086 216.323 20.0663C216.377 19.8936 216.361 19.7776 216.313 19.6962C216.264 19.6127 216.171 19.5504 216.041 19.5046C215.911 19.459 215.753 19.4328 215.584 19.4153C215.471 19.4035 215.356 19.3959 215.244 19.3885C215.189 19.3848 215.135 19.3813 215.082 19.3773L214.999 19.3709L215.175 18.5952ZM215.29 18.7398L215.177 19.2391C215.201 19.2407 215.225 19.2423 215.25 19.2439C215.363 19.2515 215.483 19.2594 215.599 19.2715C215.771 19.2894 215.943 19.3169 216.089 19.3682C216.234 19.4193 216.363 19.4973 216.437 19.6226C216.513 19.7499 216.523 19.9113 216.461 20.1093C216.449 20.1481 216.444 20.1697 216.442 20.1843C216.44 20.197 216.44 20.2053 216.44 20.2202L216.44 20.2256C216.44 20.2666 216.437 20.3186 216.404 20.4526L216.404 20.4535L214.462 27.6992C214.462 27.6988 214.462 27.6983 214.463 27.6978L214.392 27.682L214.462 27.7007L214.462 27.6992C214.383 28.0501 214.219 28.2876 213.994 28.4379C213.785 28.5777 213.53 28.6374 213.259 28.6507L213.273 28.5995L213.204 28.5805L213.206 28.6528C213.224 28.6523 213.242 28.6516 213.259 28.6507L213.124 29.1459H213.03V29.2182L213.099 29.2372L213.124 29.1459H217.496L217.482 29.1992L217.551 29.2182V29.1459H217.496L217.631 28.6521C217.662 28.6525 217.693 28.6527 217.725 28.6528L217.725 28.5805L217.656 28.5615L217.631 28.6521C217.422 28.6496 217.24 28.6401 217.084 28.618C216.906 28.5927 216.758 28.5501 216.646 28.4773C216.531 28.4025 216.457 28.2979 216.428 28.1588C216.4 28.0233 216.416 27.8593 216.467 27.6636C216.476 27.6308 216.486 27.5932 216.497 27.5521C216.541 27.3871 216.6 27.1658 216.64 26.9718L216.641 26.9689L217.584 23.7256L217.841 23.7256L217.841 23.7979V23.7256H217.841C218.281 23.724 218.581 23.7494 218.775 23.8442C218.875 23.8933 218.948 23.9615 218.997 24.0531C219.044 24.1428 219.066 24.2501 219.073 24.3737L219.073 24.3737C219.08 24.5068 219.083 24.629 219.085 24.7379C219.085 24.7546 219.085 24.771 219.086 24.787C219.088 24.8794 219.09 24.9602 219.095 25.03H219.03V25.1023L219.102 25.0937C219.099 25.0735 219.097 25.0523 219.095 25.03H219.466L219.452 25.0852L219.522 25.1023V25.03H219.466L220.187 22.0611L220.266 22.0724L220.276 22.0008L220.206 21.9838L220.187 22.0611L219.916 22.0224C219.923 22.005 219.931 21.9872 219.938 21.9692L219.87 21.9429L219.86 22.0144L219.916 22.0224C219.699 22.5401 219.369 22.8114 219.048 22.9502C218.72 23.0922 218.407 23.0932 218.246 23.0876H218.247V23.0153L218.245 23.0876C218.245 23.0876 218.245 23.0876 218.246 23.0876H217.749L218.409 20.4471L218.409 20.4456L218.41 20.4442C218.479 20.2084 218.538 20.0306 218.599 19.8977C218.66 19.7646 218.725 19.6699 218.812 19.6067C218.9 19.543 219 19.5172 219.118 19.5056C219.21 19.4965 219.318 19.4957 219.445 19.4947C219.479 19.4945 219.514 19.4942 219.551 19.4938C220.162 19.4864 220.678 19.5307 221.024 19.8137C221.365 20.0924 221.521 20.5839 221.483 21.4068H221.407V21.4791L221.479 21.4834C221.48 21.4575 221.482 21.432 221.483 21.4068H221.757L221.743 21.4604L221.812 21.4791V21.4068H221.757L222.472 18.7398H215.29ZM223.091 18.5952H230.457L229.665 21.5514H229.097L229.103 21.474C229.149 20.8191 229.093 20.3666 228.861 20.0757C228.636 19.7953 228.231 19.6455 227.52 19.6386L225.564 27.0899C225.564 27.0902 225.564 27.0904 225.564 27.0907C225.518 27.284 225.466 27.4663 225.423 27.6173C225.399 27.705 225.377 27.7821 225.361 27.8448C225.307 28.0534 225.365 28.2437 225.502 28.3769C225.639 28.5111 225.864 28.5933 226.153 28.5665L226.25 28.5576L226.103 29.2905H221.171L221.349 28.5092L221.429 28.5078C221.886 28.5002 222.271 28.4937 222.564 28.3464C222.85 28.2023 223.06 27.9144 223.132 27.2968L223.132 27.2914L225.225 19.6391C224.482 19.6517 224.011 19.8151 223.57 20.1998C223.342 20.4051 223.233 20.5346 223.151 20.7051C223.081 20.8516 223.031 21.0287 222.95 21.3128C222.933 21.3703 222.916 21.4322 222.896 21.4991L222.881 21.5514H222.268L223.091 18.5952ZM223.201 18.7398L222.458 21.4068H222.772C222.785 21.3613 222.798 21.318 222.81 21.2767C222.89 20.9929 222.945 20.8011 223.021 20.6427C223.114 20.447 223.24 20.3025 223.474 20.092L223.475 20.0916L223.475 20.0913C223.967 19.6611 224.497 19.4937 225.32 19.4937L225.414 19.4937L223.275 27.319C223.199 27.9618 222.973 28.3025 222.629 28.4756C222.309 28.6366 221.899 28.6447 221.464 28.6519L221.352 29.1459H225.985L226.071 28.7159C225.791 28.7213 225.557 28.6328 225.401 28.4805C225.226 28.3103 225.155 28.0664 225.221 27.809C225.239 27.7381 225.261 27.6578 225.287 27.5686C225.329 27.4214 225.377 27.25 225.423 27.0566L225.423 27.0558L227.409 19.4938L227.464 19.4937C228.221 19.4933 228.701 19.6441 228.974 19.9854C229.233 20.31 229.289 20.7881 229.252 21.4068H229.554L230.269 18.7398H223.201ZM190.233 21.3925C190.236 21.9698 190.46 22.4831 190.786 22.9658L190.233 21.3925ZM190.786 22.9658C191.075 23.3939 191.448 23.803 191.822 24.214L190.786 22.9658ZM191.822 24.214C191.868 24.2653 191.915 24.3167 191.962 24.3682L191.822 24.214ZM191.962 24.3682C192.289 24.7294 192.559 24.9844 192.777 25.186L191.962 24.3682ZM192.777 25.186C192.809 25.2149 192.839 25.2426 192.868 25.2693L192.777 25.186ZM192.868 25.2693C193.043 25.4301 193.178 25.5538 193.282 25.6777L192.868 25.2693ZM193.282 25.6777C193.401 25.8192 193.478 25.9587 193.523 26.1497L193.282 25.6777ZM193.523 26.1497C193.568 26.3433 193.581 26.5925 193.566 26.9544L193.523 26.1497ZM204.614 28.1873C204.727 28.0525 204.874 27.957 205.03 27.9575H205.03C205.19 27.9582 205.314 28.059 205.386 28.2019C205.458 28.3443 205.483 28.5342 205.449 28.7375C205.415 28.941 205.327 29.1272 205.213 29.2637C205.1 29.3985 204.953 29.4941 204.798 29.4934C204.638 29.4928 204.513 29.3922 204.441 29.2492C204.369 29.1068 204.344 28.9169 204.379 28.7135M204.725 28.2801C204.628 28.3959 204.552 28.5581 204.521 28.7374C204.491 28.917 204.515 29.0745 204.57 29.184C204.625 29.2928 204.707 29.3485 204.798 29.3488H204.798C204.894 29.3492 205.004 29.2885 205.102 29.1709C205.199 29.055 205.276 28.8928 205.306 28.7134C205.337 28.5341 205.313 28.3767 205.257 28.2672C205.202 28.1583 205.121 28.1025 205.03 28.1021C204.934 28.1018 204.824 28.1626 204.725 28.2801ZM212.035 28.1873C212.147 28.0525 212.295 27.957 212.45 27.9575H212.45C212.61 27.9582 212.735 28.0589 212.807 28.2019C212.879 28.3443 212.904 28.5341 212.869 28.7374C212.835 28.941 212.748 29.1272 212.633 29.2637C212.521 29.3985 212.373 29.4941 212.218 29.4934C212.058 29.4928 211.934 29.3922 211.861 29.2492C211.789 29.1068 211.765 28.9169 211.799 28.7134C211.833 28.5099 211.921 28.3237 212.035 28.1873ZM212.146 28.2801C212.049 28.3959 211.972 28.5581 211.942 28.7374C211.911 28.9169 211.935 29.0745 211.99 29.184C212.045 29.2928 212.127 29.3485 212.218 29.3488H212.218C212.314 29.3492 212.424 29.2885 212.523 29.1709C212.619 29.055 212.696 28.8929 212.727 28.7135C212.757 28.5341 212.733 28.3767 212.678 28.2672C212.623 28.1583 212.541 28.1025 212.45 28.1021C212.354 28.1018 212.244 28.1626 212.146 28.2801ZM218.412 28.1873C218.524 28.0525 218.672 27.957 218.827 27.9575H218.827C218.989 27.9582 219.106 28.061 219.171 28.205C219.234 28.3474 219.251 28.5363 219.217 28.7374M218.412 28.1873C218.297 28.3237 218.21 28.5099 218.176 28.7134L218.412 28.1873ZM218.522 28.2801C218.426 28.3959 218.349 28.5581 218.318 28.7374C218.288 28.9191 218.305 29.0775 218.354 29.187C218.402 29.2949 218.477 29.3485 218.566 29.3488H218.566C218.662 29.3492 218.772 29.2885 218.87 29.1709C218.967 29.055 219.044 28.8929 219.074 28.7135C219.105 28.532 219.088 28.3736 219.039 28.2641C218.99 28.1562 218.916 28.1025 218.827 28.1021C218.731 28.1018 218.621 28.1626 218.522 28.2801ZM195.584 28.2182C195.689 28.0827 195.83 27.9858 195.987 27.9865C196.146 27.9872 196.271 28.0878 196.343 28.2308C196.415 28.3732 196.44 28.563 196.405 28.7664C196.371 28.97 196.284 29.1562 196.17 29.2927C196.057 29.4275 195.91 29.5231 195.754 29.5224C195.593 29.5217 195.475 29.419 195.411 29.275C195.347 29.1327 195.33 28.9438 195.364 28.7424C195.398 28.5407 195.477 28.355 195.584 28.2182ZM195.698 28.307C195.608 28.4225 195.537 28.5852 195.507 28.7664C195.476 28.9481 195.494 29.1064 195.543 29.2159C195.591 29.3237 195.665 29.3774 195.755 29.3778C195.85 29.3782 195.961 29.3175 196.059 29.1999C196.156 29.084 196.233 28.9218 196.263 28.7424C196.293 28.5629 196.269 28.4055 196.214 28.296C196.159 28.1872 196.077 28.1315 195.986 28.1311C195.892 28.1307 195.789 28.1901 195.698 28.307ZM226.933 28.2163C227.046 28.0815 227.193 27.986 227.349 27.9865H227.349C227.509 27.9872 227.633 28.0879 227.705 28.2309C227.777 28.3733 227.802 28.5631 227.768 28.7664M226.933 28.2163C226.819 28.3527 226.732 28.5388 226.698 28.7424L226.933 28.2163ZM227.044 28.3091C226.947 28.4249 226.87 28.5871 226.84 28.7664C226.81 28.9459 226.834 29.1035 226.889 29.2129C226.944 29.3218 227.026 29.3775 227.117 29.3778H227.117C227.212 29.3782 227.323 29.3175 227.421 29.1999C227.518 29.084 227.595 28.9218 227.625 28.7424C227.655 28.5631 227.632 28.4056 227.576 28.2962C227.521 28.1873 227.439 28.1315 227.348 28.1311C227.253 28.1308 227.142 28.1916 227.044 28.3091Z" fill="#939191"/>
<path fill-rule="evenodd" clip-rule="evenodd" d="M187.963 31.0309C187.242 28.8172 186.853 26.4541 186.853 24.0001C186.853 21.5595 187.238 19.2088 187.951 17.0055H231.152C231.865 19.2088 232.25 21.5595 232.25 24.0001C232.25 26.4541 231.861 28.8172 231.14 31.0309H187.963ZM188.431 32.3322H196.886C197.408 34.8668 198.364 37.0823 199.51 38.9834H192.5C190.786 37.0338 189.4 34.7878 188.431 32.3322ZM193.739 40.2847H200.355C201.328 41.6794 202.386 42.8755 203.405 43.8755C204.535 44.9837 205.622 45.8559 206.504 46.4959C201.571 45.8339 197.139 43.5872 193.739 40.2847ZM208.865 46.5005C208.846 46.4891 208.826 46.4772 208.805 46.4648C208.55 46.3119 208.18 46.0799 207.729 45.7684C206.826 45.1451 205.6 44.2057 204.317 42.9466C203.532 42.1767 202.728 41.2897 201.965 40.2847H208.865V46.5005ZM208.865 38.9834H201.046C199.821 37.1101 198.782 34.8947 198.217 32.3322H208.865V38.9834ZM210.166 32.3322V38.9834H218.118C219.345 37.1121 220.389 34.8975 220.963 32.3322H210.166ZM222.295 32.3322H230.672C229.703 34.7878 228.317 37.0338 226.603 38.9834H219.656C220.804 37.0839 221.764 34.869 222.295 32.3322ZM218.807 40.2847H225.364C221.973 43.5776 217.558 45.8209 212.642 46.4901C213.517 45.8584 214.591 45.0014 215.708 43.9142C216.742 42.907 217.818 41.6983 218.807 40.2847ZM210.166 46.5563V40.2847H217.196C216.418 41.3058 215.598 42.2043 214.8 42.9818C213.516 44.2316 212.292 45.1622 211.391 45.779C210.94 46.0872 210.571 46.3165 210.317 46.4676C210.261 46.501 210.211 46.5306 210.166 46.5563ZM230.687 15.7042H222.09C221.573 13.1737 220.628 10.9577 219.494 9.05304H226.635C228.343 11.0038 229.722 13.2497 230.687 15.7042ZM225.402 7.75172H218.66C217.685 6.33664 216.625 5.12288 215.604 4.10872C214.498 3.0104 213.433 2.14151 212.564 1.49943C217.529 2.15782 221.988 4.42146 225.402 7.75172ZM210.166 1.45095C210.187 1.46335 210.208 1.47638 210.23 1.49004C210.483 1.6444 210.851 1.87836 211.299 2.19226C212.195 2.82048 213.412 3.76637 214.687 5.03208C215.478 5.81778 216.289 6.72409 217.058 7.75172H210.166V1.45095ZM210.166 9.05304H217.964C219.174 10.9306 220.201 13.1466 220.76 15.7042H210.166V9.05304ZM208.865 15.7042V9.05304H200.906C199.669 10.9285 198.62 13.1438 198.048 15.7042H208.865ZM196.717 15.7042H188.417C189.381 13.2497 190.76 11.0038 192.469 9.05304H199.366C198.209 10.9557 197.244 13.1711 196.717 15.7042ZM200.219 7.75172H193.702C197.095 4.44096 201.522 2.18436 206.452 1.51115C205.571 2.14444 204.498 2.99769 203.382 4.07449C202.325 5.09444 201.227 6.31927 200.219 7.75172ZM208.865 1.48239V7.75172H201.833C202.628 6.71395 203.468 5.8007 204.286 5.01079C205.588 3.75413 206.83 2.8168 207.745 2.19479C208.202 1.884 208.577 1.65257 208.835 1.49992C208.845 1.49396 208.855 1.48811 208.865 1.48239ZM185.551 24.0001C185.551 37.2546 196.297 48 209.551 48C222.806 48 233.552 37.2547 233.552 24.0001C233.552 10.7453 222.806 3.8147e-06 209.551 3.8147e-06C196.297 3.8147e-06 185.551 10.7453 185.551 24.0001Z" fill="#939191"/>
<path d="M339.568 18.2076H331.556C331.556 16.8927 331.402 16.0105 331.094 15.561C330.617 14.8967 329.301 14.5638 327.147 14.5638C325.055 14.5638 323.669 14.755 322.992 15.1382C322.316 15.5229 321.977 16.3586 321.977 17.6454C321.977 18.8102 322.277 19.5781 322.878 19.9453C323.309 20.2067 323.878 20.3598 324.586 20.4055L326.202 20.5198C329.665 20.7491 331.828 20.9114 332.691 21.0035C335.429 21.2793 337.415 22.0076 338.647 23.1877C339.616 24.1088 340.194 25.3125 340.378 26.798C340.486 27.6871 340.54 28.6935 340.54 29.8111C340.54 32.3876 340.294 34.2739 339.802 35.4692C338.91 37.6633 336.906 39.0491 333.788 39.6311C332.481 39.8772 330.483 39.9998 327.794 39.9998C323.307 39.9998 320.18 39.7332 318.415 39.1961C316.248 38.5386 314.819 37.2062 314.128 35.2003C313.742 34.0834 313.552 32.223 313.552 29.6191H321.564C321.564 29.9094 321.565 30.1318 321.565 30.2849C321.565 31.6745 321.964 32.5674 322.762 32.9658C323.314 33.2401 323.981 33.3841 324.764 33.4016H327.71C329.214 33.4016 330.173 33.3246 330.586 33.17C331.323 32.8805 331.807 32.4143 332.038 31.769C332.16 31.3713 332.221 30.8578 332.221 30.2286C332.221 28.8199 331.707 27.9629 330.68 27.6551C330.295 27.534 328.51 27.3641 325.321 27.15C322.759 26.9672 320.98 26.7912 319.985 26.6205C317.362 26.1299 315.613 25.1205 314.741 23.5884C313.974 22.2872 313.591 20.3179 313.591 17.6827C313.591 15.6768 313.798 14.0678 314.212 12.858C314.627 11.6475 315.295 10.7287 316.217 10.1002C317.567 9.13495 319.296 8.56891 321.399 8.39978C323.15 8.24665 325.092 8.16895 327.228 8.16895C330.591 8.16895 332.988 8.36245 334.416 8.74565C337.903 9.68271 339.646 12.3065 339.646 16.6184C339.646 16.9719 339.62 17.5006 339.568 18.2076Z" fill="#939191"/>
<path d="M374.802 40V8H387.355H389.325H390.848C393.049 8 394.728 8.17903 395.882 8.53862C398.521 9.3652 400.292 11.0588 401.199 13.617C401.667 14.9601 401.901 16.982 401.901 19.6819C401.901 22.9281 401.642 25.2601 401.127 26.6809C400.098 29.489 397.98 31.1071 394.781 31.5261C394.405 31.5894 392.804 31.645 389.979 31.6907L388.549 31.7379H383.415V40H374.802ZM383.415 24.3146H388.783C390.486 24.2537 391.521 24.1227 391.894 23.9177C392.403 23.6381 392.745 23.0774 392.915 22.2371C393.024 21.6779 393.078 20.846 393.078 19.7414C393.078 18.3876 392.97 17.3842 392.752 16.7291C392.443 15.8111 391.701 15.2526 390.526 15.0492C390.293 15.0188 389.737 15.002 388.856 15.002H383.415V24.3146Z" fill="#939191"/>
<path d="M420.285 34.4699H408.77L407.222 40H398.312L407.927 8H420.919L430.651 40H421.928L420.285 34.4699ZM418.575 28.2358L414.539 14.3643L410.623 28.2358H418.575Z" fill="#939191"/>
<path d="M362.915 12.5017C366.467 12.5017 369.637 14.1381 371.721 16.7009L373.578 12.7203C370.674 9.97621 366.723 8.28418 362.364 8.28418C355.578 8.28418 349.773 12.3828 347.39 18.185H343.77L341.632 22.7674H346.29C346.254 23.1925 346.232 23.6176 346.232 24.0518C346.232 24.5767 346.259 25.0963 346.311 25.609H343.97L341.834 30.1929H347.502C349.952 35.848 355.684 39.8179 362.364 39.8179C365.731 39.8179 368.854 38.8093 371.441 37.086V31.4683C369.358 33.8398 366.311 35.3384 362.915 35.3384C358.945 35.3384 355.453 33.2913 353.42 30.1929H365.287L367.425 25.609H351.673C351.592 25.0574 351.548 24.4937 351.548 23.9193C351.548 23.5307 351.568 23.1468 351.606 22.7674H368.75L370.887 18.185H353.088C355.057 14.7879 358.72 12.5017 362.915 12.5017Z" fill="#939191"/>
<path d="M362.915 12.6392C366.3 12.6392 369.47 14.1522 371.614 16.7882L371.753 16.9588L371.847 16.76L373.702 12.7794L373.744 12.6887L373.673 12.6202C370.621 9.73588 366.604 8.14746 362.364 8.14746C359.052 8.14746 355.866 9.11499 353.149 10.9457C350.496 12.7329 348.46 15.2188 347.264 18.1328L347.39 18.0475H343.77H343.682L343.645 18.1267L341.508 22.7099L341.417 22.9057H341.632H346.289L346.152 22.7564C346.113 23.2325 346.094 23.6553 346.094 24.0522C346.094 24.5665 346.121 25.0959 346.174 25.6231L346.311 25.4723H343.97H343.884L343.847 25.5515L341.709 30.1347L341.618 30.3305H341.834H347.502L347.375 30.2475C349.93 36.1448 355.814 39.9555 362.364 39.9555C365.648 39.9555 368.812 39.004 371.517 37.2015L371.577 37.1611V37.0864V31.4687V31.1038L371.337 31.378C369.203 33.8075 366.134 35.2001 362.915 35.2001C359.129 35.2001 355.622 33.2994 353.534 30.1172L353.419 30.3305H365.287H365.376L365.412 30.252L367.55 25.6673L367.641 25.4723H367.425H351.673L351.81 25.5896C351.728 25.0342 351.686 24.4735 351.686 23.9197C351.686 23.5426 351.705 23.1601 351.743 22.7815L351.606 22.9057H368.75H368.838L368.875 22.8264L371.012 18.2433L371.104 18.0475H370.887H353.088L353.207 18.2539C355.214 14.7906 358.934 12.6392 362.915 12.6392ZM353.088 18.3225H370.887L370.762 18.1267L368.626 22.7099L368.75 22.6307H351.606H351.482L351.468 22.7548C351.43 23.1418 351.411 23.5342 351.411 23.9197C351.411 24.4865 351.454 25.0624 351.537 25.63L351.555 25.7473H351.673H367.425L367.301 25.5515L365.164 30.1347L365.287 30.0555H353.419H353.164L353.304 30.2673C355.443 33.5294 359.036 35.4744 362.915 35.4744C366.212 35.4744 369.358 34.0482 371.544 31.5593L371.303 31.4687V37.0864L371.364 36.9729C368.704 38.7442 365.593 39.6805 362.364 39.6805C355.923 39.6805 350.139 35.9345 347.628 30.1378L347.591 30.0555H347.502H341.834L341.959 30.252L344.095 25.6673L343.97 25.7473H346.311H346.462L346.448 25.5957C346.396 25.0777 346.369 24.5573 346.369 24.0522C346.369 23.6637 346.388 23.247 346.427 22.7792L346.439 22.6307H346.289H341.632L341.757 22.8264L343.894 18.2433L343.77 18.3225H347.39H347.482L347.517 18.2372C348.694 15.3734 350.694 12.931 353.303 11.1735C355.974 9.37477 359.108 8.42324 362.364 8.42324C366.534 8.42324 370.482 9.98424 373.483 12.8205L373.453 12.6621L371.598 16.6434L371.828 16.6145C369.63 13.9138 366.383 12.3642 362.915 12.3642C358.835 12.3642 355.025 14.5682 352.968 18.116L352.849 18.3225H353.088Z" fill="#939191"/>
<path d="M515.253 35.262H514.649L514.048 38.6287H514.634C516.023 38.6287 516.643 37.9064 516.643 36.5516C516.643 35.6973 516.174 35.262 515.253 35.262ZM514.482 40.4189H513.728L512.994 44.6357H510.651L512.624 33.4718H515.721C517.545 33.4718 519.119 34.176 519.119 36.3504C519.119 39.163 517.244 40.4189 514.482 40.4189Z" fill="#939191"/>
<path d="M522.908 38.7099C522.043 38.7099 521.193 40.1504 521.193 41.7369C521.193 42.554 521.387 43.0339 521.786 43.0339C522.475 43.0339 523.453 41.4639 523.82 39.414L523.885 39.062C523.74 38.9482 523.5 38.7099 522.908 38.7099ZM525.054 44.6353H522.892L523.085 43.513C522.718 44.0902 522.171 44.7969 520.938 44.7969C519.912 44.7969 518.92 43.9937 518.92 41.9777C518.92 39.0784 520.634 36.9469 522.618 36.9469C523.74 36.9469 524.156 37.4112 524.302 37.5563L524.381 37.1085H526.384L525.054 44.6353Z" fill="#939191"/>
<path d="M531.09 44.1731C529.986 46.3814 528.882 47.6784 526.318 48L526.079 46.4308C527.056 46.1257 528.048 45.631 528.594 44.5236L528.816 44.075L527.505 37.1098H529.795L530.371 41.2088L532.261 37.1098H534.646L531.09 44.1731Z" fill="#939191"/>
<path d="M545.123 44.6357H542.961L543.842 39.671C543.905 39.3519 543.89 39.0303 543.523 39.0303C542.849 39.0303 541.647 40.6324 541.312 42.5545L540.944 44.6357H538.779L539.663 39.671C539.725 39.3519 539.712 39.0303 539.341 39.0303C538.669 39.0303 537.469 40.6324 537.13 42.5545L536.763 44.6357H534.602L535.93 37.109H538.091L537.788 38.8711C538.269 38.0845 539.021 36.9474 540.318 36.9474C541.487 36.9474 542.001 37.7011 541.919 38.9033C542.335 38.2123 543.121 36.9474 544.498 36.9474C545.828 36.9474 546.308 37.9254 546.035 39.4615L545.123 44.6357Z" fill="#939191"/>
<path d="M551.416 38.4848C550.744 38.4848 550.102 39.3349 549.846 40.552C551.271 40.3598 552.136 40.0242 552.136 39.1889C552.136 38.7099 551.847 38.4848 551.416 38.4848ZM549.733 41.7864C549.766 42.6159 550.119 43.0339 550.839 43.0339C551.672 43.0339 552.471 42.601 553.066 42.2341L553.658 43.6425C553.161 44.0111 552.088 44.7969 550.536 44.7969C548.854 44.7969 547.509 43.9805 547.509 41.7055C547.509 39.062 548.965 36.9469 551.529 36.9469C553.451 36.9469 554.283 37.7814 554.283 39.062C554.283 41.144 552.585 41.6412 549.733 41.7864Z" fill="#939191"/>
<path d="M561.457 44.6357H559.295L560.176 39.671C560.241 39.3519 560.225 39.0303 559.857 39.0303C559.184 39.0303 557.982 40.6324 557.646 42.5545L557.279 44.6357H555.115L556.445 37.109H558.608L558.304 38.8711C558.784 38.0845 559.536 36.9474 560.833 36.9474C562.162 36.9474 562.642 37.9254 562.373 39.4615L561.457 44.6357Z" fill="#939191"/>
<path d="M568.185 38.7099H567.065L566.409 42.4246C566.342 42.7462 566.455 42.9045 566.695 42.9045C566.92 42.9045 567.097 42.8426 567.306 42.7462L567.528 44.2345C567.207 44.4431 566.599 44.7969 565.734 44.7969C564.614 44.7969 563.959 44.0902 564.228 42.5705L564.903 38.7099H564.101L564.387 37.1085H565.19L565.637 35.4751L567.721 35.0257L567.351 37.1085H568.473L568.185 38.7099Z" fill="#939191"/>
<path d="M574.223 39.3992C573.759 39.0784 573.021 38.7272 572.447 38.7272C571.997 38.7272 571.692 38.8863 571.692 39.2549C571.692 39.5905 572.03 39.7373 572.479 39.9269L572.894 40.1034C573.663 40.4233 574.513 40.9354 574.513 42.2811C574.513 43.8824 573.663 44.7969 571.741 44.7969C570.172 44.7969 569.257 44.1067 568.682 43.6919L569.53 42.2028C570.092 42.6167 570.971 43.0174 571.549 43.0174C572.047 43.0174 572.252 42.8426 572.252 42.474C572.252 42.1055 571.901 41.9438 571.453 41.7682L571.02 41.5942C570.253 41.2891 569.434 40.7762 569.434 39.4454C569.434 37.7171 570.766 36.9477 572.429 36.9477C573.775 36.9477 574.609 37.6214 574.992 37.9076L574.223 39.3992Z" fill="#939191"/>
<path d="M545.144 24.2471H540.475L540.021 26.8429H543.638L543.302 28.7674H539.688L538.85 33.4873H536.506L538.483 22.3234H545.495L545.144 24.2471Z" fill="#939191"/>
<path d="M548.096 27.5595C547.231 27.5595 546.381 29.0017 546.381 30.5865C546.381 31.4045 546.574 31.8844 546.974 31.8844C547.663 31.8844 548.641 30.316 549.007 28.2653L549.073 27.9132C548.929 27.8002 548.689 27.5595 548.096 27.5595ZM550.24 33.4857H548.078L548.271 32.3643C547.904 32.9415 547.359 33.6465 546.125 33.6465C545.1 33.6465 544.108 32.845 544.108 30.8289C544.108 27.9289 545.822 25.7982 547.806 25.7982C548.929 25.7982 549.344 26.2632 549.489 26.4067L549.569 25.959H551.571L550.24 33.4857Z" fill="#939191"/>
<path d="M557.565 28.2496C557.099 27.9289 556.363 27.576 555.787 27.576C555.338 27.576 555.033 27.7376 555.033 28.1045C555.033 28.4409 555.371 28.5844 555.817 28.7774L556.234 28.9547C557.003 29.2746 557.852 29.785 557.852 31.1315C557.852 32.7345 557.003 33.6465 555.082 33.6465C553.512 33.6465 552.601 32.958 552.022 32.5432L552.873 31.0524C553.431 31.468 554.313 31.8687 554.89 31.8687C555.383 31.8687 555.595 31.6931 555.595 31.3245C555.595 30.9559 555.242 30.7959 554.793 30.6186L554.361 30.4438C553.593 30.1387 552.775 29.6275 552.775 28.2975C552.775 26.5683 554.105 25.799 555.77 25.799C557.114 25.799 557.948 26.471 558.333 26.758L557.565 28.2496Z" fill="#939191"/>
<path d="M563.57 27.5595H562.449L561.791 31.2775C561.729 31.5966 561.839 31.7574 562.079 31.7574C562.305 31.7574 562.481 31.6922 562.688 31.5966L562.911 33.0849C562.591 33.2944 561.983 33.6465 561.119 33.6465C559.999 33.6465 559.341 32.9415 559.614 31.421L560.287 27.5595H559.484L559.774 25.959H560.574L561.023 24.3255L563.105 23.8761L562.735 25.959H563.858L563.57 27.5595Z" fill="#939191"/>
<path d="M568.101 27.336C567.428 27.336 566.786 28.1845 566.532 29.4007C567.957 29.2094 568.821 28.8738 568.821 28.041C568.821 27.5595 568.534 27.336 568.101 27.336ZM566.418 30.6351C566.451 31.468 566.803 31.8844 567.525 31.8844C568.359 31.8844 569.158 31.4523 569.751 31.0845L570.343 32.4929C569.846 32.8615 568.773 33.6465 567.22 33.6465C565.539 33.6465 564.193 32.8302 564.193 30.5568C564.193 27.9132 565.65 25.799 568.215 25.799C570.135 25.799 570.967 26.6318 570.967 27.9132C570.967 29.9953 569.27 30.4917 566.418 30.6351Z" fill="#939191"/>
<path d="M577.086 28.1383C575.997 28.1383 574.746 29.0668 574.331 31.4061L573.963 33.4873H571.801L573.131 25.9598H575.244L574.973 27.5454C575.467 26.4248 576.045 25.7998 577.502 25.7998L577.086 28.1383Z" fill="#939191"/>
<path d="M544.439 15.5252V15.5631C544.436 16.1007 544.012 16.64 543.17 17.0457L514.983 30.6982C513.289 31.5203 512.662 30.8507 513.585 29.2115L518.742 20.0472C519.49 18.7097 519.918 17.1677 519.918 15.5252C519.918 13.8818 519.49 12.339 518.742 11.0032L513.585 1.83889C512.662 0.198807 513.289 -0.470749 514.983 0.351353L543.17 14.003C544.012 14.4128 544.436 14.9496 544.439 15.4873V15.5252Z" fill="#939191"/>
</svg>
